<?plantuml 1.2026.2beta3?>
<svg xmlns="http://www.w3.org/2000/svg" xmlns:xlink="http://www.w3.org/1999/xlink" contentStyleType="text/css" data-diagram-type="DESCRIPTION" height="346px" preserveAspectRatio="none" style="width:1613px;height:346px;background:#FFFFFF;" version="1.1" viewBox="0 0 1613 346" width="1613px" zoomAndPan="magnify"><title>Admin - Navegacion</title><defs/><g><g class="title" data-source-line="1"><text fill="#000000" font-family="sans-serif" font-size="14" font-weight="bold" lengthAdjust="spacing" textLength="157.7051" x="720.9175" y="22.9951">Admin - Navegacion</text></g><!--cluster Zona Admin--><g class="cluster" data-qualified-name="Zona Admin" data-source-line="6" id="ent0003"><path d="M97.36,43.2969 L192.6276,43.2969 A3.75,3.75 0 0 1 195.1276,45.7969 L202.1276,65.5938 L1604.04,65.5938 A2.5,2.5 0 0 1 1606.54,68.0938 L1606.54,336.7969 A2.5,2.5 0 0 1 1604.04,339.2969 L97.36,339.2969 A2.5,2.5 0 0 1 94.86,336.7969 L94.86,45.7969 A2.5,2.5 0 0 1 97.36,43.2969" fill="none" style="stroke:#000000;stroke-width:1.5;"/><line style="stroke:#000000;stroke-width:1.5;" x1="94.86" x2="202.1276" y1="65.5938" y2="65.5938"/><text fill="#000000" font-family="sans-serif" font-size="14" font-weight="bold" lengthAdjust="spacing" textLength="94.2676" x="98.86" y="58.292">Zona Admin</text></g><!--entity HADMIN--><g class="entity" data-qualified-name="Zona Admin.HADMIN" data-source-line="7" id="ent0004"><rect fill="#F1F1F1" height="46.2969" rx="2.5" ry="2.5" style="stroke:#181818;stroke-width:0.5;" width="164.9473" x="110.86" y="197.1469"/><rect fill="#F1F1F1" height="10" style="stroke:#181818;stroke-width:0.5;" width="15" x="255.8073" y="202.1469"/><rect fill="#F1F1F1" height="2" style="stroke:#181818;stroke-width:0.5;" width="4" x="253.8073" y="204.1469"/><rect fill="#F1F1F1" height="2" style="stroke:#181818;stroke-width:0.5;" width="4" x="253.8073" y="208.1469"/><text fill="#000000" font-family="sans-serif" font-size="14" lengthAdjust="spacing" textLength="124.9473" x="125.86" y="230.142">home-admin.html</text></g><!--entity MLISTADMIN--><g class="entity" data-qualified-name="Zona Admin.MLISTADMIN" data-source-line="8" id="ent0005"><rect fill="#F1F1F1" height="46.2969" rx="2.5" ry="2.5" style="stroke:#181818;stroke-width:0.5;" width="195.1484" x="344.75" y="257.1469"/><rect fill="#F1F1F1" height="10" style="stroke:#181818;stroke-width:0.5;" width="15" x="519.8984" y="262.1469"/><rect fill="#F1F1F1" height="2" style="stroke:#181818;stroke-width:0.5;" width="4" x="517.8984" y="264.1469"/><rect fill="#F1F1F1" height="2" style="stroke:#181818;stroke-width:0.5;" width="4" x="517.8984" y="268.1469"/><text fill="#000000" font-family="sans-serif" font-size="14" lengthAdjust="spacing" textLength="155.1484" x="359.75" y="290.142">match-list-admin.html</text></g><!--entity MSTATSADMIN--><g class="entity" data-qualified-name="Zona Admin.MSTATSADMIN" data-source-line="9" id="ent0006"><rect fill="#F1F1F1" height="46.2969" rx="2.5" ry="2.5" style="stroke:#181818;stroke-width:0.5;" width="208.7314" x="657.83" y="277.1469"/><rect fill="#F1F1F1" height="10" style="stroke:#181818;stroke-width:0.5;" width="15" x="846.5614" y="282.1469"/><rect fill="#F1F1F1" height="2" style="stroke:#181818;stroke-width:0.5;" width="4" x="844.5614" y="284.1469"/><rect fill="#F1F1F1" height="2" style="stroke:#181818;stroke-width:0.5;" width="4" x="844.5614" y="288.1469"/><text fill="#000000" font-family="sans-serif" font-size="14" lengthAdjust="spacing" textLength="168.7314" x="672.83" y="310.142">match-stats-admin.html</text></g><!--entity APANEL--><g class="entity" data-qualified-name="Zona Admin.APANEL" data-source-line="10" id="ent0007"><rect fill="#F1F1F1" height="46.2969" rx="2.5" ry="2.5" style="stroke:#181818;stroke-width:0.5;" width="213.0176" x="335.81" y="136.1469"/><rect fill="#F1F1F1" height="10" style="stroke:#181818;stroke-width:0.5;" width="15" x="528.8276" y="141.1469"/><rect fill="#F1F1F1" height="2" style="stroke:#181818;stroke-width:0.5;" width="4" x="526.8276" y="143.1469"/><rect fill="#F1F1F1" height="2" style="stroke:#181818;stroke-width:0.5;" width="4" x="526.8276" y="147.1469"/><text fill="#000000" font-family="sans-serif" font-size="14" lengthAdjust="spacing" textLength="173.0176" x="350.81" y="169.142">admin-panel-admin.html</text></g><!--entity ACREATE--><g class="entity" data-qualified-name="Zona Admin.ACREATE" data-source-line="11" id="ent0008"><rect fill="#F1F1F1" height="46.2969" rx="2.5" ry="2.5" style="stroke:#181818;stroke-width:0.5;" width="306.7246" x="608.83" y="196.1469"/><rect fill="#F1F1F1" height="10" style="stroke:#181818;stroke-width:0.5;" width="15" x="895.5546" y="201.1469"/><rect fill="#F1F1F1" height="2" style="stroke:#181818;stroke-width:0.5;" width="4" x="893.5546" y="203.1469"/><rect fill="#F1F1F1" height="2" style="stroke:#181818;stroke-width:0.5;" width="4" x="893.5546" y="207.1469"/><text fill="#000000" font-family="sans-serif" font-size="14" lengthAdjust="spacing" textLength="266.7246" x="623.83" y="229.142">admin-tournament-create-admin.html</text></g><!--entity ADETAIL--><g class="entity" data-qualified-name="Zona Admin.ADETAIL" data-source-line="12" id="ent0009"><rect fill="#F1F1F1" height="46.2969" rx="2.5" ry="2.5" style="stroke:#181818;stroke-width:0.5;" width="301.3242" x="611.53" y="115.1469"/><rect fill="#F1F1F1" height="10" style="stroke:#181818;stroke-width:0.5;" width="15" x="892.8542" y="120.1469"/><rect fill="#F1F1F1" height="2" style="stroke:#181818;stroke-width:0.5;" width="4" x="890.8542" y="122.1469"/><rect fill="#F1F1F1" height="2" style="stroke:#181818;stroke-width:0.5;" width="4" x="890.8542" y="126.1469"/><text fill="#000000" font-family="sans-serif" font-size="14" lengthAdjust="spacing" textLength="261.3242" x="626.53" y="148.142">admin-tournament-detail-admin.html</text></g><!--entity AEDIT--><g class="entity" data-qualified-name="Zona Admin.AEDIT" data-source-line="13" id="ent0010"><rect fill="#F1F1F1" height="46.2969" rx="2.5" ry="2.5" style="stroke:#181818;stroke-width:0.5;" width="288.8555" x="975.55" y="115.1469"/><rect fill="#F1F1F1" height="10" style="stroke:#181818;stroke-width:0.5;" width="15" x="1244.4055" y="120.1469"/><rect fill="#F1F1F1" height="2" style="stroke:#181818;stroke-width:0.5;" width="4" x="1242.4055" y="122.1469"/><rect fill="#F1F1F1" height="2" style="stroke:#181818;stroke-width:0.5;" width="4" x="1242.4055" y="126.1469"/><text fill="#000000" font-family="sans-serif" font-size="14" lengthAdjust="spacing" textLength="248.8555" x="990.55" y="148.142">admin-tournament-edit-admin.html</text></g><!--entity BADMIN--><g class="entity" data-qualified-name="Zona Admin.BADMIN" data-source-line="14" id="ent0011"><rect fill="#F1F1F1" height="46.2969" rx="2.5" ry="2.5" style="stroke:#181818;stroke-width:0.5;" width="192.5986" x="1023.68" y="277.1469"/><rect fill="#F1F1F1" height="10" style="stroke:#181818;stroke-width:0.5;" width="15" x="1196.2786" y="282.1469"/><rect fill="#F1F1F1" height="2" style="stroke:#181818;stroke-width:0.5;" width="4" x="1194.2786" y="284.1469"/><rect fill="#F1F1F1" height="2" style="stroke:#181818;stroke-width:0.5;" width="4" x="1194.2786" y="288.1469"/><text fill="#000000" font-family="sans-serif" font-size="14" lengthAdjust="spacing" textLength="152.5986" x="1038.68" y="310.142">bot-detail-admin.html</text></g><!--entity UADMINBOT--><g class="entity" data-qualified-name="Zona Admin.UADMINBOT" data-source-line="15" id="ent0012"><rect fill="#F1F1F1" height="46.2969" rx="2.5" ry="2.5" style="stroke:#181818;stroke-width:0.5;" width="266.126" x="1324.41" y="277.1469"/><rect fill="#F1F1F1" height="10" style="stroke:#181818;stroke-width:0.5;" width="15" x="1570.536" y="282.1469"/><rect fill="#F1F1F1" height="2" style="stroke:#181818;stroke-width:0.5;" width="4" x="1568.536" y="284.1469"/><rect fill="#F1F1F1" height="2" style="stroke:#181818;stroke-width:0.5;" width="4" x="1568.536" y="288.1469"/><text fill="#000000" font-family="sans-serif" font-size="14" lengthAdjust="spacing" textLength="226.126" x="1339.41" y="310.142">user-detail-from-bot-admin.html</text></g><!--entity Admin--><g class="entity" data-qualified-name="Admin" data-source-line="4" id="ent0002"><ellipse cx="28.4321" cy="190.6469" fill="#F1F1F1" rx="8" ry="8" style="stroke:#181818;stroke-width:0.5;"/><path d="M28.4321,198.6469 L28.4321,225.6469 M15.4321,206.6469 L41.4321,206.6469 M28.4321,225.6469 L15.4321,240.6469 M28.4321,225.6469 L41.4321,240.6469" fill="none" style="stroke:#181818;stroke-width:0.5;"/><text fill="#000000" font-family="sans-serif" font-size="14" lengthAdjust="spacing" textLength="44.8643" x="6" y="255.142">Admin</text></g><!--link Admin to HADMIN--><g class="link" data-entity-1="ent0002" data-entity-2="ent0004" data-link-type="dependency" data-source-line="18" id="lnk13"><path d="M51.06,220.2969 C66.56,220.2969 82.48,220.2969 104.45,220.2969" fill="none" id="Admin-to-HADMIN" style="stroke:#181818;stroke-width:1;"/><polygon fill="#181818" points="110.45,220.2969,101.45,216.2969,105.45,220.2969,101.45,224.2969,110.45,220.2969" style="stroke:#181818;stroke-width:1;"/></g><!--link HADMIN to MLISTADMIN--><g class="link" data-entity-1="ent0004" data-entity-2="ent0005" data-link-type="dependency" data-source-line="19" id="lnk14"><path d="M276.24,240.1969 C298.14,245.5169 316.1893,249.9017 338.8093,255.3917" fill="none" id="HADMIN-to-MLISTADMIN" style="stroke:#181818;stroke-width:1;"/><polygon fill="#181818" points="344.64,256.8069,336.8373,250.797,339.7811,255.6276,334.9505,258.5713,344.64,256.8069" style="stroke:#181818;stroke-width:1;"/></g><!--link HADMIN to APANEL--><g class="link" data-entity-1="ent0004" data-entity-2="ent0007" data-link-type="dependency" data-source-line="20" id="lnk15"><path d="M276.24,200.0669 C298.56,194.5569 317.1149,189.9748 340.1249,184.2948" fill="none" id="HADMIN-to-APANEL" style="stroke:#181818;stroke-width:1;"/><polygon fill="#181818" points="345.95,182.8569,336.2537,181.1303,341.0957,184.0552,338.1709,188.8972,345.95,182.8569" style="stroke:#181818;stroke-width:1;"/></g><!--link MLISTADMIN to MSTATSADMIN--><g class="link" data-entity-1="ent0005" data-entity-2="ent0006" data-link-type="dependency" data-source-line="22" id="lnk16"><path d="M539.99,286.3769 C577.16,288.7169 613.7319,291.0199 651.5419,293.3999" fill="none" id="MLISTADMIN-to-MSTATSADMIN" style="stroke:#181818;stroke-width:1;"/><polygon fill="#181818" points="657.53,293.7769,648.7991,289.2194,652.5399,293.4628,648.2965,297.2036,657.53,293.7769" style="stroke:#181818;stroke-width:1;"/></g><!--link MSTATSADMIN to BADMIN--><g class="link" data-entity-1="ent0006" data-entity-2="ent0011" data-link-type="dependency" data-source-line="23" id="lnk17"><path d="M867.06,312.0069 C916.39,313.4769 968.9634,313.5895 1017.2134,311.9595" fill="none" id="MSTATSADMIN-to-BADMIN" style="stroke:#181818;stroke-width:1;"/><polygon fill="#181818" points="1023.21,311.7569,1014.0801,308.063,1018.2129,311.9257,1014.3502,316.0585,1023.21,311.7569" style="stroke:#181818;stroke-width:1;"/></g><!--link BADMIN to MSTATSADMIN--><g class="link" data-entity-1="ent0011" data-entity-2="ent0006" data-link-type="dependency" data-source-line="25" id="lnk19"><path d="M1023.21,288.1669 C974.96,286.4369 922.387,286.1584 873.057,287.7084" fill="none" id="BADMIN-to-MSTATSADMIN" style="stroke:#181818;stroke-width:1;"/><polygon fill="#181818" points="867.06,287.8969,876.1812,291.6123,872.0575,287.7398,875.9299,283.6162,867.06,287.8969" style="stroke:#181818;stroke-width:1;"/></g><!--link BADMIN to UADMINBOT--><g class="link" data-entity-1="ent0011" data-entity-2="ent0012" data-link-type="dependency" data-source-line="24" id="lnk18"><path d="M1216.67,311.9369 C1250.08,313.0269 1282.2006,313.4039 1318.0606,312.8839" fill="none" id="BADMIN-to-UADMINBOT" style="stroke:#181818;stroke-width:1;"/><polygon fill="#181818" points="1324.06,312.7969,1315.0029,308.9278,1319.0605,312.8694,1315.1189,316.9269,1324.06,312.7969" style="stroke:#181818;stroke-width:1;"/></g><!--link UADMINBOT to BADMIN--><g class="link" data-entity-1="ent0012" data-entity-2="ent0011" data-link-type="dependency" data-source-line="26" id="lnk20"><path d="M1324.06,287.0669 C1288.2,286.5069 1256.0764,286.6105 1222.6664,287.7605" fill="none" id="UADMINBOT-to-BADMIN" style="stroke:#181818;stroke-width:1;"/><polygon fill="#181818" points="1216.67,287.9669,1225.8023,291.6549,1221.667,287.7949,1225.5271,283.6596,1216.67,287.9669" style="stroke:#181818;stroke-width:1;"/></g><!--link APANEL to ACREATE--><g class="link" data-entity-1="ent0007" data-entity-2="ent0008" data-link-type="dependency" data-source-line="28" id="lnk21"><path d="M549.17,179.2769 C576.98,184.5269 601.344,189.1246 630.074,194.5446" fill="none" id="APANEL-to-ACREATE" style="stroke:#181818;stroke-width:1;"/><polygon fill="#181818" points="635.97,195.6569,627.8675,190.0578,631.0567,194.73,626.3845,197.9191,635.97,195.6569" style="stroke:#181818;stroke-width:1;"/></g><!--link APANEL to ADETAIL--><g class="link" data-entity-1="ent0007" data-entity-2="ent0009" data-link-type="dependency" data-source-line="29" id="lnk22"><path d="M549.17,152.3069 C569.03,150.9869 584.163,149.992 605.073,148.612" fill="none" id="APANEL-to-ADETAIL" style="stroke:#181818;stroke-width:1;"/><polygon fill="#181818" points="611.06,148.2169,601.8161,144.8182,606.0709,148.5461,602.343,152.8009,611.06,148.2169" style="stroke:#181818;stroke-width:1;"/></g><!--link APANEL to AEDIT--><g class="link" data-entity-1="ent0007" data-entity-2="ent0010" data-link-type="dependency" data-source-line="30" id="lnk23"><path d="M491.98,135.7869 C524.27,121.5169 568.07,104.6769 608.83,97.2969 C742.97,72.9969 779.91,83.7669 915.55,97.2969 C950.6,100.7969 982.6696,106.3566 1016.1796,113.4366" fill="none" id="APANEL-to-AEDIT" style="stroke:#181818;stroke-width:1;"/><polygon fill="#181818" points="1022.05,114.6769,1014.0713,108.9028,1017.158,113.6433,1012.4175,116.73,1022.05,114.6769" style="stroke:#181818;stroke-width:1;"/></g><!--link ADETAIL to AEDIT--><g class="link" data-entity-1="ent0009" data-entity-2="ent0010" data-link-type="dependency" data-source-line="31" id="lnk24"><path d="M913.3,150.9069 C933.8,151.1169 948.8005,151.1605 969.1805,150.9105" fill="none" id="ADETAIL-to-AEDIT" style="stroke:#181818;stroke-width:1;"/><polygon fill="#181818" points="975.18,150.8369,966.1316,146.9476,970.1804,150.8982,966.2297,154.947,975.18,150.8369" style="stroke:#181818;stroke-width:1;"/></g><!--link AEDIT to ADETAIL--><g class="link" data-entity-1="ent0010" data-entity-2="ent0009" data-link-type="dependency" data-source-line="33" id="lnk26"><path d="M975.18,125.0169 C954.8,124.7469 939.7997,124.6625 919.2997,124.8825" fill="none" id="AEDIT-to-ADETAIL" style="stroke:#181818;stroke-width:1;"/><polygon fill="#181818" points="913.3,124.9469,922.3424,128.8501,918.2997,124.8932,922.2566,120.8505,913.3,124.9469" style="stroke:#181818;stroke-width:1;"/></g><!--link ADETAIL to BADMIN--><g class="link" data-entity-1="ent0009" data-entity-2="ent0011" data-link-type="dependency" data-source-line="32" id="lnk25"><path d="M868.99,161.8969 C884.85,166.6269 900.81,172.0869 915.55,178.2969 C979.51,205.2169 1042.4784,246.125 1081.4284,273.285" fill="none" id="ADETAIL-to-BADMIN" style="stroke:#181818;stroke-width:1;"/><polygon fill="#181818" points="1086.35,276.7169,1081.2555,268.288,1082.2487,273.857,1076.6797,274.8502,1086.35,276.7169" style="stroke:#181818;stroke-width:1;"/></g><?plantuml-src TP7DJiGW58NtF0MPFJw22RLDR39JZOCRZOihPLfY2nDwnutntHNAjAJjh23dVFU70shi5ELrhmrbj89lrO3Krf1EdP2YfKutBT9QEoNHwmGaMaTteMH7OHYB2Jc3_896qTsRDK2Z_KCeVMzjhnXuuQx5lllmHOyyFvILTtj0sR9E3xXa3lloA1RSW8332lp7n74YWylEO5It9Faphuhz3A6zE0EzCiYaKu2hFVd3Iy55iLbHAmIz7f4NWfVRCrIjLw_aHLuAJt_QMospwMcNGRahT7AsPxveGRy6EdiIv9UG-BFi_fhuU0GboJTHOqHaTaSuoJYv1o_kbytAl4EstM82qWPad3sk4ODFfPXiAeNmed53YSs3aVRv0m00?></g></svg>