<?plantuml 1.2026.2beta3?>
<svg xmlns="http://www.w3.org/2000/svg" xmlns:xlink="http://www.w3.org/1999/xlink" contentStyleType="text/css" data-diagram-type="DESCRIPTION" height="383px" preserveAspectRatio="none" style="width:1430px;height:383px;background:#FFFFFF;" version="1.1" viewBox="0 0 1430 383" width="1430px" zoomAndPan="magnify"><title>Publico - Navegacion</title><defs/><g><g class="title" data-source-line="1"><text fill="#000000" font-family="sans-serif" font-size="14" font-weight="bold" lengthAdjust="spacing" textLength="165.2588" x="625.3706" y="22.9951">Publico - Navegacion</text></g><!--cluster Publico--><g class="cluster" data-qualified-name="Publico" data-source-line="6" id="ent0003"><path d="M117.48,43.2969 L176.2437,43.2969 A3.75,3.75 0 0 1 178.7437,45.7969 L185.7437,65.5938 L1420.5,65.5938 A2.5,2.5 0 0 1 1423,68.0938 L1423,373.7969 A2.5,2.5 0 0 1 1420.5,376.2969 L117.48,376.2969 A2.5,2.5 0 0 1 114.98,373.7969 L114.98,45.7969 A2.5,2.5 0 0 1 117.48,43.2969" fill="none" style="stroke:#000000;stroke-width:1.5;"/><line style="stroke:#000000;stroke-width:1.5;" x1="114.98" x2="185.7437" y1="65.5938" y2="65.5938"/><text fill="#000000" font-family="sans-serif" font-size="14" font-weight="bold" lengthAdjust="spacing" textLength="57.7637" x="118.98" y="58.292">Publico</text></g><!--entity IDX--><g class="entity" data-qualified-name="Publico.IDX" data-source-line="7" id="ent0004"><rect fill="#F1F1F1" height="46.2969" rx="2.5" ry="2.5" style="stroke:#181818;stroke-width:0.5;" width="114.8877" x="149.18" y="240.1469"/><rect fill="#F1F1F1" height="10" style="stroke:#181818;stroke-width:0.5;" width="15" x="244.0677" y="245.1469"/><rect fill="#F1F1F1" height="2" style="stroke:#181818;stroke-width:0.5;" width="4" x="242.0677" y="247.1469"/><rect fill="#F1F1F1" height="2" style="stroke:#181818;stroke-width:0.5;" width="4" x="242.0677" y="251.1469"/><text fill="#000000" font-family="sans-serif" font-size="14" lengthAdjust="spacing" textLength="74.8877" x="164.18" y="273.142">index.html</text></g><!--entity LOGIN--><g class="entity" data-qualified-name="Publico.LOGIN" data-source-line="8" id="ent0005"><rect fill="#F1F1F1" height="46.2969" rx="2.5" ry="2.5" style="stroke:#181818;stroke-width:0.5;" width="110.4443" x="967.89" y="219.1469"/><rect fill="#F1F1F1" height="10" style="stroke:#181818;stroke-width:0.5;" width="15" x="1058.3343" y="224.1469"/><rect fill="#F1F1F1" height="2" style="stroke:#181818;stroke-width:0.5;" width="4" x="1056.3343" y="226.1469"/><rect fill="#F1F1F1" height="2" style="stroke:#181818;stroke-width:0.5;" width="4" x="1056.3343" y="230.1469"/><text fill="#000000" font-family="sans-serif" font-size="14" lengthAdjust="spacing" textLength="70.4443" x="982.89" y="252.142">login.html</text></g><!--entity SIGNUP--><g class="entity" data-qualified-name="Publico.SIGNUP" data-source-line="9" id="ent0006"><rect fill="#F1F1F1" height="46.2969" rx="2.5" ry="2.5" style="stroke:#181818;stroke-width:0.5;" width="128.0947" x="371.56" y="233.1469"/><rect fill="#F1F1F1" height="10" style="stroke:#181818;stroke-width:0.5;" width="15" x="479.6547" y="238.1469"/><rect fill="#F1F1F1" height="2" style="stroke:#181818;stroke-width:0.5;" width="4" x="477.6547" y="240.1469"/><rect fill="#F1F1F1" height="2" style="stroke:#181818;stroke-width:0.5;" width="4" x="477.6547" y="244.1469"/><text fill="#000000" font-family="sans-serif" font-size="14" lengthAdjust="spacing" textLength="88.0947" x="386.56" y="266.142">sign-up.html</text></g><!--entity MLIST--><g class="entity" data-qualified-name="Publico.MLIST" data-source-line="10" id="ent0007"><rect fill="#F1F1F1" height="46.2969" rx="2.5" ry="2.5" style="stroke:#181818;stroke-width:0.5;" width="146.2305" x="362.49" y="314.1469"/><rect fill="#F1F1F1" height="10" style="stroke:#181818;stroke-width:0.5;" width="15" x="488.7205" y="319.1469"/><rect fill="#F1F1F1" height="2" style="stroke:#181818;stroke-width:0.5;" width="4" x="486.7205" y="321.1469"/><rect fill="#F1F1F1" height="2" style="stroke:#181818;stroke-width:0.5;" width="4" x="486.7205" y="325.1469"/><text fill="#000000" font-family="sans-serif" font-size="14" lengthAdjust="spacing" textLength="106.2305" x="377.49" y="347.142">match-list.html</text></g><!--entity MSTATS--><g class="entity" data-qualified-name="Publico.MSTATS" data-source-line="11" id="ent0008"><rect fill="#F1F1F1" height="46.2969" rx="2.5" ry="2.5" style="stroke:#181818;stroke-width:0.5;" width="159.8135" x="630.79" y="314.1469"/><rect fill="#F1F1F1" height="10" style="stroke:#181818;stroke-width:0.5;" width="15" x="770.6035" y="319.1469"/><rect fill="#F1F1F1" height="2" style="stroke:#181818;stroke-width:0.5;" width="4" x="768.6035" y="321.1469"/><rect fill="#F1F1F1" height="2" style="stroke:#181818;stroke-width:0.5;" width="4" x="768.6035" y="325.1469"/><text fill="#000000" font-family="sans-serif" font-size="14" lengthAdjust="spacing" textLength="119.8135" x="645.79" y="347.142">match-stats.html</text></g><!--entity TLIST--><g class="entity" data-qualified-name="Publico.TLIST" data-source-line="12" id="ent0009"><rect fill="#F1F1F1" height="46.2969" rx="2.5" ry="2.5" style="stroke:#181818;stroke-width:0.5;" width="184.7031" x="343.26" y="115.1469"/><rect fill="#F1F1F1" height="10" style="stroke:#181818;stroke-width:0.5;" width="15" x="507.9631" y="120.1469"/><rect fill="#F1F1F1" height="2" style="stroke:#181818;stroke-width:0.5;" width="4" x="505.9631" y="122.1469"/><rect fill="#F1F1F1" height="2" style="stroke:#181818;stroke-width:0.5;" width="4" x="505.9631" y="126.1469"/><text fill="#000000" font-family="sans-serif" font-size="14" lengthAdjust="spacing" textLength="144.7031" x="358.26" y="148.142">tournament-list.html</text></g><!--entity TOPEN--><g class="entity" data-qualified-name="Publico.TOPEN" data-source-line="13" id="ent0010"><rect fill="#F1F1F1" height="46.2969" rx="2.5" ry="2.5" style="stroke:#181818;stroke-width:0.5;" width="243.4785" x="588.96" y="196.1469"/><rect fill="#F1F1F1" height="10" style="stroke:#181818;stroke-width:0.5;" width="15" x="812.4385" y="201.1469"/><rect fill="#F1F1F1" height="2" style="stroke:#181818;stroke-width:0.5;" width="4" x="810.4385" y="203.1469"/><rect fill="#F1F1F1" height="2" style="stroke:#181818;stroke-width:0.5;" width="4" x="810.4385" y="207.1469"/><text fill="#000000" font-family="sans-serif" font-size="14" lengthAdjust="spacing" textLength="203.4785" x="603.96" y="229.142">tournament-detail-open.html</text></g><!--entity TDETAIL--><g class="entity" data-qualified-name="Publico.TDETAIL" data-source-line="14" id="ent0011"><rect fill="#F1F1F1" height="46.2969" rx="2.5" ry="2.5" style="stroke:#181818;stroke-width:0.5;" width="203.4883" x="608.96" y="115.1469"/><rect fill="#F1F1F1" height="10" style="stroke:#181818;stroke-width:0.5;" width="15" x="792.4483" y="120.1469"/><rect fill="#F1F1F1" height="2" style="stroke:#181818;stroke-width:0.5;" width="4" x="790.4483" y="122.1469"/><rect fill="#F1F1F1" height="2" style="stroke:#181818;stroke-width:0.5;" width="4" x="790.4483" y="126.1469"/><text fill="#000000" font-family="sans-serif" font-size="14" lengthAdjust="spacing" textLength="163.4883" x="623.96" y="148.142">tournament-detail.html</text></g><!--entity TRES--><g class="entity" data-qualified-name="Publico.TRES" data-source-line="15" id="ent0012"><rect fill="#F1F1F1" height="46.2969" rx="2.5" ry="2.5" style="stroke:#181818;stroke-width:0.5;" width="211.3496" x="917.44" y="96.1469"/><rect fill="#F1F1F1" height="10" style="stroke:#181818;stroke-width:0.5;" width="15" x="1108.7896" y="101.1469"/><rect fill="#F1F1F1" height="2" style="stroke:#181818;stroke-width:0.5;" width="4" x="1106.7896" y="103.1469"/><rect fill="#F1F1F1" height="2" style="stroke:#181818;stroke-width:0.5;" width="4" x="1106.7896" y="107.1469"/><text fill="#000000" font-family="sans-serif" font-size="14" lengthAdjust="spacing" textLength="171.3496" x="932.44" y="129.142">tournament-results.html</text></g><!--entity BDETAIL--><g class="entity" data-qualified-name="Publico.BDETAIL" data-source-line="16" id="ent0013"><rect fill="#F1F1F1" height="46.2969" rx="2.5" ry="2.5" style="stroke:#181818;stroke-width:0.5;" width="143.6807" x="951.27" y="314.1469"/><rect fill="#F1F1F1" height="10" style="stroke:#181818;stroke-width:0.5;" width="15" x="1074.9507" y="319.1469"/><rect fill="#F1F1F1" height="2" style="stroke:#181818;stroke-width:0.5;" width="4" x="1072.9507" y="321.1469"/><rect fill="#F1F1F1" height="2" style="stroke:#181818;stroke-width:0.5;" width="4" x="1072.9507" y="325.1469"/><text fill="#000000" font-family="sans-serif" font-size="14" lengthAdjust="spacing" textLength="103.6807" x="966.27" y="347.142">bot-detail.html</text></g><!--entity UDETAIL--><g class="entity" data-qualified-name="Publico.UDETAIL" data-source-line="17" id="ent0014"><rect fill="#F1F1F1" height="46.2969" rx="2.5" ry="2.5" style="stroke:#181818;stroke-width:0.5;" width="151.2754" x="130.98" y="159.1469"/><rect fill="#F1F1F1" height="10" style="stroke:#181818;stroke-width:0.5;" width="15" x="262.2554" y="164.1469"/><rect fill="#F1F1F1" height="2" style="stroke:#181818;stroke-width:0.5;" width="4" x="260.2554" y="166.1469"/><rect fill="#F1F1F1" height="2" style="stroke:#181818;stroke-width:0.5;" width="4" x="260.2554" y="170.1469"/><text fill="#000000" font-family="sans-serif" font-size="14" lengthAdjust="spacing" textLength="111.2754" x="145.98" y="192.142">user-detail.html</text></g><!--entity UFROMBOT--><g class="entity" data-qualified-name="Publico.UFROMBOT" data-source-line="18" id="ent0015"><rect fill="#F1F1F1" height="46.2969" rx="2.5" ry="2.5" style="stroke:#181818;stroke-width:0.5;" width="217.208" x="1189.79" y="314.1469"/><rect fill="#F1F1F1" height="10" style="stroke:#181818;stroke-width:0.5;" width="15" x="1386.998" y="319.1469"/><rect fill="#F1F1F1" height="2" style="stroke:#181818;stroke-width:0.5;" width="4" x="1384.998" y="321.1469"/><rect fill="#F1F1F1" height="2" style="stroke:#181818;stroke-width:0.5;" width="4" x="1384.998" y="325.1469"/><text fill="#000000" font-family="sans-serif" font-size="14" lengthAdjust="spacing" textLength="177.208" x="1204.79" y="347.142">user-detail-from-bot.html</text></g><!--entity ERR--><g class="entity" data-qualified-name="Publico.ERR" data-source-line="19" id="ent0016"><rect fill="#F1F1F1" height="46.2969" rx="2.5" ry="2.5" style="stroke:#181818;stroke-width:0.5;" width="110.7861" x="151.23" y="78.1469"/><rect fill="#F1F1F1" height="10" style="stroke:#181818;stroke-width:0.5;" width="15" x="242.0161" y="83.1469"/><rect fill="#F1F1F1" height="2" style="stroke:#181818;stroke-width:0.5;" width="4" x="240.0161" y="85.1469"/><rect fill="#F1F1F1" height="2" style="stroke:#181818;stroke-width:0.5;" width="4" x="240.0161" y="89.1469"/><text fill="#000000" font-family="sans-serif" font-size="14" lengthAdjust="spacing" textLength="70.7861" x="166.23" y="111.142">error.html</text></g><!--entity Anon--><g class="entity" data-qualified-name="Anon" data-source-line="4" id="ent0002"><ellipse cx="36.9907" cy="233.6469" fill="#F1F1F1" rx="8" ry="8" style="stroke:#181818;stroke-width:0.5;"/><path d="M36.9907,241.6469 L36.9907,268.6469 M23.9907,249.6469 L49.9907,249.6469 M36.9907,268.6469 L23.9907,283.6469 M36.9907,268.6469 L49.9907,283.6469" fill="none" style="stroke:#181818;stroke-width:0.5;"/><text fill="#000000" font-family="sans-serif" font-size="14" lengthAdjust="spacing" textLength="61.9814" x="6" y="298.142">Anonimo</text></g><!--link Anon to IDX--><g class="link" data-entity-1="ent0002" data-entity-2="ent0004" data-link-type="dependency" data-source-line="22" id="lnk17"><path d="M68.35,263.2969 C90.71,263.2969 115.78,263.2969 142.71,263.2969" fill="none" id="Anon-to-IDX" style="stroke:#181818;stroke-width:1;"/><polygon fill="#181818" points="148.71,263.2969,139.71,259.2969,143.71,263.2969,139.71,267.2969,148.71,263.2969" style="stroke:#181818;stroke-width:1;"/></g><!--link IDX to LOGIN--><g class="link" data-entity-1="ent0004" data-entity-2="ent0005" data-link-type="dependency" data-source-line="23" id="lnk18"><path d="M260.94,239.6969 C285.49,230.0769 315.31,220.0969 343.26,215.2969 C424.16,201.4069 449.98,189.6469 527.96,215.2969 C559.96,225.8269 556.96,249.7669 588.96,260.2969 C691.75,294.1069 724.35,265.4169 832.44,260.2969 C878.03,258.1369 923.6268,253.7403 961.4668,249.5303" fill="none" id="IDX-to-LOGIN" style="stroke:#181818;stroke-width:1;"/><polygon fill="#181818" points="967.43,248.8669,958.0429,245.8866,962.4607,249.4198,958.9275,253.8375,967.43,248.8669" style="stroke:#181818;stroke-width:1;"/></g><!--link IDX to SIGNUP--><g class="link" data-entity-1="ent0004" data-entity-2="ent0006" data-link-type="dependency" data-source-line="24" id="lnk19"><path d="M264.31,261.5469 C296.88,260.5469 331.8528,259.4607 365.4528,258.4307" fill="none" id="IDX-to-SIGNUP" style="stroke:#181818;stroke-width:1;"/><polygon fill="#181818" points="371.45,258.2469,362.3317,254.5245,366.4523,258.4001,362.5768,262.5208,371.45,258.2469" style="stroke:#181818;stroke-width:1;"/></g><!--link IDX to MLIST--><g class="link" data-entity-1="ent0004" data-entity-2="ent0007" data-link-type="dependency" data-source-line="25" id="lnk20"><path d="M264.31,281.7769 C293.99,291.4569 324.9454,301.5474 356.6354,311.8774" fill="none" id="IDX-to-MLIST" style="stroke:#181818;stroke-width:1;"/><polygon fill="#181818" points="362.34,313.7369,355.0228,307.1445,357.5862,312.1873,352.5435,314.7506,362.34,313.7369" style="stroke:#181818;stroke-width:1;"/></g><!--link IDX to TLIST--><g class="link" data-entity-1="ent0004" data-entity-2="ent0009" data-link-type="dependency" data-source-line="26" id="lnk21"><path d="M257.83,239.7169 C266.33,234.8069 274.81,229.2869 282.26,223.2969 C298.23,210.4569 295.64,200.2869 312.26,188.2969 C326.86,177.7569 338.4953,171.3173 355.2553,164.2173" fill="none" id="IDX-to-TLIST" style="stroke:#181818;stroke-width:1;"/><polygon fill="#181818" points="360.78,161.8769,350.9327,161.7044,356.1761,163.8272,354.0532,169.0706,360.78,161.8769" style="stroke:#181818;stroke-width:1;"/></g><!--link MLIST to MSTATS--><g class="link" data-entity-1="ent0007" data-entity-2="ent0008" data-link-type="dependency" data-source-line="28" id="lnk22"><path d="M509.07,337.2969 C546.52,337.2969 586.29,337.2969 624.65,337.2969" fill="none" id="MLIST-to-MSTATS" style="stroke:#181818;stroke-width:1;"/><polygon fill="#181818" points="630.65,337.2969,621.65,333.2969,625.65,337.2969,621.65,341.2969,630.65,337.2969" style="stroke:#181818;stroke-width:1;"/></g><!--link MSTATS to BDETAIL--><g class="link" data-entity-1="ent0008" data-entity-2="ent0013" data-link-type="dependency" data-source-line="29" id="lnk23"><path d="M790.83,337.2969 C840.14,337.2969 897.06,337.2969 944.82,337.2969" fill="none" id="MSTATS-to-BDETAIL" style="stroke:#181818;stroke-width:1;"/><polygon fill="#181818" points="950.82,337.2969,941.82,333.2969,945.82,337.2969,941.82,341.2969,950.82,337.2969" style="stroke:#181818;stroke-width:1;"/></g><!--link BDETAIL to UFROMBOT--><g class="link" data-entity-1="ent0013" data-entity-2="ent0015" data-link-type="dependency" data-source-line="30" id="lnk24"><path d="M1095.2,348.6369 C1123.9,349.9769 1151.6709,350.4631 1183.2909,349.9031" fill="none" id="BDETAIL-to-UFROMBOT" style="stroke:#181818;stroke-width:1;"/><polygon fill="#181818" points="1189.29,349.7969,1180.2206,345.9569,1184.2908,349.8854,1180.3622,353.9556,1189.29,349.7969" style="stroke:#181818;stroke-width:1;"/></g><!--link UFROMBOT to BDETAIL--><g class="link" data-entity-1="ent0015" data-entity-2="ent0013" data-link-type="dependency" data-source-line="31" id="lnk25"><path d="M1189.29,324.0669 C1157.67,323.4669 1129.8928,323.5825 1101.1928,324.9925" fill="none" id="UFROMBOT-to-BDETAIL" style="stroke:#181818;stroke-width:1;"/><polygon fill="#181818" points="1095.2,325.2869,1104.3854,328.8404,1100.194,325.0415,1103.9929,320.8501,1095.2,325.2869" style="stroke:#181818;stroke-width:1;"/></g><!--link TLIST to TOPEN--><g class="link" data-entity-1="ent0009" data-entity-2="ent0010" data-link-type="dependency" data-source-line="33" id="lnk26"><path d="M516.33,161.9469 C552.23,172.5869 588.7476,183.4212 624.5976,194.0512" fill="none" id="TLIST-to-TOPEN" style="stroke:#181818;stroke-width:1;"/><polygon fill="#181818" points="630.35,195.7569,622.8584,189.3634,625.5563,194.3355,620.5842,197.0333,630.35,195.7569" style="stroke:#181818;stroke-width:1;"/></g><!--link TLIST to TDETAIL--><g class="link" data-entity-1="ent0009" data-entity-2="ent0011" data-link-type="dependency" data-source-line="34" id="lnk27"><path d="M528.3,138.2969 C554.18,138.2969 576.48,138.2969 602.86,138.2969" fill="none" id="TLIST-to-TDETAIL" style="stroke:#181818;stroke-width:1;"/><polygon fill="#181818" points="608.86,138.2969,599.86,134.2969,603.86,138.2969,599.86,142.2969,608.86,138.2969" style="stroke:#181818;stroke-width:1;"/></g><!--link TLIST to TRES--><g class="link" data-entity-1="ent0009" data-entity-2="ent0012" data-link-type="dependency" data-source-line="35" id="lnk28"><path d="M508.66,114.7469 C533.78,107.6469 562.35,100.8169 588.96,97.2969 C700.37,82.5669 823.145,91.7532 911.135,102.5932" fill="none" id="TLIST-to-TRES" style="stroke:#181818;stroke-width:1;"/><polygon fill="#181818" points="917.09,103.3269,908.6466,98.2564,912.1275,102.7155,907.6684,106.1964,917.09,103.3269" style="stroke:#181818;stroke-width:1;"/></g><!--link TOPEN to LOGIN--><g class="link" data-entity-1="ent0010" data-entity-2="ent0005" data-link-type="dependency" data-source-line="36" id="lnk29"><path d="M832.6,228.2569 C879.25,231.7069 924.2565,235.0429 961.5865,237.8129" fill="none" id="TOPEN-to-LOGIN" style="stroke:#181818;stroke-width:1;"/><polygon fill="#181818" points="967.57,238.2569,958.8907,233.6018,962.5837,237.8869,958.2987,241.5799,967.57,238.2569" style="stroke:#181818;stroke-width:1;"/><text fill="#000000" font-family="sans-serif" font-size="13" lengthAdjust="spacing" textLength="23.6387" x="863.44" y="227.3638">Join</text></g><!--link TDETAIL to TRES--><g class="link" data-entity-1="ent0011" data-entity-2="ent0012" data-link-type="dependency" data-source-line="37" id="lnk30"><path d="M812.91,132.0969 C846.26,130.0569 877.4212,128.1537 911.0512,126.0937" fill="none" id="TDETAIL-to-TRES" style="stroke:#181818;stroke-width:1;"/><polygon fill="#181818" points="917.04,125.7269,907.8123,122.2846,912.0494,126.0326,908.3014,130.2697,917.04,125.7269" style="stroke:#181818;stroke-width:1;"/></g><?plantuml-src RL51QiCm4Bph5OllwWDwA2J43Iw97Mm52gK7nL4S4LaAqheKIl_UIBPZDSb1Q7Tc6ArcKQ8IiEbsIjO6AEJyIpIybaOJ9Gu8QC3AveYmbrRKw772QpGMafasMhOc0Ux0ruISUNtYZO1ay4lWXm1yIBqNtqz7RDMdrsQBTuygqqWzeQjYcUKUTxBHj3jFJ9Kjy-t6Kot7-aYLT3YnwrLMiObqoD55RCLchF8qcivgtWgDDmPiD8WKUu5SAchE8fgG5PiqVoYCD8kKpRBLZSeArwbuB5QcOQYTkRUOJnQT4_QEtpxawS6Qbbxy8k5hMQpdHVYRiDROYKhBalmIuhS6bBw4bLnEgFj5ZDqG_jZsQOzT7nq9O4_tSVTNGCRV37V0heEDnJybOLUxFl6e7oGHueCCicbsU8Ot8pLXqPDUzmS0?></g></svg>