<?plantuml 1.2026.2beta3?>
<svg xmlns="http://www.w3.org/2000/svg" xmlns:xlink="http://www.w3.org/1999/xlink" contentStyleType="text/css" data-diagram-type="DESCRIPTION" height="545px" preserveAspectRatio="none" style="width:1558px;height:545px;background:#FFFFFF;" version="1.1" viewBox="0 0 1558 545" width="1558px" zoomAndPan="magnify"><title>Usuario Auth - Navegacion</title><defs/><g><g class="title" data-source-line="1"><text fill="#000000" font-family="sans-serif" font-size="14" font-weight="bold" lengthAdjust="spacing" textLength="210.2666" x="667.1517" y="22.9951">Usuario Auth - Navegacion</text></g><!--cluster Zona Auth--><g class="cluster" data-qualified-name="Zona Auth" data-source-line="6" id="ent0003"><path d="M142.97,43.2969 L225.4886,43.2969 A3.75,3.75 0 0 1 227.9886,45.7969 L234.9886,65.5938 L1549.07,65.5938 A2.5,2.5 0 0 1 1551.57,68.0938 L1551.57,535.7969 A2.5,2.5 0 0 1 1549.07,538.2969 L142.97,538.2969 A2.5,2.5 0 0 1 140.47,535.7969 L140.47,45.7969 A2.5,2.5 0 0 1 142.97,43.2969" fill="none" style="stroke:#000000;stroke-width:1.5;"/><line style="stroke:#000000;stroke-width:1.5;" x1="140.47" x2="234.9886" y1="65.5938" y2="65.5938"/><text fill="#000000" font-family="sans-serif" font-size="14" font-weight="bold" lengthAdjust="spacing" textLength="81.5186" x="144.47" y="58.292">Zona Auth</text></g><!--entity HAUTH--><g class="entity" data-qualified-name="Zona Auth.HAUTH" data-source-line="7" id="ent0004"><rect fill="#F1F1F1" height="46.2969" rx="2.5" ry="2.5" style="stroke:#181818;stroke-width:0.5;" width="152.8955" x="156.47" y="274.1469"/><rect fill="#F1F1F1" height="10" style="stroke:#181818;stroke-width:0.5;" width="15" x="289.3655" y="279.1469"/><rect fill="#F1F1F1" height="2" style="stroke:#181818;stroke-width:0.5;" width="4" x="287.3655" y="281.1469"/><rect fill="#F1F1F1" height="2" style="stroke:#181818;stroke-width:0.5;" width="4" x="287.3655" y="285.1469"/><text fill="#000000" font-family="sans-serif" font-size="14" lengthAdjust="spacing" textLength="112.8955" x="171.47" y="307.142">home-auth.html</text></g><!--entity MLISTA--><g class="entity" data-qualified-name="Zona Auth.MLISTA" data-source-line="8" id="ent0005"><rect fill="#F1F1F1" height="46.2969" rx="2.5" ry="2.5" style="stroke:#181818;stroke-width:0.5;" width="183.0967" x="392.93" y="476.1469"/><rect fill="#F1F1F1" height="10" style="stroke:#181818;stroke-width:0.5;" width="15" x="556.0267" y="481.1469"/><rect fill="#F1F1F1" height="2" style="stroke:#181818;stroke-width:0.5;" width="4" x="554.0267" y="483.1469"/><rect fill="#F1F1F1" height="2" style="stroke:#181818;stroke-width:0.5;" width="4" x="554.0267" y="487.1469"/><text fill="#000000" font-family="sans-serif" font-size="14" lengthAdjust="spacing" textLength="143.0967" x="407.93" y="509.142">match-list-auth.html</text></g><!--entity MSTATSA--><g class="entity" data-qualified-name="Zona Auth.MSTATSA" data-source-line="9" id="ent0006"><rect fill="#F1F1F1" height="46.2969" rx="2.5" ry="2.5" style="stroke:#181818;stroke-width:0.5;" width="196.6797" x="672.03" y="476.1469"/><rect fill="#F1F1F1" height="10" style="stroke:#181818;stroke-width:0.5;" width="15" x="848.7097" y="481.1469"/><rect fill="#F1F1F1" height="2" style="stroke:#181818;stroke-width:0.5;" width="4" x="846.7097" y="483.1469"/><rect fill="#F1F1F1" height="2" style="stroke:#181818;stroke-width:0.5;" width="4" x="846.7097" y="487.1469"/><text fill="#000000" font-family="sans-serif" font-size="14" lengthAdjust="spacing" textLength="156.6797" x="687.03" y="509.142">match-stats-auth.html</text></g><!--entity RECENT--><g class="entity" data-qualified-name="Zona Auth.RECENT" data-source-line="10" id="ent0007"><rect fill="#F1F1F1" height="46.2969" rx="2.5" ry="2.5" style="stroke:#181818;stroke-width:0.5;" width="186.6172" x="391.17" y="395.1469"/><rect fill="#F1F1F1" height="10" style="stroke:#181818;stroke-width:0.5;" width="15" x="557.7872" y="400.1469"/><rect fill="#F1F1F1" height="2" style="stroke:#181818;stroke-width:0.5;" width="4" x="555.7872" y="402.1469"/><rect fill="#F1F1F1" height="2" style="stroke:#181818;stroke-width:0.5;" width="4" x="555.7872" y="406.1469"/><text fill="#000000" font-family="sans-serif" font-size="14" lengthAdjust="spacing" textLength="146.6172" x="406.17" y="428.142">recent-matches.html</text></g><!--entity MSEARCH--><g class="entity" data-qualified-name="Zona Auth.MSEARCH" data-source-line="11" id="ent0008"><rect fill="#F1F1F1" height="46.2969" rx="2.5" ry="2.5" style="stroke:#181818;stroke-width:0.5;" width="172.4805" x="398.23" y="314.1469"/><rect fill="#F1F1F1" height="10" style="stroke:#181818;stroke-width:0.5;" width="15" x="550.7105" y="319.1469"/><rect fill="#F1F1F1" height="2" style="stroke:#181818;stroke-width:0.5;" width="4" x="548.7105" y="321.1469"/><rect fill="#F1F1F1" height="2" style="stroke:#181818;stroke-width:0.5;" width="4" x="548.7105" y="325.1469"/><text fill="#000000" font-family="sans-serif" font-size="14" lengthAdjust="spacing" textLength="132.4805" x="413.23" y="347.142">match-search.html</text></g><!--entity MBATTLE--><g class="entity" data-qualified-name="Zona Auth.MBATTLE" data-source-line="12" id="ent0009"><rect fill="#F1F1F1" height="46.2969" rx="2.5" ry="2.5" style="stroke:#181818;stroke-width:0.5;" width="166.6152" x="687.06" y="395.1469"/><rect fill="#F1F1F1" height="10" style="stroke:#181818;stroke-width:0.5;" width="15" x="833.6752" y="400.1469"/><rect fill="#F1F1F1" height="2" style="stroke:#181818;stroke-width:0.5;" width="4" x="831.6752" y="402.1469"/><rect fill="#F1F1F1" height="2" style="stroke:#181818;stroke-width:0.5;" width="4" x="831.6752" y="406.1469"/><text fill="#000000" font-family="sans-serif" font-size="14" lengthAdjust="spacing" textLength="126.6152" x="702.06" y="428.142">match-battle.html</text></g><!--entity MYBOTS--><g class="entity" data-qualified-name="Zona Auth.MYBOTS" data-source-line="13" id="ent0010"><rect fill="#F1F1F1" height="46.2969" rx="2.5" ry="2.5" style="stroke:#181818;stroke-width:0.5;" width="133.5498" x="417.7" y="233.1469"/><rect fill="#F1F1F1" height="10" style="stroke:#181818;stroke-width:0.5;" width="15" x="531.2498" y="238.1469"/><rect fill="#F1F1F1" height="2" style="stroke:#181818;stroke-width:0.5;" width="4" x="529.2498" y="240.1469"/><rect fill="#F1F1F1" height="2" style="stroke:#181818;stroke-width:0.5;" width="4" x="529.2498" y="244.1469"/><text fill="#000000" font-family="sans-serif" font-size="14" lengthAdjust="spacing" textLength="93.5498" x="432.7" y="266.142">my-bots.html</text></g><!--entity BCREATE--><g class="entity" data-qualified-name="Zona Auth.BCREATE" data-source-line="14" id="ent0011"><rect fill="#F1F1F1" height="46.2969" rx="2.5" ry="2.5" style="stroke:#181818;stroke-width:0.5;" width="149.0811" x="695.83" y="277.1469"/><rect fill="#F1F1F1" height="10" style="stroke:#181818;stroke-width:0.5;" width="15" x="824.9111" y="282.1469"/><rect fill="#F1F1F1" height="2" style="stroke:#181818;stroke-width:0.5;" width="4" x="822.9111" y="284.1469"/><rect fill="#F1F1F1" height="2" style="stroke:#181818;stroke-width:0.5;" width="4" x="822.9111" y="288.1469"/><text fill="#000000" font-family="sans-serif" font-size="14" lengthAdjust="spacing" textLength="109.0811" x="710.83" y="310.142">bot-create.html</text></g><!--entity BDETAILA--><g class="entity" data-qualified-name="Zona Auth.BDETAILA" data-source-line="15" id="ent0012"><rect fill="#F1F1F1" height="46.2969" rx="2.5" ry="2.5" style="stroke:#181818;stroke-width:0.5;" width="180.5469" x="991.05" y="351.1469"/><rect fill="#F1F1F1" height="10" style="stroke:#181818;stroke-width:0.5;" width="15" x="1151.5969" y="356.1469"/><rect fill="#F1F1F1" height="2" style="stroke:#181818;stroke-width:0.5;" width="4" x="1149.5969" y="358.1469"/><rect fill="#F1F1F1" height="2" style="stroke:#181818;stroke-width:0.5;" width="4" x="1149.5969" y="362.1469"/><text fill="#000000" font-family="sans-serif" font-size="14" lengthAdjust="spacing" textLength="140.5469" x="1006.05" y="384.142">bot-detail-auth.html</text></g><!--entity BEDIT--><g class="entity" data-qualified-name="Zona Auth.BEDIT" data-source-line="16" id="ent0013"><rect fill="#F1F1F1" height="46.2969" rx="2.5" ry="2.5" style="stroke:#181818;stroke-width:0.5;" width="131.2119" x="1342.93" y="432.1469"/><rect fill="#F1F1F1" height="10" style="stroke:#181818;stroke-width:0.5;" width="15" x="1454.1419" y="437.1469"/><rect fill="#F1F1F1" height="2" style="stroke:#181818;stroke-width:0.5;" width="4" x="1452.1419" y="439.1469"/><rect fill="#F1F1F1" height="2" style="stroke:#181818;stroke-width:0.5;" width="4" x="1452.1419" y="443.1469"/><text fill="#000000" font-family="sans-serif" font-size="14" lengthAdjust="spacing" textLength="91.2119" x="1357.93" y="465.142">bot-edit.html</text></g><!--entity UDETAILA--><g class="entity" data-qualified-name="Zona Auth.UDETAILA" data-source-line="17" id="ent0014"><rect fill="#F1F1F1" height="46.2969" rx="2.5" ry="2.5" style="stroke:#181818;stroke-width:0.5;" width="188.1416" x="676.3" y="196.1469"/><rect fill="#F1F1F1" height="10" style="stroke:#181818;stroke-width:0.5;" width="15" x="844.4416" y="201.1469"/><rect fill="#F1F1F1" height="2" style="stroke:#181818;stroke-width:0.5;" width="4" x="842.4416" y="203.1469"/><rect fill="#F1F1F1" height="2" style="stroke:#181818;stroke-width:0.5;" width="4" x="842.4416" y="207.1469"/><text fill="#000000" font-family="sans-serif" font-size="14" lengthAdjust="spacing" textLength="148.1416" x="691.3" y="229.142">user-detail-auth.html</text></g><!--entity UFROMBOTA--><g class="entity" data-qualified-name="Zona Auth.UFROMBOTA" data-source-line="18" id="ent0015"><rect fill="#F1F1F1" height="46.2969" rx="2.5" ry="2.5" style="stroke:#181818;stroke-width:0.5;" width="254.0742" x="1281.5" y="351.1469"/><rect fill="#F1F1F1" height="10" style="stroke:#181818;stroke-width:0.5;" width="15" x="1515.5742" y="356.1469"/><rect fill="#F1F1F1" height="2" style="stroke:#181818;stroke-width:0.5;" width="4" x="1513.5742" y="358.1469"/><rect fill="#F1F1F1" height="2" style="stroke:#181818;stroke-width:0.5;" width="4" x="1513.5742" y="362.1469"/><text fill="#000000" font-family="sans-serif" font-size="14" lengthAdjust="spacing" textLength="214.0742" x="1296.5" y="384.142">user-detail-from-bot-auth.html</text></g><!--entity MYTOURS--><g class="entity" data-qualified-name="Zona Auth.MYTOURS" data-source-line="19" id="ent0016"><rect fill="#F1F1F1" height="46.2969" rx="2.5" ry="2.5" style="stroke:#181818;stroke-width:0.5;" width="230.2236" x="369.36" y="115.1469"/><rect fill="#F1F1F1" height="10" style="stroke:#181818;stroke-width:0.5;" width="15" x="579.5836" y="120.1469"/><rect fill="#F1F1F1" height="2" style="stroke:#181818;stroke-width:0.5;" width="4" x="577.5836" y="122.1469"/><rect fill="#F1F1F1" height="2" style="stroke:#181818;stroke-width:0.5;" width="4" x="577.5836" y="126.1469"/><text fill="#000000" font-family="sans-serif" font-size="14" lengthAdjust="spacing" textLength="190.2236" x="384.36" y="148.142">my-tournaments-auth.html</text></g><!--entity TLISTA--><g class="entity" data-qualified-name="Zona Auth.TLISTA" data-source-line="20" id="ent0017"><rect fill="#F1F1F1" height="46.2969" rx="2.5" ry="2.5" style="stroke:#181818;stroke-width:0.5;" width="221.5693" x="659.59" y="78.1469"/><rect fill="#F1F1F1" height="10" style="stroke:#181818;stroke-width:0.5;" width="15" x="861.1593" y="83.1469"/><rect fill="#F1F1F1" height="2" style="stroke:#181818;stroke-width:0.5;" width="4" x="859.1593" y="85.1469"/><rect fill="#F1F1F1" height="2" style="stroke:#181818;stroke-width:0.5;" width="4" x="859.1593" y="89.1469"/><text fill="#000000" font-family="sans-serif" font-size="14" lengthAdjust="spacing" textLength="181.5693" x="674.59" y="111.142">tournament-list-auth.html</text></g><!--entity TOPENA--><g class="entity" data-qualified-name="Zona Auth.TOPENA" data-source-line="21" id="ent0018"><rect fill="#F1F1F1" height="46.2969" rx="2.5" ry="2.5" style="stroke:#181818;stroke-width:0.5;" width="280.3447" x="941.16" y="78.1469"/><rect fill="#F1F1F1" height="10" style="stroke:#181818;stroke-width:0.5;" width="15" x="1201.5047" y="83.1469"/><rect fill="#F1F1F1" height="2" style="stroke:#181818;stroke-width:0.5;" width="4" x="1199.5047" y="85.1469"/><rect fill="#F1F1F1" height="2" style="stroke:#181818;stroke-width:0.5;" width="4" x="1199.5047" y="89.1469"/><text fill="#000000" font-family="sans-serif" font-size="14" lengthAdjust="spacing" textLength="240.3447" x="956.16" y="111.142">tournament-detail-open-auth.html</text></g><!--entity TDETAILA--><g class="entity" data-qualified-name="Zona Auth.TDETAILA" data-source-line="22" id="ent0019"><rect fill="#F1F1F1" height="46.2969" rx="2.5" ry="2.5" style="stroke:#181818;stroke-width:0.5;" width="240.3545" x="961.15" y="196.1469"/><rect fill="#F1F1F1" height="10" style="stroke:#181818;stroke-width:0.5;" width="15" x="1181.5045" y="201.1469"/><rect fill="#F1F1F1" height="2" style="stroke:#181818;stroke-width:0.5;" width="4" x="1179.5045" y="203.1469"/><rect fill="#F1F1F1" height="2" style="stroke:#181818;stroke-width:0.5;" width="4" x="1179.5045" y="207.1469"/><text fill="#000000" font-family="sans-serif" font-size="14" lengthAdjust="spacing" textLength="200.3545" x="976.15" y="229.142">tournament-detail-auth.html</text></g><!--entity TJOIN--><g class="entity" data-qualified-name="Zona Auth.TJOIN" data-source-line="23" id="ent0020"><rect fill="#F1F1F1" height="46.2969" rx="2.5" ry="2.5" style="stroke:#181818;stroke-width:0.5;" width="189.3584" x="1313.86" y="108.1469"/><rect fill="#F1F1F1" height="10" style="stroke:#181818;stroke-width:0.5;" width="15" x="1483.2184" y="113.1469"/><rect fill="#F1F1F1" height="2" style="stroke:#181818;stroke-width:0.5;" width="4" x="1481.2184" y="115.1469"/><rect fill="#F1F1F1" height="2" style="stroke:#181818;stroke-width:0.5;" width="4" x="1481.2184" y="119.1469"/><text fill="#000000" font-family="sans-serif" font-size="14" lengthAdjust="spacing" textLength="149.3584" x="1328.86" y="141.142">tournament-join.html</text></g><!--entity TRESA--><g class="entity" data-qualified-name="Zona Auth.TRESA" data-source-line="24" id="ent0021"><rect fill="#F1F1F1" height="46.2969" rx="2.5" ry="2.5" style="stroke:#181818;stroke-width:0.5;" width="248.2158" x="1284.43" y="255.1469"/><rect fill="#F1F1F1" height="10" style="stroke:#181818;stroke-width:0.5;" width="15" x="1512.6458" y="260.1469"/><rect fill="#F1F1F1" height="2" style="stroke:#181818;stroke-width:0.5;" width="4" x="1510.6458" y="262.1469"/><rect fill="#F1F1F1" height="2" style="stroke:#181818;stroke-width:0.5;" width="4" x="1510.6458" y="266.1469"/><text fill="#000000" font-family="sans-serif" font-size="14" lengthAdjust="spacing" textLength="208.2158" x="1299.43" y="288.142">tournament-results-auth.html</text></g><!--entity Auth--><g class="entity" data-qualified-name="Auth" data-source-line="4" id="ent0002"><ellipse cx="51.2334" cy="267.6469" fill="#F1F1F1" rx="8" ry="8" style="stroke:#181818;stroke-width:0.5;"/><path d="M51.2334,275.6469 L51.2334,302.6469 M38.2334,283.6469 L64.2334,283.6469 M51.2334,302.6469 L38.2334,317.6469 M51.2334,302.6469 L64.2334,317.6469" fill="none" style="stroke:#181818;stroke-width:0.5;"/><text fill="#000000" font-family="sans-serif" font-size="14" lengthAdjust="spacing" textLength="90.4668" x="6" y="332.142">Usuario Auth</text></g><!--link Auth to HAUTH--><g class="link" data-entity-1="ent0002" data-entity-2="ent0004" data-link-type="dependency" data-source-line="27" id="lnk22"><path d="M96.65,297.2969 C114.63,297.2969 129.9,297.2969 150.19,297.2969" fill="none" id="Auth-to-HAUTH" style="stroke:#181818;stroke-width:1;"/><polygon fill="#181818" points="156.19,297.2969,147.19,293.2969,151.19,297.2969,147.19,301.2969,156.19,297.2969" style="stroke:#181818;stroke-width:1;"/></g><!--link HAUTH to MLISTA--><g class="link" data-entity-1="ent0004" data-entity-2="ent0005" data-link-type="dependency" data-source-line="29" id="lnk23"><path d="M247.75,320.8469 C269.44,355.8169 314.66,421.4069 369.36,459.2969 C378.51,465.6369 383.2681,468.6404 393.7681,473.2604" fill="none" id="HAUTH-to-MLISTA" style="stroke:#181818;stroke-width:1;"/><polygon fill="#181818" points="399.26,475.6769,392.6331,468.391,394.6834,473.6632,389.4112,475.7135,399.26,475.6769" style="stroke:#181818;stroke-width:1;"/></g><!--link HAUTH to RECENT--><g class="link" data-entity-1="ent0004" data-entity-2="ent0007" data-link-type="dependency" data-source-line="30" id="lnk24"><path d="M268.77,320.8169 C295.51,338.1869 333.76,361.6169 369.36,378.2969 C382,384.2169 390.1501,387.6923 403.6101,392.6523" fill="none" id="HAUTH-to-RECENT" style="stroke:#181818;stroke-width:1;"/><polygon fill="#181818" points="409.24,394.7269,402.1782,387.8617,404.5484,392.998,399.412,395.3682,409.24,394.7269" style="stroke:#181818;stroke-width:1;"/></g><!--link HAUTH to MYBOTS--><g class="link" data-entity-1="ent0004" data-entity-2="ent0010" data-link-type="dependency" data-source-line="31" id="lnk25"><path d="M309.81,284.8269 C344.08,279.1969 378.2794,273.5799 411.3194,268.1499" fill="none" id="HAUTH-to-MYBOTS" style="stroke:#181818;stroke-width:1;"/><polygon fill="#181818" points="417.24,267.1769,407.7105,264.6894,412.3062,267.9877,409.0078,272.5835,417.24,267.1769" style="stroke:#181818;stroke-width:1;"/></g><!--link HAUTH to MYTOURS--><g class="link" data-entity-1="ent0004" data-entity-2="ent0016" data-link-type="dependency" data-source-line="32" id="lnk26"><path d="M258.86,273.8169 C284.95,250.1169 327.81,213.5069 369.36,188.2969 C385.64,178.4269 398.7078,171.8198 416.0678,164.2698" fill="none" id="HAUTH-to-MYTOURS" style="stroke:#181818;stroke-width:1;"/><polygon fill="#181818" points="421.57,161.8769,411.7215,161.7982,416.9849,163.871,414.912,169.1344,421.57,161.8769" style="stroke:#181818;stroke-width:1;"/></g><!--link HAUTH to UDETAILA--><g class="link" data-entity-1="ent0004" data-entity-2="ent0014" data-link-type="dependency" data-source-line="33" id="lnk27"><path d="M262.12,273.8469 C288.12,253.8669 328.72,226.6369 369.36,215.2969 C471.37,186.8269 587.8455,192.959 670.1555,203.159" fill="none" id="HAUTH-to-UDETAILA" style="stroke:#181818;stroke-width:1;"/><polygon fill="#181818" points="676.11,203.8969,667.6702,198.8204,671.148,203.282,666.6864,206.7597,676.11,203.8969" style="stroke:#181818;stroke-width:1;"/></g><!--link HAUTH to MSEARCH--><g class="link" data-entity-1="ent0004" data-entity-2="ent0008" data-link-type="dependency" data-source-line="34" id="lnk28"><path d="M309.81,309.4569 C337.63,313.9169 363.3758,318.0464 391.9858,322.6364" fill="none" id="HAUTH-to-MSEARCH" style="stroke:#181818;stroke-width:1;"/><polygon fill="#181818" points="397.91,323.5869,389.6573,318.2117,392.9731,322.7948,388.39,326.1107,397.91,323.5869" style="stroke:#181818;stroke-width:1;"/></g><!--link MSEARCH to MBATTLE--><g class="link" data-entity-1="ent0008" data-entity-2="ent0009" data-link-type="dependency" data-source-line="35" id="lnk29"><path d="M568.35,360.9469 C605.67,371.5869 643.8401,382.4812 681.1101,393.1112" fill="none" id="MSEARCH-to-MBATTLE" style="stroke:#181818;stroke-width:1;"/><polygon fill="#181818" points="686.88,394.7569,679.3223,388.4418,682.0717,393.3855,677.128,396.135,686.88,394.7569" style="stroke:#181818;stroke-width:1;"/></g><!--link MLISTA to MSTATSA--><g class="link" data-entity-1="ent0005" data-entity-2="ent0006" data-link-type="dependency" data-source-line="37" id="lnk30"><path d="M576.47,499.2969 C606.8,499.2969 634.71,499.2969 665.53,499.2969" fill="none" id="MLISTA-to-MSTATSA" style="stroke:#181818;stroke-width:1;"/><polygon fill="#181818" points="671.53,499.2969,662.53,495.2969,666.53,499.2969,662.53,503.2969,671.53,499.2969" style="stroke:#181818;stroke-width:1;"/></g><!--link RECENT to MSTATSA--><g class="link" data-entity-1="ent0007" data-entity-2="ent0006" data-link-type="dependency" data-source-line="38" id="lnk31"><path d="M568.35,441.9469 C605.67,452.5869 643.8401,463.4812 681.1101,474.1112" fill="none" id="RECENT-to-MSTATSA" style="stroke:#181818;stroke-width:1;"/><polygon fill="#181818" points="686.88,475.7569,679.3223,469.4418,682.0717,474.3855,677.128,477.135,686.88,475.7569" style="stroke:#181818;stroke-width:1;"/></g><!--link MSTATSA to BDETAILA--><g class="link" data-entity-1="ent0006" data-entity-2="ent0012" data-link-type="dependency" data-source-line="40" id="lnk32"><path d="M838.06,475.6469 C852.34,470.4069 867.29,464.7769 881.16,459.2969 C931.15,439.5369 981.9452,417.7366 1021.8952,400.2166" fill="none" id="MSTATSA-to-BDETAILA" style="stroke:#181818;stroke-width:1;"/><polygon fill="#181818" points="1027.39,397.8069,1017.5413,397.7583,1022.811,399.815,1020.7543,405.0847,1027.39,397.8069" style="stroke:#181818;stroke-width:1;"/></g><!--link BDETAILA to BEDIT--><g class="link" data-entity-1="ent0012" data-entity-2="ent0013" data-link-type="dependency" data-source-line="41" id="lnk33"><path d="M1172.05,396.6469 C1226.11,410.1069 1287.8777,425.4975 1336.7677,437.6675" fill="none" id="BDETAILA-to-BEDIT" style="stroke:#181818;stroke-width:1;"/><polygon fill="#181818" points="1342.59,439.1169,1334.8227,433.0613,1337.7381,437.9091,1332.8903,440.8244,1342.59,439.1169" style="stroke:#181818;stroke-width:1;"/></g><!--link BDETAILA to UFROMBOTA--><g class="link" data-entity-1="ent0012" data-entity-2="ent0015" data-link-type="dependency" data-source-line="42" id="lnk34"><path d="M1172.05,385.8369 C1205.8,387.0369 1238.8308,387.444 1275.2908,386.854" fill="none" id="BDETAILA-to-UFROMBOTA" style="stroke:#181818;stroke-width:1;"/><polygon fill="#181818" points="1281.29,386.7569,1272.2265,382.903,1276.2907,386.8378,1272.3559,390.902,1281.29,386.7569" style="stroke:#181818;stroke-width:1;"/></g><!--link UFROMBOTA to BDETAILA--><g class="link" data-entity-1="ent0015" data-entity-2="ent0012" data-link-type="dependency" data-source-line="43" id="lnk35"><path d="M1281.29,361.0969 C1244.83,360.4769 1211.7957,360.5795 1178.0457,361.8595" fill="none" id="UFROMBOTA-to-BDETAILA" style="stroke:#181818;stroke-width:1;"/><polygon fill="#181818" points="1172.05,362.0869,1181.1951,365.7429,1177.0464,361.8974,1180.8919,357.7487,1172.05,362.0869" style="stroke:#181818;stroke-width:1;"/></g><!--link UDETAILA to BDETAILA--><g class="link" data-entity-1="ent0014" data-entity-2="ent0012" data-link-type="dependency" data-source-line="44" id="lnk36"><path d="M850.38,242.8669 C861.13,247.5469 871.7,252.9969 881.16,259.2969 C913.88,281.0869 908.38,302.5869 941.16,324.2969 C957.31,335.0069 970.4429,341.6114 988.8229,348.6114" fill="none" id="UDETAILA-to-BDETAILA" style="stroke:#181818;stroke-width:1;"/><polygon fill="#181818" points="994.43,350.7469,987.443,343.8056,989.7574,348.9673,984.5957,351.2818,994.43,350.7469" style="stroke:#181818;stroke-width:1;"/></g><!--link MYBOTS to BCREATE--><g class="link" data-entity-1="ent0010" data-entity-2="ent0011" data-link-type="dependency" data-source-line="46" id="lnk37"><path d="M551.68,266.5569 C594.77,273.2369 645.1008,281.0381 689.6308,287.9381" fill="none" id="MYBOTS-to-BCREATE" style="stroke:#181818;stroke-width:1;"/><polygon fill="#181818" points="695.56,288.8569,687.2786,283.5259,690.619,288.0913,686.0536,291.4316,695.56,288.8569" style="stroke:#181818;stroke-width:1;"/></g><!--link MYBOTS to BDETAILA--><g class="link" data-entity-1="ent0010" data-entity-2="ent0012" data-link-type="dependency" data-source-line="47" id="lnk38"><path d="M551.51,275.5869 C567.65,281.3469 584.59,288.2869 599.59,296.2969 C628.99,311.9969 628.4,329.5269 659.59,341.2969 C718.11,363.3869 879.7416,370.5488 984.9016,372.9688" fill="none" id="MYBOTS-to-BDETAILA" style="stroke:#181818;stroke-width:1;"/><polygon fill="#181818" points="990.9,373.1069,981.9944,368.9009,985.9013,372.9918,981.8104,376.8988,990.9,373.1069" style="stroke:#181818;stroke-width:1;"/></g><!--link MYTOURS to TLISTA--><g class="link" data-entity-1="ent0016" data-entity-2="ent0017" data-link-type="dependency" data-source-line="49" id="lnk39"><path d="M599.72,123.4069 C619.44,120.8369 633.9501,118.9406 653.5601,116.3906" fill="none" id="MYTOURS-to-TLISTA" style="stroke:#181818;stroke-width:1;"/><polygon fill="#181818" points="659.51,115.6169,650.0693,112.8108,654.5517,116.2616,651.1009,120.744,659.51,115.6169" style="stroke:#181818;stroke-width:1;"/></g><!--link MYTOURS to TRESA--><g class="link" data-entity-1="ent0016" data-entity-2="ent0021" data-link-type="dependency" data-source-line="50" id="lnk40"><path d="M600.06,144.2769 C708.61,150.8369 858.35,162.5669 881.16,178.2969 C930.24,212.1569 890.43,266.9469 941.16,298.2969 C1047.14,363.7969 1097.08,304.9669 1221.5,298.2969 C1241.77,297.2069 1257.2682,296.048 1278.1282,294.018" fill="none" id="MYTOURS-to-TRESA" style="stroke:#181818;stroke-width:1;"/><polygon fill="#181818" points="1284.1,293.4369,1274.7549,290.3274,1279.1235,293.9212,1275.5297,298.2898,1284.1,293.4369" style="stroke:#181818;stroke-width:1;"/></g><!--link TLISTA to TOPENA--><g class="link" data-entity-1="ent0017" data-entity-2="ent0018" data-link-type="dependency" data-source-line="52" id="lnk41"><path d="M881.6,101.2969 C900.75,101.2969 914.89,101.2969 934.7,101.2969" fill="none" id="TLISTA-to-TOPENA" style="stroke:#181818;stroke-width:1;"/><polygon fill="#181818" points="940.7,101.2969,931.7,97.2969,935.7,101.2969,931.7,105.2969,940.7,101.2969" style="stroke:#181818;stroke-width:1;"/></g><!--link TLISTA to TDETAILA--><g class="link" data-entity-1="ent0017" data-entity-2="ent0019" data-link-type="dependency" data-source-line="53" id="lnk42"><path d="M828.54,124.7869 C861.38,138.1369 903.46,154.9769 941.16,169.2969 C964.56,178.1869 984.6696,185.5387 1007.5996,193.7287" fill="none" id="TLISTA-to-TDETAILA" style="stroke:#181818;stroke-width:1;"/><polygon fill="#181818" points="1013.25,195.7469,1006.1199,188.9527,1008.5413,194.0651,1003.429,196.4865,1013.25,195.7469" style="stroke:#181818;stroke-width:1;"/></g><!--link TLISTA to TRESA--><g class="link" data-entity-1="ent0017" data-entity-2="ent0021" data-link-type="dependency" data-source-line="54" id="lnk43"><path d="M841.13,124.9269 C855.44,131.9069 869.64,140.6169 881.16,151.2969 C921.71,188.8869 894.1,231.2469 941.16,260.2969 C996.44,294.4269 1159.4975,293.1566 1278.0775,287.2266" fill="none" id="TLISTA-to-TRESA" style="stroke:#181818;stroke-width:1;"/><polygon fill="#181818" points="1284.07,286.9269,1274.8814,283.3814,1279.0762,287.1766,1275.281,291.3714,1284.07,286.9269" style="stroke:#181818;stroke-width:1;"/></g><!--link TOPENA to TJOIN--><g class="link" data-entity-1="ent0018" data-entity-2="ent0020" data-link-type="dependency" data-source-line="55" id="lnk44"><path d="M1221.66,114.1469 C1252.69,117.0169 1278.9054,119.425 1307.5954,122.075" fill="none" id="TOPENA-to-TJOIN" style="stroke:#181818;stroke-width:1;"/><polygon fill="#181818" points="1313.57,122.6269,1304.976,117.8161,1308.5912,122.167,1304.2402,125.7821,1313.57,122.6269" style="stroke:#181818;stroke-width:1;"/></g><!--link TJOIN to TLISTA--><g class="link" data-entity-1="ent0020" data-entity-2="ent0017" data-link-type="dependency" data-source-line="56" id="lnk45"><path d="M1313.37,141.3169 C1218.91,149.5369 1069.43,157.5669 941.16,142.2969 C911.65,138.7869 885.6661,133.4311 857.6561,126.3311" fill="none" id="TJOIN-to-TLISTA" style="stroke:#181818;stroke-width:1;"/><polygon fill="#181818" points="851.84,124.8569,859.5813,130.9456,856.6867,126.0854,861.5469,123.1909,851.84,124.8569" style="stroke:#181818;stroke-width:1;"/></g><!--link TDETAILA to TRESA--><g class="link" data-entity-1="ent0019" data-entity-2="ent0021" data-link-type="dependency" data-source-line="57" id="lnk46"><path d="M1201.58,240.9269 C1228.41,245.7969 1251.0264,249.9059 1278.0364,254.8059" fill="none" id="TDETAILA-to-TRESA" style="stroke:#181818;stroke-width:1;"/><polygon fill="#181818" points="1283.94,255.8769,1275.7985,250.3346,1279.0203,254.9844,1274.3705,258.2061,1283.94,255.8769" style="stroke:#181818;stroke-width:1;"/></g><?plantuml-src TPB1JkCm48RlVWghz-mZ8Bd5YAAsMQNE0H07avh6R18ZPx8IGhmxoTXf9W4kZVlFD-CPpmyMAiFpjjFUEYuwA7d23_g_EUl2kePLvWKuEExjkGH-ijuKCEXC5-0yNz7C5TSj7XXxqyK_VJPyzU0Q7OCVZFF7qjKcqVt_FoNKrTEGSIjoTJl4QWr5cLIsXGMntssFIan82nhQ9TCJweXGtwDf847Mj1EIoOqyA5B6Q5_CIaYHRKWhpnhwro70MYYramYy9yyEIF7z_JfLno7KwqdXZGQIkTvaKYWvXay6jAqM4wolfHBRdHWXSx90el9wYxrthV4_5yX90KgzU5SFtIxncopTzqsBE0-upZUwxf_kszlUgpJFSBW9-cbHwh8emiKkt9jfbdZwLnv-mHSa6Osmhyus1BfBjuS5uKtRLTy6KfdihVB9M31ySXLDoF23GlJS94Jt429id0hXcIRbiX42HPF5Rz2YhrYuD7B1p-7QcSJY0SMBQyP3KD4jCsbQz-KqBv3F2emg2sC6CRgOIeJ3wL6DFfX9-EHCJHF6xLDbB4Orp0ji473B-4llKhHxJFe2?></g></svg>