<?plantuml 1.2026.2beta3?>
<svg xmlns="http://www.w3.org/2000/svg" xmlns:xlink="http://www.w3.org/1999/xlink" contentStyleType="text/css" data-diagram-type="DESCRIPTION" height="403px" preserveAspectRatio="none" style="width:618px;height:403px;background:#FFFFFF;" version="1.1" viewBox="0 0 618 403" width="618px" zoomAndPan="magnify"><title>Relacion Entre Paquetes</title><defs/><g><g class="title" data-source-line="1"><text fill="#000000" font-family="sans-serif" font-size="14" font-weight="bold" lengthAdjust="spacing" textLength="193.2861" x="205.6404" y="22.9951">Relacion Entre Paquetes</text></g><!--entity P--><g class="entity" data-qualified-name="P" data-source-line="4" id="ent0002"><path d="M58.41,251.6469 L81.6707,251.6469 A3.75,3.75 0 0 1 84.1707,254.1469 L91.1707,273.9438 L133.6541,273.9438 A2.5,2.5 0 0 1 136.1541,276.4438 L136.1541,304.7406 A2.5,2.5 0 0 1 133.6541,307.2406 L58.41,307.2406 A2.5,2.5 0 0 1 55.91,304.7406 L55.91,254.1469 A2.5,2.5 0 0 1 58.41,251.6469" fill="#F1F1F1" style="stroke:#181818;stroke-width:0.5;"/><line style="stroke:#181818;stroke-width:0.5;" x1="55.91" x2="91.1707" y1="273.9438" y2="273.9438"/><text fill="#000000" font-family="sans-serif" font-size="14" font-weight="bold" lengthAdjust="spacing" textLength="10.2607" x="65.91" y="267.642">P</text><text fill="#000000" font-family="sans-serif" font-size="14" lengthAdjust="spacing" textLength="50.2441" x="65.91" y="293.9389">Publico</text></g><!--entity A--><g class="entity" data-qualified-name="A" data-source-line="5" id="ent0003"><path d="M470.58,171.6469 L494.415,171.6469 A3.75,3.75 0 0 1 496.915,174.1469 L503.915,193.9438 L568.4511,193.9438 A2.5,2.5 0 0 1 570.9511,196.4438 L570.9511,224.7406 A2.5,2.5 0 0 1 568.4511,227.2406 L470.58,227.2406 A2.5,2.5 0 0 1 468.08,224.7406 L468.08,174.1469 A2.5,2.5 0 0 1 470.58,171.6469" fill="#F1F1F1" style="stroke:#181818;stroke-width:0.5;"/><line style="stroke:#181818;stroke-width:0.5;" x1="468.08" x2="503.915" y1="193.9438" y2="193.9438"/><text fill="#000000" font-family="sans-serif" font-size="14" font-weight="bold" lengthAdjust="spacing" textLength="10.835" x="478.08" y="187.642">A</text><text fill="#000000" font-family="sans-serif" font-size="14" lengthAdjust="spacing" textLength="72.8711" x="478.08" y="213.9389">Zona Auth</text></g><!--entity D--><g class="entity" data-qualified-name="D" data-source-line="6" id="ent0004"><path d="M464.56,319.6469 L489.1811,319.6469 A3.75,3.75 0 0 1 491.6811,322.1469 L498.6811,341.9437 L574.4829,341.9437 A2.5,2.5 0 0 1 576.9829,344.4437 L576.9829,372.7406 A2.5,2.5 0 0 1 574.4829,375.2406 L464.56,375.2406 A2.5,2.5 0 0 1 462.06,372.7406 L462.06,322.1469 A2.5,2.5 0 0 1 464.56,319.6469" fill="#F1F1F1" style="stroke:#181818;stroke-width:0.5;"/><line style="stroke:#181818;stroke-width:0.5;" x1="462.06" x2="498.6811" y1="341.9437" y2="341.9437"/><text fill="#000000" font-family="sans-serif" font-size="14" font-weight="bold" lengthAdjust="spacing" textLength="11.6211" x="472.06" y="335.642">D</text><text fill="#000000" font-family="sans-serif" font-size="14" lengthAdjust="spacing" textLength="84.9229" x="472.06" y="361.9389">Zona Admin</text></g><!--entity LOGIN--><g class="entity" data-qualified-name="LOGIN" data-source-line="8" id="ent0005"><rect fill="#F1F1F1" height="46.2969" rx="2.5" ry="2.5" style="stroke:#181818;stroke-width:0.5;" width="110.4443" x="40.81" y="125.2969"/><rect fill="#F1F1F1" height="10" style="stroke:#181818;stroke-width:0.5;" width="15" x="131.2543" y="130.2969"/><rect fill="#F1F1F1" height="2" style="stroke:#181818;stroke-width:0.5;" width="4" x="129.2543" y="132.2969"/><rect fill="#F1F1F1" height="2" style="stroke:#181818;stroke-width:0.5;" width="4" x="129.2543" y="136.2969"/><text fill="#000000" font-family="sans-serif" font-size="14" lengthAdjust="spacing" textLength="70.4443" x="55.81" y="158.292">login.html</text></g><!--entity ADMINLOGIN--><g class="entity" data-qualified-name="ADMINLOGIN" data-source-line="9" id="ent0006"><rect fill="#F1F1F1" height="46.2969" rx="2.5" ry="2.5" style="stroke:#181818;stroke-width:0.5;" width="178.0586" x="7" y="44.2969"/><rect fill="#F1F1F1" height="10" style="stroke:#181818;stroke-width:0.5;" width="15" x="165.0586" y="49.2969"/><rect fill="#F1F1F1" height="2" style="stroke:#181818;stroke-width:0.5;" width="4" x="163.0586" y="51.2969"/><rect fill="#F1F1F1" height="2" style="stroke:#181818;stroke-width:0.5;" width="4" x="163.0586" y="55.2969"/><text fill="#000000" font-family="sans-serif" font-size="14" lengthAdjust="spacing" textLength="138.0586" x="22" y="77.292">WIP log in as admin</text></g><!--link P to A--><g class="link" data-entity-1="ent0002" data-entity-2="ent0003" data-link-type="dependency" data-source-line="11" id="lnk7"><path d="M136.45,279.5538 C158.81,268.0538 187.71,232.6369 215.06,225.4369 C301.74,202.6369 400.67,198.6367 461.68,198.5367" fill="none" id="P-to-A" style="stroke:#181818;stroke-width:1;"/><polygon fill="#181818" points="467.68,198.5269,458.6735,194.5416,462.68,198.5351,458.6866,202.5416,467.68,198.5269" style="stroke:#181818;stroke-width:1;"/><text fill="#000000" font-family="sans-serif" font-size="13" lengthAdjust="spacing" textLength="87.5596" x="279.8981" y="180.5038">Login usuario</text><text fill="#000000" font-family="sans-serif" font-size="13" lengthAdjust="spacing" textLength="204.2358" x="221.56" y="195.6366">(login.html -&gt; home-auth.html)</text></g><!--link A to P--><g class="link" data-entity-1="ent0003" data-entity-2="ent0002" data-link-type="dependency" data-source-line="14" id="lnk9"><path d="M479.39,227.5269 C465.14,236.3669 448.49,245.1869 432.06,250.4369 C329.33,283.3069 206.3763,284.0483 142.5663,281.7983" fill="none" id="A-to-P" style="stroke:#181818;stroke-width:1;"/><polygon fill="#181818" points="136.57,281.5869,145.4235,285.9015,141.5669,281.7631,145.7054,277.9065,136.57,281.5869" style="stroke:#181818;stroke-width:1;"/><text fill="#000000" font-family="sans-serif" font-size="13" lengthAdjust="spacing" textLength="144.5361" x="251.56" y="246.5038">Log Out -&gt; index.html</text></g><!--link P to D--><g class="link" data-entity-1="ent0002" data-entity-2="ent0004" data-link-type="dependency" data-source-line="12" id="lnk8"><path d="M136.57,294.9769 C159.21,303.2369 188.34,312.8269 215.06,318.4369 C299.87,336.2669 394.3456,342.8982 455.7456,345.5482" fill="none" id="P-to-D" style="stroke:#181818;stroke-width:1;"/><polygon fill="#181818" points="461.74,345.8069,452.9208,341.4225,456.7447,345.5913,452.5759,349.4151,461.74,345.8069" style="stroke:#181818;stroke-width:1;"/><text fill="#000000" font-family="sans-serif" font-size="13" lengthAdjust="spacing" textLength="80.1646" x="283.6911" y="299.5038">Login admin</text><text fill="#000000" font-family="sans-serif" font-size="13" lengthAdjust="spacing" textLength="215.4268" x="216.06" y="314.6366">(login.html -&gt; home-admin.html)</text></g><!--link D to P--><g class="link" data-entity-1="ent0004" data-entity-2="ent0002" data-link-type="dependency" data-source-line="15" id="lnk10"><path d="M461.79,364.0669 C399.56,379.4369 297.56,396.0569 215.06,368.4369 C179.28,356.4669 150.0039,333.0567 127.8639,311.7567" fill="none" id="D-to-P" style="stroke:#181818;stroke-width:1;"/><polygon fill="#181818" points="123.54,307.5969,127.2526,316.7192,127.1432,311.0634,132.799,310.954,123.54,307.5969" style="stroke:#181818;stroke-width:1;"/><text fill="#000000" font-family="sans-serif" font-size="13" lengthAdjust="spacing" textLength="144.5361" x="251.56" y="364.5038">Log Out -&gt; index.html</text></g><!--link P to P--><g class="link" data-entity-1="ent0002" data-entity-2="ent0002" data-link-type="dependency" data-source-line="17" id="lnk11"><path d="M56.56,251.3469 C46.65,233.6169 59.81,216.6469 96.03,216.6469 C132.25,216.6469 148.3251,250.6751 138.4251,268.4051" fill="none" id="P-to-P" style="stroke:#181818;stroke-width:1;"/><polygon fill="#181818" points="135.5,273.6437,143.3801,267.7359,137.9376,269.2782,136.3953,263.8357,135.5,273.6437" style="stroke:#181818;stroke-width:1;"/><text fill="#000000" font-family="sans-serif" font-size="13" lengthAdjust="spacing" textLength="127.7656" x="32.53" y="207.7138">Navegacion publica</text></g><!--link A to A--><g class="link" data-entity-1="ent0003" data-entity-2="ent0003" data-link-type="dependency" data-source-line="18" id="lnk12"><path d="M485.52,171.3469 C477,153.6169 488.33,136.6469 519.52,136.6469 C550.71,136.6469 564.6388,170.5058 556.1188,188.2358" fill="none" id="A-to-A" style="stroke:#181818;stroke-width:1;"/><polygon fill="#181818" points="553.52,193.6437,561.0235,187.2643,555.6856,189.1371,553.8128,183.7992,553.52,193.6437" style="stroke:#181818;stroke-width:1;"/><text fill="#000000" font-family="sans-serif" font-size="13" lengthAdjust="spacing" textLength="160.856" x="439.52" y="127.7138">Navegacion auth interna</text></g><!--link D to D--><g class="link" data-entity-1="ent0004" data-entity-2="ent0004" data-link-type="dependency" data-source-line="19" id="lnk13"><path d="M485.52,320.6829 C477,302.9529 488.33,284.6469 519.52,284.6469 C550.71,284.6469 564.6388,318.5058 556.1188,336.2358" fill="none" id="D-to-D" style="stroke:#181818;stroke-width:1;"/><polygon fill="#181818" points="553.52,341.6437,561.0235,335.2643,555.6856,337.1371,553.8128,331.7992,553.52,341.6437" style="stroke:#181818;stroke-width:1;"/><text fill="#000000" font-family="sans-serif" font-size="13" lengthAdjust="spacing" textLength="172.0469" x="433.52" y="275.7138">Navegacion admin interna</text></g><?plantuml-src XP31IiGm54Nt-Oh7h7HHFy2548X8OQOJt0YEBfxjimscoPY-Y9zlaaO71yJjFUVUFCA6BS4zMUoDTt3hE11eV8_4j0XBhmpi8PXnOXXCe9wJ9iGH-pSS2JOwlbZJ-mtW0leKFtg782DF1SXpCCp65QA4E5W_6dSryMoVSxJTtxMTE3oq6X81utA8kL6mLBksMnsXeMbkGC8rRFC6n2LYCFx9NPms8HcJdwd1T4r9BcjF_VJA-X-jZ6fDoDBJQm_saRDct42VnH3g7ruVpaA77pIkVtuiNuXrNVw6-UeqmHGSrdrrPkGBlvKl?></g></svg>