<?plantuml 1.2026.2beta3?>
<svg xmlns="http://www.w3.org/2000/svg" xmlns:xlink="http://www.w3.org/1999/xlink" contentStyleType="text/css" data-diagram-type="CLASS" height="912px" preserveAspectRatio="none" style="width:1419px;height:912px;background:#FFFFFF;" version="1.1" viewBox="0 0 1419 912" width="1419px" zoomAndPan="magnify"><title>Scissors Please - Entidades de Base de Datos</title><defs/><g><g class="title" data-source-line="6"><text fill="#000000" font-family="sans-serif" font-size="14" font-weight="bold" lengthAdjust="spacing" textLength="357.4922" x="524.1021" y="22.9951">Scissors Please - Entidades de Base de Datos</text></g><!--class User--><g class="entity" data-qualified-name="User" data-source-line="8" id="ent0002"><rect fill="#F1F1F1" height="178.375" rx="2.5" ry="2.5" style="stroke:#181818;stroke-width:0.5;" width="269.0313" x="7" y="553.6469"/><ellipse cx="118.3506" cy="569.6469" fill="#ADD1B2" rx="11" ry="11" style="stroke:#181818;stroke-width:1;"/><path d="M122.46,575.6469 L114.7412,575.6469 L114.7412,563.2563 L122.46,563.2563 L122.46,565.4125 L117.1943,565.4125 L117.1943,568.0844 L121.96,568.0844 L121.96,570.2406 L117.1943,570.2406 L117.1943,573.4906 L122.46,573.4906 L122.46,575.6469 Z " fill="#000000"/><text fill="#000000" font-family="sans-serif" font-size="14" lengthAdjust="spacing" textLength="37.8301" x="138.8506" y="574.4936">users</text><line style="stroke:#181818;stroke-width:0.5;" x1="8" x2="275.0313" y1="585.6469" y2="585.6469"/><text fill="#000000" font-family="sans-serif" font-size="14" lengthAdjust="spacing" textLength="67.5186" x="13" y="602.642">*id : Long</text><line style="stroke:#181818;stroke-width:1;" x1="8" x2="275.0313" y1="609.9438" y2="609.9438"/><text fill="#000000" font-family="sans-serif" font-size="14" lengthAdjust="spacing" textLength="257.0313" x="13" y="626.9389">username : String «unique, not null»</text><text fill="#000000" font-family="sans-serif" font-size="14" lengthAdjust="spacing" textLength="225.4014" x="13" y="643.2357">email : String «unique, not null»</text><text fill="#000000" font-family="sans-serif" font-size="14" lengthAdjust="spacing" textLength="122.1104" x="13" y="659.5326">password : String</text><text fill="#000000" font-family="sans-serif" font-size="14" lengthAdjust="spacing" textLength="187.0039" x="13" y="675.8295">createdAt : LocalDateTime</text><text fill="#000000" font-family="sans-serif" font-size="14" lengthAdjust="spacing" textLength="153.9727" x="13" y="692.1264">oauthProvider : String</text><text fill="#000000" font-family="sans-serif" font-size="14" lengthAdjust="spacing" textLength="124.2363" x="13" y="708.4232">blocked : boolean</text><text fill="#000000" font-family="sans-serif" font-size="14" lengthAdjust="spacing" textLength="195.8701" x="13" y="724.7201">deleteDate : LocalDateTime</text></g><!--class Image--><g class="entity" data-qualified-name="Image" data-source-line="20" id="ent0003"><rect fill="#F1F1F1" height="113.1875" rx="2.5" ry="2.5" style="stroke:#181818;stroke-width:0.5;" width="155.3359" x="570.85" y="792.0169"/><ellipse cx="618.8178" cy="808.0169" fill="#ADD1B2" rx="11" ry="11" style="stroke:#181818;stroke-width:1;"/><path d="M622.9271,814.0169 L615.2084,814.0169 L615.2084,801.6262 L622.9271,801.6262 L622.9271,803.7825 L617.6615,803.7825 L617.6615,806.4544 L622.4271,806.4544 L622.4271,808.6106 L617.6615,808.6106 L617.6615,811.8606 L622.9271,811.8606 L622.9271,814.0169 Z " fill="#000000"/><text fill="#000000" font-family="sans-serif" font-size="14" lengthAdjust="spacing" textLength="50.9004" x="639.3178" y="812.8636">images</text><line style="stroke:#181818;stroke-width:0.5;" x1="571.85" x2="725.1859" y1="824.0169" y2="824.0169"/><text fill="#000000" font-family="sans-serif" font-size="14" lengthAdjust="spacing" textLength="67.5186" x="576.85" y="841.012">*id : Long</text><line style="stroke:#181818;stroke-width:1;" x1="571.85" x2="725.1859" y1="848.3137" y2="848.3137"/><text fill="#000000" font-family="sans-serif" font-size="14" lengthAdjust="spacing" textLength="116.4229" x="576.85" y="865.3089">filename : String</text><text fill="#000000" font-family="sans-serif" font-size="14" lengthAdjust="spacing" textLength="143.3359" x="576.85" y="881.6057">contentType : String</text><text fill="#000000" font-family="sans-serif" font-size="14" lengthAdjust="spacing" textLength="87.3496" x="576.85" y="897.9026">data : byte[]</text></g><!--class Bot--><g class="entity" data-qualified-name="Bot" data-source-line="28" id="ent0004"><rect fill="#F1F1F1" height="259.8594" rx="2.5" ry="2.5" style="stroke:#181818;stroke-width:0.5;" width="203.584" x="312.72" y="233.7869"/><ellipse cx="395.1443" cy="249.7869" fill="#ADD1B2" rx="11" ry="11" style="stroke:#181818;stroke-width:1;"/><path d="M399.2537,255.7869 L391.5349,255.7869 L391.5349,243.3963 L399.2537,243.3963 L399.2537,245.5525 L393.9881,245.5525 L393.9881,248.2244 L398.7537,248.2244 L398.7537,250.3806 L393.9881,250.3806 L393.9881,253.6306 L399.2537,253.6306 L399.2537,255.7869 Z " fill="#000000"/><text fill="#000000" font-family="sans-serif" font-size="14" lengthAdjust="spacing" textLength="30.2354" x="415.6443" y="254.6336">bots</text><line style="stroke:#181818;stroke-width:0.5;" x1="313.72" x2="515.304" y1="265.7869" y2="265.7869"/><text fill="#000000" font-family="sans-serif" font-size="14" lengthAdjust="spacing" textLength="67.5186" x="318.72" y="282.782">*id : Long</text><line style="stroke:#181818;stroke-width:1;" x1="313.72" x2="515.304" y1="290.0838" y2="290.0838"/><text fill="#000000" font-family="sans-serif" font-size="14" lengthAdjust="spacing" textLength="95.1016" x="318.72" y="307.0789">name : String</text><text fill="#000000" font-family="sans-serif" font-size="14" lengthAdjust="spacing" textLength="133.2393" x="318.72" y="323.3757">description : String</text><text fill="#000000" font-family="sans-serif" font-size="14" lengthAdjust="spacing" textLength="82.9199" x="318.72" y="339.6726">code : TEXT</text><text fill="#000000" font-family="sans-serif" font-size="14" lengthAdjust="spacing" textLength="122.4521" x="318.72" y="355.9695">isPublic : boolean</text><text fill="#000000" font-family="sans-serif" font-size="14" lengthAdjust="spacing" textLength="52.9375" x="318.72" y="372.2664">elo : int</text><text fill="#000000" font-family="sans-serif" font-size="14" lengthAdjust="spacing" textLength="122.582" x="318.72" y="388.5632">deleted : boolean</text><text fill="#000000" font-family="sans-serif" font-size="14" lengthAdjust="spacing" textLength="178.5" x="318.72" y="404.8601">ownerId : Long «not null»</text><text fill="#000000" font-family="sans-serif" font-size="14" lengthAdjust="spacing" textLength="63.376" x="318.72" y="421.157">wins : int</text><text fill="#000000" font-family="sans-serif" font-size="14" lengthAdjust="spacing" textLength="74.8193" x="318.72" y="437.4539">losses : int</text><text fill="#000000" font-family="sans-serif" font-size="14" lengthAdjust="spacing" textLength="73.835" x="318.72" y="453.7507">draws : int</text><text fill="#000000" font-family="sans-serif" font-size="14" lengthAdjust="spacing" textLength="187.0039" x="318.72" y="470.0476">createdAt : LocalDateTime</text><text fill="#000000" font-family="sans-serif" font-size="14" lengthAdjust="spacing" textLength="191.584" x="318.72" y="486.3445">updatedAt : LocalDateTime</text></g><!--class Tournament--><g class="entity" data-qualified-name="Tournament" data-source-line="45" id="ent0005"><rect fill="#F1F1F1" height="145.7813" rx="2.5" ry="2.5" style="stroke:#181818;stroke-width:0.5;" width="199.0586" x="902.99" y="290.8269"/><ellipse cx="953.2478" cy="306.8269" fill="#ADD1B2" rx="11" ry="11" style="stroke:#181818;stroke-width:1;"/><path d="M957.3572,312.8269 L949.6384,312.8269 L949.6384,300.4363 L957.3572,300.4363 L957.3572,302.5925 L952.0916,302.5925 L952.0916,305.2644 L956.8572,305.2644 L956.8572,307.4206 L952.0916,307.4206 L952.0916,310.6706 L957.3572,310.6706 L957.3572,312.8269 Z " fill="#000000"/><text fill="#000000" font-family="sans-serif" font-size="14" lengthAdjust="spacing" textLength="90.043" x="973.7478" y="311.6736">tournaments</text><line style="stroke:#181818;stroke-width:0.5;" x1="903.99" x2="1101.0486" y1="322.8269" y2="322.8269"/><text fill="#000000" font-family="sans-serif" font-size="14" lengthAdjust="spacing" textLength="67.5186" x="908.99" y="339.822">*id : Long</text><line style="stroke:#181818;stroke-width:1;" x1="903.99" x2="1101.0486" y1="347.1238" y2="347.1238"/><text fill="#000000" font-family="sans-serif" font-size="14" lengthAdjust="spacing" textLength="95.1016" x="908.99" y="364.1189">name : String</text><text fill="#000000" font-family="sans-serif" font-size="14" lengthAdjust="spacing" textLength="133.2393" x="908.99" y="380.4157">description : String</text><text fill="#000000" font-family="sans-serif" font-size="14" lengthAdjust="spacing" textLength="187.0586" x="908.99" y="396.7126">status : TournamentStatus</text><text fill="#000000" font-family="sans-serif" font-size="14" lengthAdjust="spacing" textLength="149.6797" x="908.99" y="413.0095">startDate : LocalDate</text><text fill="#000000" font-family="sans-serif" font-size="14" lengthAdjust="spacing" textLength="64.4014" x="908.99" y="429.3064">slots : int</text></g><!--class Match--><g class="entity" data-qualified-name="Match" data-source-line="55" id="ent0006"><rect fill="#F1F1F1" height="129.4844" rx="2.5" ry="2.5" style="stroke:#181818;stroke-width:0.5;" width="205.8193" x="655.61" y="44.2969"/><ellipse cx="724.1779" cy="60.2969" fill="#ADD1B2" rx="11" ry="11" style="stroke:#181818;stroke-width:1;"/><path d="M728.2872,66.2969 L720.5685,66.2969 L720.5685,53.9063 L728.2872,53.9063 L728.2872,56.0625 L723.0216,56.0625 L723.0216,58.7344 L727.7872,58.7344 L727.7872,60.8906 L723.0216,60.8906 L723.0216,64.1406 L728.2872,64.1406 L728.2872,66.2969 Z " fill="#000000"/><text fill="#000000" font-family="sans-serif" font-size="14" lengthAdjust="spacing" textLength="60.1836" x="744.6779" y="65.1436">matches</text><line style="stroke:#181818;stroke-width:0.5;" x1="656.61" x2="860.4293" y1="76.2969" y2="76.2969"/><text fill="#000000" font-family="sans-serif" font-size="14" lengthAdjust="spacing" textLength="67.5186" x="661.61" y="93.292">*id : Long</text><line style="stroke:#181818;stroke-width:1;" x1="656.61" x2="860.4293" y1="100.5938" y2="100.5938"/><text fill="#000000" font-family="sans-serif" font-size="14" lengthAdjust="spacing" textLength="103.2363" x="661.61" y="117.5889">bot1Score : int</text><text fill="#000000" font-family="sans-serif" font-size="14" lengthAdjust="spacing" textLength="103.2363" x="661.61" y="133.8857">bot2Score : int</text><text fill="#000000" font-family="sans-serif" font-size="14" lengthAdjust="spacing" textLength="193.8193" x="661.61" y="150.1826">timestamp : LocalDateTime</text><text fill="#000000" font-family="sans-serif" font-size="14" lengthAdjust="spacing" textLength="95.3135" x="661.61" y="166.4795">result : String</text></g><!--class Round--><g class="entity" data-qualified-name="Round" data-source-line="64" id="ent0007"><rect fill="#F1F1F1" height="129.4844" rx="2.5" ry="2.5" style="stroke:#181818;stroke-width:0.5;" width="141.0625" x="1239.98" y="44.2969"/><ellipse cx="1282.3465" cy="60.2969" fill="#ADD1B2" rx="11" ry="11" style="stroke:#181818;stroke-width:1;"/><path d="M1286.4559,66.2969 L1278.7371,66.2969 L1278.7371,53.9063 L1286.4559,53.9063 L1286.4559,56.0625 L1281.1903,56.0625 L1281.1903,58.7344 L1285.9559,58.7344 L1285.9559,60.8906 L1281.1903,60.8906 L1281.1903,64.1406 L1286.4559,64.1406 L1286.4559,66.2969 Z " fill="#000000"/><text fill="#000000" font-family="sans-serif" font-size="14" lengthAdjust="spacing" textLength="48.248" x="1302.4279" y="65.1436">rounds</text><line style="stroke:#181818;stroke-width:0.5;" x1="1240.98" x2="1380.0425" y1="76.2969" y2="76.2969"/><text fill="#000000" font-family="sans-serif" font-size="14" lengthAdjust="spacing" textLength="67.5186" x="1245.98" y="93.292">*id : Long</text><line style="stroke:#181818;stroke-width:1;" x1="1240.98" x2="1380.0425" y1="100.5938" y2="100.5938"/><text fill="#000000" font-family="sans-serif" font-size="14" lengthAdjust="spacing" textLength="129.0625" x="1245.98" y="117.5889">roundNumber : int</text><text fill="#000000" font-family="sans-serif" font-size="14" lengthAdjust="spacing" textLength="124.79" x="1245.98" y="133.8857">bot1Move : String</text><text fill="#000000" font-family="sans-serif" font-size="14" lengthAdjust="spacing" textLength="124.79" x="1245.98" y="150.1826">bot2Move : String</text><text fill="#000000" font-family="sans-serif" font-size="14" lengthAdjust="spacing" textLength="95.3135" x="1245.98" y="166.4795">result : String</text></g><!--class UserRoles--><g class="entity" data-qualified-name="UserRoles" data-source-line="73" id="ent0008"><rect fill="#F1F1F1" height="72.5938" rx="2.5" ry="2.5" style="stroke:#181818;stroke-width:0.5;" width="117.0547" x="82.99" y="812.3169"/><ellipse cx="104.0202" cy="828.3169" fill="#ADD1B2" rx="11" ry="11" style="stroke:#181818;stroke-width:1;"/><path d="M108.1296,834.3169 L100.4108,834.3169 L100.4108,821.9263 L108.1296,821.9263 L108.1296,824.0825 L102.8639,824.0825 L102.8639,826.7544 L107.6296,826.7544 L107.6296,828.9106 L102.8639,828.9106 L102.8639,832.1606 L108.1296,832.1606 L108.1296,834.3169 Z " fill="#000000"/><text fill="#000000" font-family="sans-serif" font-size="14" lengthAdjust="spacing" textLength="71.6543" x="119.3602" y="833.1636">user_roles</text><line style="stroke:#181818;stroke-width:0.5;" x1="83.99" x2="199.0447" y1="844.3169" y2="844.3169"/><text fill="#000000" font-family="sans-serif" font-size="14" lengthAdjust="spacing" textLength="105.0547" x="88.99" y="861.312">*user_id : Long</text><text fill="#000000" font-family="sans-serif" font-size="14" lengthAdjust="spacing" textLength="89.2227" x="88.99" y="877.6089">*role : String</text></g><!--class BotTags--><g class="entity" data-qualified-name="BotTags" data-source-line="78" id="ent0009"><rect fill="#F1F1F1" height="72.5938" rx="2.5" ry="2.5" style="stroke:#181818;stroke-width:0.5;" width="109.46" x="485.79" y="606.5369"/><ellipse cx="508.5613" cy="622.5369" fill="#ADD1B2" rx="11" ry="11" style="stroke:#181818;stroke-width:1;"/><path d="M512.6707,628.5369 L504.9519,628.5369 L504.9519,616.1462 L512.6707,616.1462 L512.6707,618.3025 L507.405,618.3025 L507.405,620.9744 L512.1707,620.9744 L512.1707,623.1306 L507.405,623.1306 L507.405,626.3806 L512.6707,626.3806 L512.6707,628.5369 Z " fill="#000000"/><text fill="#000000" font-family="sans-serif" font-size="14" lengthAdjust="spacing" textLength="60.1904" x="524.2882" y="627.3836">bot_tags</text><line style="stroke:#181818;stroke-width:0.5;" x1="486.79" x2="594.25" y1="638.5369" y2="638.5369"/><text fill="#000000" font-family="sans-serif" font-size="14" lengthAdjust="spacing" textLength="97.46" x="491.79" y="655.532">*bot_id : Long</text><text fill="#000000" font-family="sans-serif" font-size="14" lengthAdjust="spacing" textLength="85.3535" x="491.79" y="671.8289">*tag : String</text></g><!--class BotEloHistory--><g class="entity" data-qualified-name="BotEloHistory" data-source-line="83" id="ent0010"><rect fill="#F1F1F1" height="96.8906" rx="2.5" ry="2.5" style="stroke:#181818;stroke-width:0.5;" width="139.7227" x="310.65" y="594.3869"/><ellipse cx="326.3522" cy="610.3869" fill="#ADD1B2" rx="11" ry="11" style="stroke:#181818;stroke-width:1;"/><path d="M330.4616,616.3869 L322.7429,616.3869 L322.7429,603.9963 L330.4616,603.9963 L330.4616,606.1525 L325.196,606.1525 L325.196,608.8244 L329.9616,608.8244 L329.9616,610.9806 L325.196,610.9806 L325.196,614.2306 L330.4616,614.2306 L330.4616,616.3869 Z " fill="#000000"/><text fill="#000000" font-family="sans-serif" font-size="14" lengthAdjust="spacing" textLength="106.1621" x="340.5083" y="615.2336">bot_elo_history</text><line style="stroke:#181818;stroke-width:0.5;" x1="311.65" x2="449.3727" y1="626.3869" y2="626.3869"/><text fill="#000000" font-family="sans-serif" font-size="14" lengthAdjust="spacing" textLength="97.46" x="316.65" y="643.382">*bot_id : Long</text><text fill="#000000" font-family="sans-serif" font-size="14" lengthAdjust="spacing" textLength="127.7227" x="316.65" y="659.6789">*match_order : int</text><line style="stroke:#181818;stroke-width:1;" x1="311.65" x2="449.3727" y1="666.9806" y2="666.9806"/><text fill="#000000" font-family="sans-serif" font-size="14" lengthAdjust="spacing" textLength="98.1777" x="316.65" y="683.9757">elo_value : int</text></g><!--class TournamentParticipants--><g class="entity" data-qualified-name="TournamentParticipants" data-source-line="90" id="ent0011"><rect fill="#F1F1F1" height="72.5938" rx="2.5" ry="2.5" style="stroke:#181818;stroke-width:0.5;" width="239.418" x="701.81" y="606.5369"/><ellipse cx="728.9894" cy="622.5369" fill="#ADD1B2" rx="11" ry="11" style="stroke:#181818;stroke-width:1;"/><path d="M733.0988,628.5369 L725.3801,628.5369 L725.3801,616.1462 L733.0988,616.1462 L733.0988,618.3025 L727.8332,618.3025 L727.8332,620.9744 L732.5988,620.9744 L732.5988,623.1306 L727.8332,623.1306 L727.8332,626.3806 L733.0988,626.3806 L733.0988,628.5369 Z " fill="#000000"/><text fill="#000000" font-family="sans-serif" font-size="14" lengthAdjust="spacing" textLength="180.3525" x="745.696" y="627.3836">tournaments_participants</text><line style="stroke:#181818;stroke-width:0.5;" x1="702.81" x2="940.228" y1="638.5369" y2="638.5369"/><text fill="#000000" font-family="sans-serif" font-size="14" lengthAdjust="spacing" textLength="157.2676" x="707.81" y="655.532">*tournament_id : Long</text><text fill="#000000" font-family="sans-serif" font-size="14" lengthAdjust="spacing" textLength="227.418" x="707.81" y="671.8289">*participants_id : Long «unique»</text></g><!--class TournamentMatches--><g class="entity" data-qualified-name="TournamentMatches" data-source-line="95" id="ent0012"><rect fill="#F1F1F1" height="72.5938" rx="2.5" ry="2.5" style="stroke:#181818;stroke-width:0.5;" width="216.292" x="1047.37" y="606.5369"/><ellipse cx="1074.5494" cy="622.5369" fill="#ADD1B2" rx="11" ry="11" style="stroke:#181818;stroke-width:1;"/><path d="M1078.6588,628.5369 L1070.9401,628.5369 L1070.9401,616.1462 L1078.6588,616.1462 L1078.6588,618.3025 L1073.3932,618.3025 L1073.3932,620.9744 L1078.1588,620.9744 L1078.1588,623.1306 L1073.3932,623.1306 L1073.3932,626.3806 L1078.6588,626.3806 L1078.6588,628.5369 Z " fill="#000000"/><text fill="#000000" font-family="sans-serif" font-size="14" lengthAdjust="spacing" textLength="157.2266" x="1091.256" y="627.3836">tournaments_matches</text><line style="stroke:#181818;stroke-width:0.5;" x1="1048.37" x2="1262.662" y1="638.5369" y2="638.5369"/><text fill="#000000" font-family="sans-serif" font-size="14" lengthAdjust="spacing" textLength="157.2676" x="1053.37" y="655.532">*tournament_id : Long</text><text fill="#000000" font-family="sans-serif" font-size="14" lengthAdjust="spacing" textLength="204.292" x="1053.37" y="671.8289">*matches_id : Long «unique»</text></g><!--class MatchRounds--><g class="entity" data-qualified-name="MatchRounds" data-source-line="100" id="ent0013"><rect fill="#F1F1F1" height="72.5938" rx="2.5" ry="2.5" style="stroke:#181818;stroke-width:0.5;" width="204.3564" x="1208.34" y="327.4169"/><ellipse cx="1248.9562" cy="343.4169" fill="#ADD1B2" rx="11" ry="11" style="stroke:#181818;stroke-width:1;"/><path d="M1253.0655,349.4169 L1245.3468,349.4169 L1245.3468,337.0263 L1253.0655,337.0263 L1253.0655,339.1825 L1247.7999,339.1825 L1247.7999,341.8544 L1252.5655,341.8544 L1252.5655,344.0106 L1247.7999,344.0106 L1247.7999,347.2606 L1253.0655,347.2606 L1253.0655,349.4169 Z " fill="#000000"/><text fill="#000000" font-family="sans-serif" font-size="14" lengthAdjust="spacing" textLength="115.4316" x="1268.6486" y="348.2636">matches_rounds</text><line style="stroke:#181818;stroke-width:0.5;" x1="1209.34" x2="1411.6964" y1="359.4169" y2="359.4169"/><text fill="#000000" font-family="sans-serif" font-size="14" lengthAdjust="spacing" textLength="118.7949" x="1214.34" y="376.412">*match_id : Long</text><text fill="#000000" font-family="sans-serif" font-size="14" lengthAdjust="spacing" textLength="192.3564" x="1214.34" y="392.7089">*rounds_id : Long «unique»</text></g><g class="entity" data-qualified-name="GMN29" data-source-line="128" id="ent0030"><path d="M550.87,336.0169 L550.87,360.2069 L516.45,364.2069 L550.87,368.2069 L550.87,391.4153 A0,0 0 0 0 550.87,391.4153 L868.1659,391.4153 A0,0 0 0 0 868.1659,391.4153 L868.1659,346.0169 L858.1659,336.0169 L550.87,336.0169 A0,0 0 0 0 550.87,336.0169" fill="#FEFFDD" style="stroke:#181818;stroke-width:0.5;"/><path d="M858.1659,336.0169 L858.1659,346.0169 L868.1659,346.0169 L858.1659,336.0169" fill="#FEFFDD" style="stroke:#181818;stroke-width:0.5;"/><text fill="#000000" font-family="sans-serif" font-size="13" lengthAdjust="spacing" textLength="268.8677" x="556.87" y="353.0838">En el código, la propiedad del propietario</text><text fill="#000000" font-family="sans-serif" font-size="13" lengthAdjust="spacing" textLength="296.2959" x="556.87" y="368.2166">es un Long (`ownerId`) y no una relación JPA.</text><text fill="#000000" font-family="sans-serif" font-size="13" lengthAdjust="spacing" textLength="277.9512" x="556.87" y="383.3494">El enlace con User representa la FK lógica.</text></g><!--link User to Image--><g class="link" data-entity-1="ent0002" data-entity-2="ent0003" data-link-type="association" data-source-line="105" id="lnk14"><path codeLine="105" d="M284.39,712.2069 C414.23,712.2069 583.05,712.2069 583.05,712.2069 C583.05,712.2069 583.05,739.1769 583.05,776.5569" fill="none" id="User-Image" style="stroke:#181818;stroke-width:1;"/><line style="stroke:#181818;stroke-width:1;" x1="280.39" x2="280.39" y1="716.2069" y2="708.2069"/><line style="stroke:#181818;stroke-width:1;" x1="283.39" x2="283.39" y1="716.2069" y2="708.2069"/><line style="stroke:#181818;stroke-width:1;" x1="284.39" x2="276.39" y1="712.2069" y2="712.2069"/><line style="stroke:#181818;stroke-width:1;" x1="583.05" x2="583.05" y1="780.5569" y2="791.5569"/><ellipse cx="583.05" cy="780.5569" fill="none" rx="4" ry="4" style="stroke:#181818;stroke-width:1;"/><line style="stroke:#181818;stroke-width:1;" x1="587.05" x2="579.05" y1="787.5569" y2="787.5569"/><text fill="#000000" font-family="sans-serif" font-size="13" lengthAdjust="spacing" textLength="40.4917" x="470.39" y="708.2738">image</text></g><!--link Bot to Image--><g class="link" data-entity-1="ent0004" data-entity-2="ent0003" data-link-type="association" data-source-line="106" id="lnk15"><path codeLine="106" d="M468.08,502.0869 C468.08,631.3469 468.08,802.2069 468.08,802.2069 C468.08,802.2069 506.66,802.2069 555.42,802.2069" fill="none" id="Bot-Image" style="stroke:#181818;stroke-width:1;"/><line style="stroke:#181818;stroke-width:1;" x1="464.08" x2="472.08" y1="498.0869" y2="498.0869"/><line style="stroke:#181818;stroke-width:1;" x1="464.08" x2="472.08" y1="501.0869" y2="501.0869"/><line style="stroke:#181818;stroke-width:1;" x1="468.08" x2="468.08" y1="502.0869" y2="494.0869"/><line style="stroke:#181818;stroke-width:1;" x1="559.42" x2="570.42" y1="802.2069" y2="802.2069"/><ellipse cx="559.42" cy="802.2069" fill="none" rx="4" ry="4" style="stroke:#181818;stroke-width:1;"/><line style="stroke:#181818;stroke-width:1;" x1="566.42" x2="566.42" y1="798.2069" y2="806.2069"/><text fill="#000000" font-family="sans-serif" font-size="13" lengthAdjust="spacing" textLength="40.4917" x="427.08" y="712.3838">image</text></g><!--link Tournament to Image--><g class="link" data-entity-1="ent0005" data-entity-2="ent0003" data-link-type="association" data-source-line="107" id="lnk16"><path codeLine="107" d="M894.5,414.2069 C789.82,414.2069 648.53,414.2069 648.53,414.2069 C648.53,414.2069 648.53,659.0669 648.53,776.8269" fill="none" id="Tournament-Image" style="stroke:#181818;stroke-width:1;"/><line style="stroke:#181818;stroke-width:1;" x1="898.5" x2="898.5" y1="410.2069" y2="418.2069"/><line style="stroke:#181818;stroke-width:1;" x1="895.5" x2="895.5" y1="410.2069" y2="418.2069"/><line style="stroke:#181818;stroke-width:1;" x1="894.5" x2="902.5" y1="414.2069" y2="414.2069"/><line style="stroke:#181818;stroke-width:1;" x1="648.53" x2="648.53" y1="780.8269" y2="791.8269"/><ellipse cx="648.53" cy="780.8269" fill="none" rx="4" ry="4" style="stroke:#181818;stroke-width:1;"/><line style="stroke:#181818;stroke-width:1;" x1="652.53" x2="644.53" y1="787.8269" y2="787.8269"/><text fill="#000000" font-family="sans-serif" font-size="13" lengthAdjust="spacing" textLength="40.4917" x="607.53" y="489.0938">image</text></g><!--link Bot to User--><g class="link" data-entity-1="ent0004" data-entity-2="ent0002" data-link-type="crowfoot" data-source-line="109" id="lnk17"><path codeLine="109" d="M358.61,512.0269 C358.61,555.0869 358.61,574.2069 358.61,574.2069 C358.61,574.2069 328.51,574.2069 284.23,574.2069" fill="none" id="Bot-User" style="stroke:#181818;stroke-width:1;"/><line style="stroke:#181818;stroke-width:1;" x1="358.61" x2="352.61" y1="502.0269" y2="494.0269"/><line style="stroke:#181818;stroke-width:1;" x1="358.61" x2="364.61" y1="502.0269" y2="494.0269"/><line style="stroke:#181818;stroke-width:1;" x1="358.61" x2="358.61" y1="502.0269" y2="494.0269"/><ellipse cx="358.61" cy="508.0269" fill="none" rx="4" ry="4" style="stroke:#181818;stroke-width:1;"/><line style="stroke:#181818;stroke-width:1;" x1="280.23" x2="280.23" y1="578.2069" y2="570.2069"/><line style="stroke:#181818;stroke-width:1;" x1="283.23" x2="283.23" y1="578.2069" y2="570.2069"/><line style="stroke:#181818;stroke-width:1;" x1="284.23" x2="276.23" y1="574.2069" y2="574.2069"/><text fill="#000000" font-family="sans-serif" font-size="13" lengthAdjust="spacing" textLength="52.2539" x="304.51" y="570.2738">ownerId</text></g><!--link Match to Bot--><g class="link" data-entity-1="ent0006" data-entity-2="ent0004" data-link-type="crowfoot" data-source-line="111" id="lnk18"><path codeLine="111" d="M724.21,191.9569 C724.21,230.2169 724.21,253.2069 724.21,253.2069 C724.21,253.2069 614.99,253.2069 524.78,253.2069" fill="none" id="Match-Bot" style="stroke:#181818;stroke-width:1;"/><line style="stroke:#181818;stroke-width:1;" x1="724.21" x2="718.21" y1="181.9569" y2="173.9569"/><line style="stroke:#181818;stroke-width:1;" x1="724.21" x2="730.21" y1="181.9569" y2="173.9569"/><line style="stroke:#181818;stroke-width:1;" x1="724.21" x2="724.21" y1="181.9569" y2="173.9569"/><ellipse cx="724.21" cy="187.9569" fill="none" rx="4" ry="4" style="stroke:#181818;stroke-width:1;"/><line style="stroke:#181818;stroke-width:1;" x1="520.78" x2="520.78" y1="257.2069" y2="249.2069"/><line style="stroke:#181818;stroke-width:1;" x1="523.78" x2="523.78" y1="257.2069" y2="249.2069"/><line style="stroke:#181818;stroke-width:1;" x1="524.78" x2="516.78" y1="253.2069" y2="253.2069"/><text fill="#000000" font-family="sans-serif" font-size="13" lengthAdjust="spacing" textLength="29.5737" x="630.12" y="249.2738">bot1</text></g><!--link Match to Bot--><g class="link" data-entity-1="ent0006" data-entity-2="ent0004" data-link-type="crowfoot" data-source-line="112" id="lnk19"><path codeLine="112" d="M792.82,191.9969 C792.82,237.4969 792.82,272.2069 792.82,272.2069 C792.82,272.2069 636.44,272.2069 524.39,272.2069" fill="none" id="Match-Bot-1" style="stroke:#181818;stroke-width:1;"/><line style="stroke:#181818;stroke-width:1;" x1="792.82" x2="786.82" y1="181.9969" y2="173.9969"/><line style="stroke:#181818;stroke-width:1;" x1="792.82" x2="798.82" y1="181.9969" y2="173.9969"/><line style="stroke:#181818;stroke-width:1;" x1="792.82" x2="792.82" y1="181.9969" y2="173.9969"/><ellipse cx="792.82" cy="187.9969" fill="none" rx="4" ry="4" style="stroke:#181818;stroke-width:1;"/><line style="stroke:#181818;stroke-width:1;" x1="520.39" x2="520.39" y1="276.2069" y2="268.2069"/><line style="stroke:#181818;stroke-width:1;" x1="523.39" x2="523.39" y1="276.2069" y2="268.2069"/><line style="stroke:#181818;stroke-width:1;" x1="524.39" x2="516.39" y1="272.2069" y2="272.2069"/><text fill="#000000" font-family="sans-serif" font-size="13" lengthAdjust="spacing" textLength="29.5737" x="673.71" y="268.2738">bot2</text></g><!--link User to UserRoles--><g class="link" data-entity-1="ent0002" data-entity-2="ent0008" data-link-type="crowfoot" data-source-line="114" id="lnk20"><path codeLine="114" d="M141.52,740.4969 C141.52,768.4369 141.52,771.7069 141.52,793.8669" fill="none" id="User-UserRoles" style="stroke:#181818;stroke-width:1;"/><line style="stroke:#181818;stroke-width:1;" x1="137.52" x2="145.52" y1="736.4969" y2="736.4969"/><line style="stroke:#181818;stroke-width:1;" x1="137.52" x2="145.52" y1="739.4969" y2="739.4969"/><line style="stroke:#181818;stroke-width:1;" x1="141.52" x2="141.52" y1="740.4969" y2="732.4969"/><line style="stroke:#181818;stroke-width:1;" x1="141.52" x2="147.52" y1="803.8669" y2="811.8669"/><line style="stroke:#181818;stroke-width:1;" x1="141.52" x2="135.52" y1="803.8669" y2="811.8669"/><line style="stroke:#181818;stroke-width:1;" x1="141.52" x2="141.52" y1="803.8669" y2="811.8669"/><ellipse cx="141.52" cy="797.8669" fill="none" rx="4" ry="4" style="stroke:#181818;stroke-width:1;"/><text fill="#000000" font-family="sans-serif" font-size="13" lengthAdjust="spacing" textLength="31.6812" x="109.52" y="768.2438">roles</text></g><!--link Bot to BotTags--><g class="link" data-entity-1="ent0004" data-entity-2="ent0009" data-link-type="crowfoot" data-source-line="115" id="lnk21"><path codeLine="115" d="M501.05,501.8769 C501.05,542.9469 501.05,559.1169 501.05,588.0469" fill="none" id="Bot-BotTags" style="stroke:#181818;stroke-width:1;"/><line style="stroke:#181818;stroke-width:1;" x1="497.05" x2="505.05" y1="497.8769" y2="497.8769"/><line style="stroke:#181818;stroke-width:1;" x1="497.05" x2="505.05" y1="500.8769" y2="500.8769"/><line style="stroke:#181818;stroke-width:1;" x1="501.05" x2="501.05" y1="501.8769" y2="493.8769"/><line style="stroke:#181818;stroke-width:1;" x1="501.05" x2="507.05" y1="598.0469" y2="606.0469"/><line style="stroke:#181818;stroke-width:1;" x1="501.05" x2="495.05" y1="598.0469" y2="606.0469"/><line style="stroke:#181818;stroke-width:1;" x1="501.05" x2="501.05" y1="598.0469" y2="606.0469"/><ellipse cx="501.05" cy="592.0469" fill="none" rx="4" ry="4" style="stroke:#181818;stroke-width:1;"/><text fill="#000000" font-family="sans-serif" font-size="13" lengthAdjust="spacing" textLength="28.0884" x="472.05" y="546.0338">tags</text></g><!--link Bot to BotEloHistory--><g class="link" data-entity-1="ent0004" data-entity-2="ent0010" data-link-type="crowfoot" data-source-line="116" id="lnk22"><path codeLine="116" d="M404.49,501.8769 C404.49,537.5469 404.49,548.0469 404.49,575.9869" fill="none" id="Bot-BotEloHistory" style="stroke:#181818;stroke-width:1;"/><line style="stroke:#181818;stroke-width:1;" x1="400.49" x2="408.49" y1="497.8769" y2="497.8769"/><line style="stroke:#181818;stroke-width:1;" x1="400.49" x2="408.49" y1="500.8769" y2="500.8769"/><line style="stroke:#181818;stroke-width:1;" x1="404.49" x2="404.49" y1="501.8769" y2="493.8769"/><line style="stroke:#181818;stroke-width:1;" x1="404.49" x2="410.49" y1="585.9869" y2="593.9869"/><line style="stroke:#181818;stroke-width:1;" x1="404.49" x2="398.49" y1="585.9869" y2="593.9869"/><line style="stroke:#181818;stroke-width:1;" x1="404.49" x2="404.49" y1="585.9869" y2="593.9869"/><ellipse cx="404.49" cy="579.9869" fill="none" rx="4" ry="4" style="stroke:#181818;stroke-width:1;"/><text fill="#000000" font-family="sans-serif" font-size="13" lengthAdjust="spacing" textLength="65.8125" x="338.49" y="539.9938">eloHistory</text></g><!--link Tournament to TournamentParticipants--><g class="link" data-entity-1="ent0005" data-entity-2="ent0011" data-link-type="crowfoot" data-source-line="118" id="lnk23"><path codeLine="118" d="M922.11,445.0469 C922.11,499.4769 922.11,545.4069 922.11,588.2169" fill="none" id="Tournament-TournamentParticipants" style="stroke:#181818;stroke-width:1;"/><line style="stroke:#181818;stroke-width:1;" x1="918.11" x2="926.11" y1="441.0469" y2="441.0469"/><line style="stroke:#181818;stroke-width:1;" x1="918.11" x2="926.11" y1="444.0469" y2="444.0469"/><line style="stroke:#181818;stroke-width:1;" x1="922.11" x2="922.11" y1="445.0469" y2="437.0469"/><line style="stroke:#181818;stroke-width:1;" x1="922.11" x2="928.11" y1="598.2169" y2="606.2169"/><line style="stroke:#181818;stroke-width:1;" x1="922.11" x2="916.11" y1="598.2169" y2="606.2169"/><line style="stroke:#181818;stroke-width:1;" x1="922.11" x2="922.11" y1="598.2169" y2="606.2169"/><ellipse cx="922.11" cy="592.2169" fill="none" rx="4" ry="4" style="stroke:#181818;stroke-width:1;"/><text fill="#000000" font-family="sans-serif" font-size="13" lengthAdjust="spacing" textLength="77.3589" x="844.11" y="517.7038">participants</text></g><!--link Bot to TournamentParticipants--><g class="link" data-entity-1="ent0004" data-entity-2="ent0011" data-link-type="crowfoot" data-source-line="119" id="lnk24"><path codeLine="119" d="M524.73,465.2069 C634.39,465.2069 784.99,465.2069 784.99,465.2069 C784.99,465.2069 784.99,536.4869 784.99,588.4569" fill="none" id="Bot-TournamentParticipants" style="stroke:#181818;stroke-width:1;"/><line style="stroke:#181818;stroke-width:1;" x1="520.73" x2="520.73" y1="469.2069" y2="461.2069"/><line style="stroke:#181818;stroke-width:1;" x1="523.73" x2="523.73" y1="469.2069" y2="461.2069"/><line style="stroke:#181818;stroke-width:1;" x1="524.73" x2="516.73" y1="465.2069" y2="465.2069"/><line style="stroke:#181818;stroke-width:1;" x1="784.99" x2="790.99" y1="598.4569" y2="606.4569"/><line style="stroke:#181818;stroke-width:1;" x1="784.99" x2="778.99" y1="598.4569" y2="606.4569"/><line style="stroke:#181818;stroke-width:1;" x1="784.99" x2="784.99" y1="598.4569" y2="606.4569"/><ellipse cx="784.99" cy="592.4569" fill="none" rx="4" ry="4" style="stroke:#181818;stroke-width:1;"/><text fill="#000000" font-family="sans-serif" font-size="13" lengthAdjust="spacing" textLength="77.1177" x="643.48" y="461.2738">participates</text></g><!--link Tournament to TournamentMatches--><g class="link" data-entity-1="ent0005" data-entity-2="ent0012" data-link-type="crowfoot" data-source-line="121" id="lnk25"><path codeLine="121" d="M1074.71,445.0469 C1074.71,499.4769 1074.71,545.4069 1074.71,588.2169" fill="none" id="Tournament-TournamentMatches" style="stroke:#181818;stroke-width:1;"/><line style="stroke:#181818;stroke-width:1;" x1="1070.71" x2="1078.71" y1="441.0469" y2="441.0469"/><line style="stroke:#181818;stroke-width:1;" x1="1070.71" x2="1078.71" y1="444.0469" y2="444.0469"/><line style="stroke:#181818;stroke-width:1;" x1="1074.71" x2="1074.71" y1="445.0469" y2="437.0469"/><line style="stroke:#181818;stroke-width:1;" x1="1074.71" x2="1080.71" y1="598.2169" y2="606.2169"/><line style="stroke:#181818;stroke-width:1;" x1="1074.71" x2="1068.71" y1="598.2169" y2="606.2169"/><line style="stroke:#181818;stroke-width:1;" x1="1074.71" x2="1074.71" y1="598.2169" y2="606.2169"/><ellipse cx="1074.71" cy="592.2169" fill="none" rx="4" ry="4" style="stroke:#181818;stroke-width:1;"/><text fill="#000000" font-family="sans-serif" font-size="13" lengthAdjust="spacing" textLength="55.8848" x="1018.71" y="517.7038">matches</text></g><!--link Match to TournamentMatches--><g class="link" data-entity-1="ent0006" data-entity-2="ent0012" data-link-type="crowfoot" data-source-line="122" id="lnk26"><path codeLine="122" d="M869.7,131.2069 C987.24,131.2069 1155.19,131.2069 1155.19,131.2069 C1155.19,131.2069 1155.19,470.7269 1155.19,588.0369" fill="none" id="Match-TournamentMatches" style="stroke:#181818;stroke-width:1;"/><line style="stroke:#181818;stroke-width:1;" x1="865.7" x2="865.7" y1="135.2069" y2="127.2069"/><line style="stroke:#181818;stroke-width:1;" x1="868.7" x2="868.7" y1="135.2069" y2="127.2069"/><line style="stroke:#181818;stroke-width:1;" x1="869.7" x2="861.7" y1="131.2069" y2="131.2069"/><line style="stroke:#181818;stroke-width:1;" x1="1155.19" x2="1161.19" y1="598.0369" y2="606.0369"/><line style="stroke:#181818;stroke-width:1;" x1="1155.19" x2="1149.19" y1="598.0369" y2="606.0369"/><line style="stroke:#181818;stroke-width:1;" x1="1155.19" x2="1155.19" y1="598.0369" y2="606.0369"/><ellipse cx="1155.19" cy="592.0369" fill="none" rx="4" ry="4" style="stroke:#181818;stroke-width:1;"/><text fill="#000000" font-family="sans-serif" font-size="13" lengthAdjust="spacing" textLength="71.335" x="1083.19" y="217.9438">included in</text></g><!--link Match to MatchRounds--><g class="link" data-entity-1="ent0006" data-entity-2="ent0013" data-link-type="crowfoot" data-source-line="124" id="lnk27"><path codeLine="124" d="M869.86,88.2069 C1007.04,88.2069 1224.16,88.2069 1224.16,88.2069 C1224.16,88.2069 1224.16,234.1869 1224.16,309.1269" fill="none" id="Match-MatchRounds" style="stroke:#181818;stroke-width:1;"/><line style="stroke:#181818;stroke-width:1;" x1="865.86" x2="865.86" y1="92.2069" y2="84.2069"/><line style="stroke:#181818;stroke-width:1;" x1="868.86" x2="868.86" y1="92.2069" y2="84.2069"/><line style="stroke:#181818;stroke-width:1;" x1="869.86" x2="861.86" y1="88.2069" y2="88.2069"/><line style="stroke:#181818;stroke-width:1;" x1="1224.16" x2="1230.16" y1="319.1269" y2="327.1269"/><line style="stroke:#181818;stroke-width:1;" x1="1224.16" x2="1218.16" y1="319.1269" y2="327.1269"/><line style="stroke:#181818;stroke-width:1;" x1="1224.16" x2="1224.16" y1="319.1269" y2="327.1269"/><ellipse cx="1224.16" cy="313.1269" fill="none" rx="4" ry="4" style="stroke:#181818;stroke-width:1;"/><text fill="#000000" font-family="sans-serif" font-size="13" lengthAdjust="spacing" textLength="44.8018" x="1117.47" y="84.2738">rounds</text></g><!--link Round to MatchRounds--><g class="link" data-entity-1="ent0007" data-entity-2="ent0013" data-link-type="crowfoot" data-source-line="125" id="lnk28"><path codeLine="125" d="M1310.52,181.9669 C1310.52,230.5969 1310.52,269.3669 1310.52,309.2669" fill="none" id="Round-MatchRounds" style="stroke:#181818;stroke-width:1;"/><line style="stroke:#181818;stroke-width:1;" x1="1306.52" x2="1314.52" y1="177.9669" y2="177.9669"/><line style="stroke:#181818;stroke-width:1;" x1="1306.52" x2="1314.52" y1="180.9669" y2="180.9669"/><line style="stroke:#181818;stroke-width:1;" x1="1310.52" x2="1310.52" y1="181.9669" y2="173.9669"/><line style="stroke:#181818;stroke-width:1;" x1="1310.52" x2="1316.52" y1="319.2669" y2="327.2669"/><line style="stroke:#181818;stroke-width:1;" x1="1310.52" x2="1304.52" y1="319.2669" y2="327.2669"/><line style="stroke:#181818;stroke-width:1;" x1="1310.52" x2="1310.52" y1="319.2669" y2="327.2669"/><ellipse cx="1310.52" cy="313.2669" fill="none" rx="4" ry="4" style="stroke:#181818;stroke-width:1;"/><text fill="#000000" font-family="sans-serif" font-size="13" lengthAdjust="spacing" textLength="71.335" x="1238.52" y="246.6838">included in</text></g><?plantuml-src fLPVJzim47_Ffx1usX15WyS88O76DBOnLRIJ9arJSPEZjN3ipBvGTPHFnKVWY-qkIHEdRSh3Nbhxxdo_-_FpENELWiW0vpRrqPmt7i61nMKEFl8FokJIoKmaMdf_WUZKj42uJgmPgRyWFWGcMXdWOy8wSXT5g52362NAU-ky66gG7iH0N1bKgKp12qAxP1dzVvHeVHG1wN0f3WeFpXy8wSKFMecdI8X3eL8HYs_Mp6Wt6D0FMncP0Ob759cPYREpmgW_1Hm9Or6OGklpSpA4J2hzfbLEAIwiInj3aYKE949wWILq8ZK52cEL0UciB70-TFQHokR2GrDjamTWFrDhAMr3iXGq8F3fBK_FRTugapEe4h_cPL_czqf39tCErHeaFsDkGI1E9KgEP8dmwtU8DRLO8LrI4NfmDZ6eQubJEIfhkj0fcuslVevff_omc6gLTF87RMcl33QrwDR7BWouwpK-jQZJceKolZckhVVGRbCd5-rkNyEAFEtH1ML1MvIaCdLrnit-FulaKMB1WROUHwMeqZdS90VBDJMfpYs8CPEOp6kUtF2wBpJgySaeiGwQ-f3aj2j1AW3XP_cEYZdmXSOsYo06PmkJLY7Syh8lXDBkUv5DoplI175oOnyxLUF0DcLxuFdkJnonfnqJjxohmoZLOIo7WertkYBa2SfPSnd6jAxTiAhhXGnxdH379tFbqRhbsjULjfyhIQ_7ifaJcZj1WShAiRj7gGlO9a10qWbDNrI9okKsOuU1giPlJsw44RffLSsif6lOWn-IiOM-gQHleTQ7tmHSsmMiAn5AwgrHgafkTfqDUlsNpyjgDHZOLJrngTRy7_5KtAa81i9EVNdosGu6grNrUiNhuHP5rMMjbMmNbtUXHtuQnlSKS3mkoUpR69yQtiRCq4rDmCAOQLLlegrSdlh84tVu4Rf_-m1If7kHrbo9rtIewx77K9b45ocz8Sf4NUkG5d7T_gYQK3ijEfxeqG7Xr6oEmjvpvOX3LuPA9fBNbrJDx97GKkJEvWhe6uPVidf70rnPlhHU5APYshkxkkztxyMIFZL88McaQPcernSZlWmlZjcz5c181lo0LuHnaDFaetmbettwAlJhoqmbyfYkGyhVBF0F?></g></svg>