<?plantuml 1.2026.2beta3?>
<svg xmlns="http://www.w3.org/2000/svg" xmlns:xlink="http://www.w3.org/1999/xlink" contentStyleType="text/css" data-diagram-type="CLASS" height="1651px" preserveAspectRatio="none" style="width:5647px;height:1651px;background:#FFFFFF;" version="1.1" viewBox="0 0 5647 1651" width="5647px" zoomAndPan="magnify"><title>Scissors Please - Diagrama de Capas</title><defs/><g><g class="title" data-source-line="9"><text fill="#000000" font-family="sans-serif" font-size="14" font-weight="bold" lengthAdjust="spacing" textLength="290.0283" x="2671.5921" y="34.9951">Scissors Please - Diagrama de Capas</text></g><!--cluster Presentacion--><g class="cluster" data-qualified-name="Presentacion" data-source-line="11" id="ent0002"><rect fill="none" height="392.59" rx="2.5" ry="2.5" style="stroke:#000000;stroke-width:1.5;" width="2075" x="7" y="68.2969"/><text fill="#000000" font-family="sans-serif" font-size="14" font-weight="bold" lengthAdjust="spacing" textLength="103.2773" x="992.8613" y="95.292">Presentacion</text></g><!--cluster Web--><g class="cluster" data-qualified-name="Presentacion.Web" data-source-line="12" id="ent0003"><rect fill="none" height="125.3" rx="2.5" ry="2.5" style="stroke:#000000;stroke-width:1.5;" width="2003" x="39" y="303.5869"/><text fill="#000000" font-family="sans-serif" font-size="14" font-weight="bold" lengthAdjust="spacing" textLength="34.959" x="1023.0205" y="330.582">Web</text></g><!--cluster API--><g class="cluster" data-qualified-name="Presentacion.API" data-source-line="23" id="ent0012"><rect fill="none" height="125.29" rx="2.5" ry="2.5" style="stroke:#000000;stroke-width:1.5;" width="578" x="39" y="143.2969"/><text fill="#000000" font-family="sans-serif" font-size="14" font-weight="bold" lengthAdjust="spacing" textLength="26.3047" x="314.8477" y="170.292">API</text></g><!--cluster Logica de Negocio--><g class="cluster" data-qualified-name="Logica de Negocio" data-source-line="31" id="ent0016"><rect fill="none" height="301.6" rx="2.5" ry="2.5" style="stroke:#000000;stroke-width:1.5;" width="1157" x="1691" y="500.8869"/><text fill="#000000" font-family="sans-serif" font-size="14" font-weight="bold" lengthAdjust="spacing" textLength="143.9375" x="2197.5313" y="527.882">Logica de Negocio</text></g><!--cluster Persistencia--><g class="cluster" data-qualified-name="Persistencia" data-source-line="41" id="ent0024"><rect fill="none" height="141.29" rx="2.5" ry="2.5" style="stroke:#000000;stroke-width:1.5;" width="1100" x="3417" y="842.4869"/><text fill="#000000" font-family="sans-serif" font-size="14" font-weight="bold" lengthAdjust="spacing" textLength="96.8242" x="3918.5879" y="869.482">Persistencia</text></g><!--cluster Dominio--><g class="cluster" data-qualified-name="Dominio" data-source-line="48" id="ent0029"><rect fill="none" height="622.19" rx="2.5" ry="2.5" style="stroke:#000000;stroke-width:1.5;" width="615" x="3879" y="1023.7769"/><text fill="#000000" font-family="sans-serif" font-size="14" font-weight="bold" lengthAdjust="spacing" textLength="65.0098" x="4153.9951" y="1050.772">Dominio</text></g><!--cluster Infraestructura--><g class="cluster" data-qualified-name="Infraestructura" data-source-line="58" id="ent0037"><rect fill="none" height="330.6" rx="2.5" ry="2.5" style="stroke:#000000;stroke-width:1.5;" width="1246" x="3278" y="303.5869"/><text fill="#000000" font-family="sans-serif" font-size="14" font-weight="bold" lengthAdjust="spacing" textLength="120.3193" x="3840.8403" y="330.582">Infraestructura</text></g><!--class GlobalControllerAdvice--><g class="entity" data-qualified-name="Presentacion.GlobalControllerAdvice" data-source-line="28" id="ent0015"><rect fill="#F1F1F1" height="50.2969" rx="2.5" ry="2.5" style="stroke:#181818;stroke-width:0.5;" width="216.7813" x="1131.61" y="202.2969"/><ellipse cx="1146.61" cy="227.4453" fill="#ADD1B2" rx="11" ry="11" style="stroke:#181818;stroke-width:1;"/><path d="M1149.5788,233.0859 Q1149.0006,233.3828 1148.36,233.5234 Q1147.7194,233.6797 1147.0163,233.6797 Q1144.5163,233.6797 1143.1881,232.0391 Q1141.8756,230.3828 1141.8756,227.2578 Q1141.8756,224.1328 1143.1881,222.4766 Q1144.5163,220.8203 1147.0163,220.8203 Q1147.7194,220.8203 1148.36,220.9766 Q1149.0163,221.1328 1149.5788,221.4297 L1149.5788,224.1484 Q1148.9538,223.5703 1148.36,223.3047 Q1147.7663,223.0234 1147.1413,223.0234 Q1145.7975,223.0234 1145.11,224.1016 Q1144.4225,225.1641 1144.4225,227.2578 Q1144.4225,229.3516 1145.11,230.4297 Q1145.7975,231.4922 1147.1413,231.4922 Q1147.7663,231.4922 1148.36,231.2266 Q1148.9538,230.9453 1149.5788,230.3672 L1149.5788,233.0859 Z " fill="#000000"/><text fill="#000000" font-family="sans-serif" font-size="14" lengthAdjust="spacing" textLength="160.7813" x="1172.61" y="232.292">GlobalControllerAdvice</text></g><!--class AdminController--><g class="entity" data-qualified-name="Presentacion.Web.AdminController" data-source-line="13" id="ent0004"><rect fill="#F1F1F1" height="50.2969" rx="2.5" ry="2.5" style="stroke:#181818;stroke-width:0.5;" width="170.0371" x="1595.98" y="362.5869"/><ellipse cx="1610.98" cy="387.7353" fill="#ADD1B2" rx="11" ry="11" style="stroke:#181818;stroke-width:1;"/><path d="M1613.9488,393.3759 Q1613.3706,393.6728 1612.73,393.8134 Q1612.0894,393.9697 1611.3863,393.9697 Q1608.8863,393.9697 1607.5581,392.3291 Q1606.2456,390.6728 1606.2456,387.5478 Q1606.2456,384.4228 1607.5581,382.7666 Q1608.8863,381.1103 1611.3863,381.1103 Q1612.0894,381.1103 1612.73,381.2666 Q1613.3863,381.4228 1613.9488,381.7197 L1613.9488,384.4384 Q1613.3238,383.8603 1612.73,383.5947 Q1612.1363,383.3134 1611.5113,383.3134 Q1610.1675,383.3134 1609.48,384.3916 Q1608.7925,385.4541 1608.7925,387.5478 Q1608.7925,389.6416 1609.48,390.7197 Q1610.1675,391.7822 1611.5113,391.7822 Q1612.1363,391.7822 1612.73,391.5166 Q1613.3238,391.2353 1613.9488,390.6572 L1613.9488,393.3759 Z " fill="#000000"/><text fill="#000000" font-family="sans-serif" font-size="14" lengthAdjust="spacing" textLength="114.0371" x="1636.98" y="392.582">AdminController</text></g><!--class AuthController--><g class="entity" data-qualified-name="Presentacion.Web.AuthController" data-source-line="14" id="ent0005"><rect fill="#F1F1F1" height="50.2969" rx="2.5" ry="2.5" style="stroke:#181818;stroke-width:0.5;" width="157.9854" x="55.01" y="362.5869"/><ellipse cx="70.01" cy="387.7353" fill="#ADD1B2" rx="11" ry="11" style="stroke:#181818;stroke-width:1;"/><path d="M72.9788,393.3759 Q72.4006,393.6728 71.76,393.8134 Q71.1194,393.9697 70.4163,393.9697 Q67.9163,393.9697 66.5881,392.3291 Q65.2756,390.6728 65.2756,387.5478 Q65.2756,384.4228 66.5881,382.7666 Q67.9163,381.1103 70.4163,381.1103 Q71.1194,381.1103 71.76,381.2666 Q72.4163,381.4228 72.9788,381.7197 L72.9788,384.4384 Q72.3538,383.8603 71.76,383.5947 Q71.1663,383.3134 70.5413,383.3134 Q69.1975,383.3134 68.51,384.3916 Q67.8225,385.4541 67.8225,387.5478 Q67.8225,389.6416 68.51,390.7197 Q69.1975,391.7822 70.5413,391.7822 Q71.1663,391.7822 71.76,391.5166 Q72.3538,391.2353 72.9788,390.6572 L72.9788,393.3759 Z " fill="#000000"/><text fill="#000000" font-family="sans-serif" font-size="14" lengthAdjust="spacing" textLength="101.9854" x="96.01" y="392.582">AuthController</text></g><!--class BotController--><g class="entity" data-qualified-name="Presentacion.Web.BotController" data-source-line="15" id="ent0006"><rect fill="#F1F1F1" height="50.2969" rx="2.5" ry="2.5" style="stroke:#181818;stroke-width:0.5;" width="148.832" x="807.58" y="362.5869"/><ellipse cx="822.58" cy="387.7353" fill="#ADD1B2" rx="11" ry="11" style="stroke:#181818;stroke-width:1;"/><path d="M825.5488,393.3759 Q824.9706,393.6728 824.33,393.8134 Q823.6894,393.9697 822.9863,393.9697 Q820.4863,393.9697 819.1581,392.3291 Q817.8456,390.6728 817.8456,387.5478 Q817.8456,384.4228 819.1581,382.7666 Q820.4863,381.1103 822.9863,381.1103 Q823.6894,381.1103 824.33,381.2666 Q824.9863,381.4228 825.5488,381.7197 L825.5488,384.4384 Q824.9238,383.8603 824.33,383.5947 Q823.7363,383.3134 823.1113,383.3134 Q821.7675,383.3134 821.08,384.3916 Q820.3925,385.4541 820.3925,387.5478 Q820.3925,389.6416 821.08,390.7197 Q821.7675,391.7822 823.1113,391.7822 Q823.7363,391.7822 824.33,391.5166 Q824.9238,391.2353 825.5488,390.6572 L825.5488,393.3759 Z " fill="#000000"/><text fill="#000000" font-family="sans-serif" font-size="14" lengthAdjust="spacing" textLength="92.832" x="848.58" y="392.582">BotController</text></g><!--class ImageController--><g class="entity" data-qualified-name="Presentacion.Web.ImageController" data-source-line="16" id="ent0007"><rect fill="#F1F1F1" height="50.2969" rx="2.5" ry="2.5" style="stroke:#181818;stroke-width:0.5;" width="169.0186" x="1856.49" y="362.5869"/><ellipse cx="1871.49" cy="387.7353" fill="#ADD1B2" rx="11" ry="11" style="stroke:#181818;stroke-width:1;"/><path d="M1874.4588,393.3759 Q1873.8806,393.6728 1873.24,393.8134 Q1872.5994,393.9697 1871.8963,393.9697 Q1869.3963,393.9697 1868.0681,392.3291 Q1866.7556,390.6728 1866.7556,387.5478 Q1866.7556,384.4228 1868.0681,382.7666 Q1869.3963,381.1103 1871.8963,381.1103 Q1872.5994,381.1103 1873.24,381.2666 Q1873.8963,381.4228 1874.4588,381.7197 L1874.4588,384.4384 Q1873.8338,383.8603 1873.24,383.5947 Q1872.6463,383.3134 1872.0213,383.3134 Q1870.6775,383.3134 1869.99,384.3916 Q1869.3025,385.4541 1869.3025,387.5478 Q1869.3025,389.6416 1869.99,390.7197 Q1870.6775,391.7822 1872.0213,391.7822 Q1872.6463,391.7822 1873.24,391.5166 Q1873.8338,391.2353 1874.4588,390.6572 L1874.4588,393.3759 Z " fill="#000000"/><text fill="#000000" font-family="sans-serif" font-size="14" lengthAdjust="spacing" textLength="113.0186" x="1897.49" y="392.582">ImageController</text></g><!--class MainController--><g class="entity" data-qualified-name="Presentacion.Web.MainController" data-source-line="17" id="ent0008"><rect fill="#F1F1F1" height="50.2969" rx="2.5" ry="2.5" style="stroke:#181818;stroke-width:0.5;" width="158.5938" x="1347.7" y="362.5869"/><ellipse cx="1362.7" cy="387.7353" fill="#ADD1B2" rx="11" ry="11" style="stroke:#181818;stroke-width:1;"/><path d="M1365.6688,393.3759 Q1365.0906,393.6728 1364.45,393.8134 Q1363.8094,393.9697 1363.1063,393.9697 Q1360.6063,393.9697 1359.2781,392.3291 Q1357.9656,390.6728 1357.9656,387.5478 Q1357.9656,384.4228 1359.2781,382.7666 Q1360.6063,381.1103 1363.1063,381.1103 Q1363.8094,381.1103 1364.45,381.2666 Q1365.1063,381.4228 1365.6688,381.7197 L1365.6688,384.4384 Q1365.0438,383.8603 1364.45,383.5947 Q1363.8563,383.3134 1363.2313,383.3134 Q1361.8875,383.3134 1361.2,384.3916 Q1360.5125,385.4541 1360.5125,387.5478 Q1360.5125,389.6416 1361.2,390.7197 Q1361.8875,391.7822 1363.2313,391.7822 Q1363.8563,391.7822 1364.45,391.5166 Q1365.0438,391.2353 1365.6688,390.6572 L1365.6688,393.3759 Z " fill="#000000"/><text fill="#000000" font-family="sans-serif" font-size="14" lengthAdjust="spacing" textLength="102.5938" x="1388.7" y="392.582">MainController</text></g><!--class MatchController--><g class="entity" data-qualified-name="Presentacion.Web.MatchController" data-source-line="18" id="ent0009"><rect fill="#F1F1F1" height="50.2969" rx="2.5" ry="2.5" style="stroke:#181818;stroke-width:0.5;" width="167.8906" x="303.05" y="362.5869"/><ellipse cx="318.05" cy="387.7353" fill="#ADD1B2" rx="11" ry="11" style="stroke:#181818;stroke-width:1;"/><path d="M321.0188,393.3759 Q320.4406,393.6728 319.8,393.8134 Q319.1594,393.9697 318.4563,393.9697 Q315.9563,393.9697 314.6281,392.3291 Q313.3156,390.6728 313.3156,387.5478 Q313.3156,384.4228 314.6281,382.7666 Q315.9563,381.1103 318.4563,381.1103 Q319.1594,381.1103 319.8,381.2666 Q320.4563,381.4228 321.0188,381.7197 L321.0188,384.4384 Q320.3938,383.8603 319.8,383.5947 Q319.2063,383.3134 318.5813,383.3134 Q317.2375,383.3134 316.55,384.3916 Q315.8625,385.4541 315.8625,387.5478 Q315.8625,389.6416 316.55,390.7197 Q317.2375,391.7822 318.5813,391.7822 Q319.2063,391.7822 319.8,391.5166 Q320.3938,391.2353 321.0188,390.6572 L321.0188,393.3759 Z " fill="#000000"/><text fill="#000000" font-family="sans-serif" font-size="14" lengthAdjust="spacing" textLength="111.8906" x="344.05" y="392.582">MatchController</text></g><!--class TournamentController--><g class="entity" data-qualified-name="Presentacion.Web.TournamentController" data-source-line="19" id="ent0010"><rect fill="#F1F1F1" height="50.2969" rx="2.5" ry="2.5" style="stroke:#181818;stroke-width:0.5;" width="210.9844" x="1046.51" y="362.5869"/><ellipse cx="1061.51" cy="387.7353" fill="#ADD1B2" rx="11" ry="11" style="stroke:#181818;stroke-width:1;"/><path d="M1064.4788,393.3759 Q1063.9006,393.6728 1063.26,393.8134 Q1062.6194,393.9697 1061.9163,393.9697 Q1059.4163,393.9697 1058.0881,392.3291 Q1056.7756,390.6728 1056.7756,387.5478 Q1056.7756,384.4228 1058.0881,382.7666 Q1059.4163,381.1103 1061.9163,381.1103 Q1062.6194,381.1103 1063.26,381.2666 Q1063.9163,381.4228 1064.4788,381.7197 L1064.4788,384.4384 Q1063.8538,383.8603 1063.26,383.5947 Q1062.6663,383.3134 1062.0413,383.3134 Q1060.6975,383.3134 1060.01,384.3916 Q1059.3225,385.4541 1059.3225,387.5478 Q1059.3225,389.6416 1060.01,390.7197 Q1060.6975,391.7822 1062.0413,391.7822 Q1062.6663,391.7822 1063.26,391.5166 Q1063.8538,391.2353 1064.4788,390.6572 L1064.4788,393.3759 Z " fill="#000000"/><text fill="#000000" font-family="sans-serif" font-size="14" lengthAdjust="spacing" textLength="154.9844" x="1087.51" y="392.582">TournamentController</text></g><!--class UserController--><g class="entity" data-qualified-name="Presentacion.Web.UserController" data-source-line="20" id="ent0011"><rect fill="#F1F1F1" height="50.2969" rx="2.5" ry="2.5" style="stroke:#181818;stroke-width:0.5;" width="157.083" x="560.46" y="362.5869"/><ellipse cx="575.46" cy="387.7353" fill="#ADD1B2" rx="11" ry="11" style="stroke:#181818;stroke-width:1;"/><path d="M578.4288,393.3759 Q577.8506,393.6728 577.21,393.8134 Q576.5694,393.9697 575.8663,393.9697 Q573.3663,393.9697 572.0381,392.3291 Q570.7256,390.6728 570.7256,387.5478 Q570.7256,384.4228 572.0381,382.7666 Q573.3663,381.1103 575.8663,381.1103 Q576.5694,381.1103 577.21,381.2666 Q577.8663,381.4228 578.4288,381.7197 L578.4288,384.4384 Q577.8038,383.8603 577.21,383.5947 Q576.6163,383.3134 575.9913,383.3134 Q574.6475,383.3134 573.96,384.3916 Q573.2725,385.4541 573.2725,387.5478 Q573.2725,389.6416 573.96,390.7197 Q574.6475,391.7822 575.9913,391.7822 Q576.6163,391.7822 577.21,391.5166 Q577.8038,391.2353 578.4288,390.6572 L578.4288,393.3759 Z " fill="#000000"/><text fill="#000000" font-family="sans-serif" font-size="14" lengthAdjust="spacing" textLength="101.083" x="601.46" y="392.582">UserController</text></g><!--class AdminNotificationController--><g class="entity" data-qualified-name="Presentacion.API.AdminNotificationController" data-source-line="24" id="ent0013"><rect fill="#F1F1F1" height="50.2969" rx="2.5" ry="2.5" style="stroke:#181818;stroke-width:0.5;" width="250.3662" x="54.82" y="202.2969"/><ellipse cx="69.82" cy="227.4453" fill="#ADD1B2" rx="11" ry="11" style="stroke:#181818;stroke-width:1;"/><path d="M72.7888,233.0859 Q72.2106,233.3828 71.57,233.5234 Q70.9294,233.6797 70.2263,233.6797 Q67.7263,233.6797 66.3981,232.0391 Q65.0856,230.3828 65.0856,227.2578 Q65.0856,224.1328 66.3981,222.4766 Q67.7263,220.8203 70.2263,220.8203 Q70.9294,220.8203 71.57,220.9766 Q72.2263,221.1328 72.7888,221.4297 L72.7888,224.1484 Q72.1638,223.5703 71.57,223.3047 Q70.9763,223.0234 70.3513,223.0234 Q69.0075,223.0234 68.32,224.1016 Q67.6325,225.1641 67.6325,227.2578 Q67.6325,229.3516 68.32,230.4297 Q69.0075,231.4922 70.3513,231.4922 Q70.9763,231.4922 71.57,231.2266 Q72.1638,230.9453 72.7888,230.3672 L72.7888,233.0859 Z " fill="#000000"/><text fill="#000000" font-family="sans-serif" font-size="14" lengthAdjust="spacing" textLength="194.3662" x="95.82" y="232.292">AdminNotificationController</text></g><!--class NotificationController--><g class="entity" data-qualified-name="Presentacion.API.NotificationController" data-source-line="25" id="ent0014"><rect fill="#F1F1F1" height="50.2969" rx="2.5" ry="2.5" style="stroke:#181818;stroke-width:0.5;" width="205.502" x="395.25" y="202.2969"/><ellipse cx="410.25" cy="227.4453" fill="#ADD1B2" rx="11" ry="11" style="stroke:#181818;stroke-width:1;"/><path d="M413.2188,233.0859 Q412.6406,233.3828 412,233.5234 Q411.3594,233.6797 410.6563,233.6797 Q408.1563,233.6797 406.8281,232.0391 Q405.5156,230.3828 405.5156,227.2578 Q405.5156,224.1328 406.8281,222.4766 Q408.1563,220.8203 410.6563,220.8203 Q411.3594,220.8203 412,220.9766 Q412.6563,221.1328 413.2188,221.4297 L413.2188,224.1484 Q412.5938,223.5703 412,223.3047 Q411.4063,223.0234 410.7813,223.0234 Q409.4375,223.0234 408.75,224.1016 Q408.0625,225.1641 408.0625,227.2578 Q408.0625,229.3516 408.75,230.4297 Q409.4375,231.4922 410.7813,231.4922 Q411.4063,231.4922 412,231.2266 Q412.5938,230.9453 413.2188,230.3672 L413.2188,233.0859 Z " fill="#000000"/><text fill="#000000" font-family="sans-serif" font-size="14" lengthAdjust="spacing" textLength="149.502" x="436.25" y="232.292">NotificationController</text></g><!--class BotService--><g class="entity" data-qualified-name="Logica de Negocio.BotService" data-source-line="32" id="ent0017"><rect fill="#F1F1F1" height="50.2969" rx="2.5" ry="2.5" style="stroke:#181818;stroke-width:0.5;" width="131.4004" x="2223.3" y="728.1869"/><ellipse cx="2238.3" cy="753.3353" fill="#ADD1B2" rx="11" ry="11" style="stroke:#181818;stroke-width:1;"/><path d="M2241.2688,758.9759 Q2240.6906,759.2728 2240.05,759.4134 Q2239.4094,759.5697 2238.7063,759.5697 Q2236.2063,759.5697 2234.8781,757.9291 Q2233.5656,756.2728 2233.5656,753.1478 Q2233.5656,750.0228 2234.8781,748.3666 Q2236.2063,746.7103 2238.7063,746.7103 Q2239.4094,746.7103 2240.05,746.8666 Q2240.7063,747.0228 2241.2688,747.3197 L2241.2688,750.0384 Q2240.6438,749.4603 2240.05,749.1947 Q2239.4563,748.9134 2238.8313,748.9134 Q2237.4875,748.9134 2236.8,749.9916 Q2236.1125,751.0541 2236.1125,753.1478 Q2236.1125,755.2416 2236.8,756.3197 Q2237.4875,757.3822 2238.8313,757.3822 Q2239.4563,757.3822 2240.05,757.1166 Q2240.6438,756.8353 2241.2688,756.2572 L2241.2688,758.9759 Z " fill="#000000"/><text fill="#000000" font-family="sans-serif" font-size="14" lengthAdjust="spacing" textLength="75.4004" x="2264.3" y="758.182">BotService</text></g><!--class ChartService--><g class="entity" data-qualified-name="Logica de Negocio.ChartService" data-source-line="33" id="ent0018"><rect fill="#F1F1F1" height="50.2969" rx="2.5" ry="2.5" style="stroke:#181818;stroke-width:0.5;" width="146.2139" x="1954.89" y="567.8869"/><ellipse cx="1969.89" cy="593.0353" fill="#ADD1B2" rx="11" ry="11" style="stroke:#181818;stroke-width:1;"/><path d="M1972.8588,598.6759 Q1972.2806,598.9728 1971.64,599.1134 Q1970.9994,599.2697 1970.2963,599.2697 Q1967.7963,599.2697 1966.4681,597.6291 Q1965.1556,595.9728 1965.1556,592.8478 Q1965.1556,589.7228 1966.4681,588.0666 Q1967.7963,586.4103 1970.2963,586.4103 Q1970.9994,586.4103 1971.64,586.5666 Q1972.2963,586.7228 1972.8588,587.0197 L1972.8588,589.7384 Q1972.2338,589.1603 1971.64,588.8947 Q1971.0463,588.6134 1970.4213,588.6134 Q1969.0775,588.6134 1968.39,589.6916 Q1967.7025,590.7541 1967.7025,592.8478 Q1967.7025,594.9416 1968.39,596.0197 Q1969.0775,597.0822 1970.4213,597.0822 Q1971.0463,597.0822 1971.64,596.8166 Q1972.2338,596.5353 1972.8588,595.9572 L1972.8588,598.6759 Z " fill="#000000"/><text fill="#000000" font-family="sans-serif" font-size="14" lengthAdjust="spacing" textLength="90.2139" x="1995.89" y="597.882">ChartService</text></g><!--class MatchService--><g class="entity" data-qualified-name="Logica de Negocio.MatchService" data-source-line="34" id="ent0019"><rect fill="#F1F1F1" height="50.2969" rx="2.5" ry="2.5" style="stroke:#181818;stroke-width:0.5;" width="150.459" x="1714.77" y="567.8869"/><ellipse cx="1729.77" cy="593.0353" fill="#ADD1B2" rx="11" ry="11" style="stroke:#181818;stroke-width:1;"/><path d="M1732.7388,598.6759 Q1732.1606,598.9728 1731.52,599.1134 Q1730.8794,599.2697 1730.1763,599.2697 Q1727.6763,599.2697 1726.3481,597.6291 Q1725.0356,595.9728 1725.0356,592.8478 Q1725.0356,589.7228 1726.3481,588.0666 Q1727.6763,586.4103 1730.1763,586.4103 Q1730.8794,586.4103 1731.52,586.5666 Q1732.1763,586.7228 1732.7388,587.0197 L1732.7388,589.7384 Q1732.1138,589.1603 1731.52,588.8947 Q1730.9263,588.6134 1730.3013,588.6134 Q1728.9575,588.6134 1728.27,589.6916 Q1727.5825,590.7541 1727.5825,592.8478 Q1727.5825,594.9416 1728.27,596.0197 Q1728.9575,597.0822 1730.3013,597.0822 Q1730.9263,597.0822 1731.52,596.8166 Q1732.1138,596.5353 1732.7388,595.9572 L1732.7388,598.6759 Z " fill="#000000"/><text fill="#000000" font-family="sans-serif" font-size="14" lengthAdjust="spacing" textLength="94.459" x="1755.77" y="597.882">MatchService</text></g><!--class NotificationService--><g class="entity" data-qualified-name="Logica de Negocio.NotificationService" data-source-line="35" id="ent0020"><rect fill="#F1F1F1" height="50.2969" rx="2.5" ry="2.5" style="stroke:#181818;stroke-width:0.5;" width="188.0703" x="1714.96" y="728.1869"/><ellipse cx="1729.96" cy="753.3353" fill="#ADD1B2" rx="11" ry="11" style="stroke:#181818;stroke-width:1;"/><path d="M1732.9288,758.9759 Q1732.3506,759.2728 1731.71,759.4134 Q1731.0694,759.5697 1730.3663,759.5697 Q1727.8663,759.5697 1726.5381,757.9291 Q1725.2256,756.2728 1725.2256,753.1478 Q1725.2256,750.0228 1726.5381,748.3666 Q1727.8663,746.7103 1730.3663,746.7103 Q1731.0694,746.7103 1731.71,746.8666 Q1732.3663,747.0228 1732.9288,747.3197 L1732.9288,750.0384 Q1732.3038,749.4603 1731.71,749.1947 Q1731.1163,748.9134 1730.4913,748.9134 Q1729.1475,748.9134 1728.46,749.9916 Q1727.7725,751.0541 1727.7725,753.1478 Q1727.7725,755.2416 1728.46,756.3197 Q1729.1475,757.3822 1730.4913,757.3822 Q1731.1163,757.3822 1731.71,757.1166 Q1732.3038,756.8353 1732.9288,756.2572 L1732.9288,758.9759 Z " fill="#000000"/><text fill="#000000" font-family="sans-serif" font-size="14" lengthAdjust="spacing" textLength="132.0703" x="1755.96" y="758.182">NotificationService</text></g><!--class TournamentAutomationService--><g class="entity" data-qualified-name="Logica de Negocio.TournamentAutomationService" data-source-line="36" id="ent0021"><rect fill="#F1F1F1" height="50.2969" rx="2.5" ry="2.5" style="stroke:#181818;stroke-width:0.5;" width="275.0918" x="2474.45" y="567.8869"/><ellipse cx="2489.45" cy="593.0353" fill="#ADD1B2" rx="11" ry="11" style="stroke:#181818;stroke-width:1;"/><path d="M2492.4188,598.6759 Q2491.8406,598.9728 2491.2,599.1134 Q2490.5594,599.2697 2489.8563,599.2697 Q2487.3563,599.2697 2486.0281,597.6291 Q2484.7156,595.9728 2484.7156,592.8478 Q2484.7156,589.7228 2486.0281,588.0666 Q2487.3563,586.4103 2489.8563,586.4103 Q2490.5594,586.4103 2491.2,586.5666 Q2491.8563,586.7228 2492.4188,587.0197 L2492.4188,589.7384 Q2491.7938,589.1603 2491.2,588.8947 Q2490.6063,588.6134 2489.9813,588.6134 Q2488.6375,588.6134 2487.95,589.6916 Q2487.2625,590.7541 2487.2625,592.8478 Q2487.2625,594.9416 2487.95,596.0197 Q2488.6375,597.0822 2489.9813,597.0822 Q2490.6063,597.0822 2491.2,596.8166 Q2491.7938,596.5353 2492.4188,595.9572 L2492.4188,598.6759 Z " fill="#000000"/><text fill="#000000" font-family="sans-serif" font-size="14" lengthAdjust="spacing" textLength="219.0918" x="2515.45" y="597.882">TournamentAutomationService</text></g><!--class TournamentService--><g class="entity" data-qualified-name="Logica de Negocio.TournamentService" data-source-line="37" id="ent0022"><rect fill="#F1F1F1" height="50.2969" rx="2.5" ry="2.5" style="stroke:#181818;stroke-width:0.5;" width="193.5527" x="2191.22" y="567.8869"/><ellipse cx="2206.22" cy="593.0353" fill="#ADD1B2" rx="11" ry="11" style="stroke:#181818;stroke-width:1;"/><path d="M2209.1888,598.6759 Q2208.6106,598.9728 2207.97,599.1134 Q2207.3294,599.2697 2206.6263,599.2697 Q2204.1263,599.2697 2202.7981,597.6291 Q2201.4856,595.9728 2201.4856,592.8478 Q2201.4856,589.7228 2202.7981,588.0666 Q2204.1263,586.4103 2206.6263,586.4103 Q2207.3294,586.4103 2207.97,586.5666 Q2208.6263,586.7228 2209.1888,587.0197 L2209.1888,589.7384 Q2208.5638,589.1603 2207.97,588.8947 Q2207.3763,588.6134 2206.7513,588.6134 Q2205.4075,588.6134 2204.72,589.6916 Q2204.0325,590.7541 2204.0325,592.8478 Q2204.0325,594.9416 2204.72,596.0197 Q2205.4075,597.0822 2206.7513,597.0822 Q2207.3763,597.0822 2207.97,596.8166 Q2208.5638,596.5353 2209.1888,595.9572 L2209.1888,598.6759 Z " fill="#000000"/><text fill="#000000" font-family="sans-serif" font-size="14" lengthAdjust="spacing" textLength="137.5527" x="2232.22" y="597.882">TournamentService</text></g><!--class UserService--><g class="entity" data-qualified-name="Logica de Negocio.UserService" data-source-line="38" id="ent0023"><rect fill="#F1F1F1" height="50.2969" rx="2.5" ry="2.5" style="stroke:#181818;stroke-width:0.5;" width="139.6514" x="1993.17" y="728.1869"/><ellipse cx="2008.17" cy="753.3353" fill="#ADD1B2" rx="11" ry="11" style="stroke:#181818;stroke-width:1;"/><path d="M2011.1388,758.9759 Q2010.5606,759.2728 2009.92,759.4134 Q2009.2794,759.5697 2008.5763,759.5697 Q2006.0763,759.5697 2004.7481,757.9291 Q2003.4356,756.2728 2003.4356,753.1478 Q2003.4356,750.0228 2004.7481,748.3666 Q2006.0763,746.7103 2008.5763,746.7103 Q2009.2794,746.7103 2009.92,746.8666 Q2010.5763,747.0228 2011.1388,747.3197 L2011.1388,750.0384 Q2010.5138,749.4603 2009.92,749.1947 Q2009.3263,748.9134 2008.7013,748.9134 Q2007.3575,748.9134 2006.67,749.9916 Q2005.9825,751.0541 2005.9825,753.1478 Q2005.9825,755.2416 2006.67,756.3197 Q2007.3575,757.3822 2008.7013,757.3822 Q2009.3263,757.3822 2009.92,757.1166 Q2010.5138,756.8353 2011.1388,756.2572 L2011.1388,758.9759 Z " fill="#000000"/><text fill="#000000" font-family="sans-serif" font-size="14" lengthAdjust="spacing" textLength="83.6514" x="2034.17" y="758.182">UserService</text></g><!--class BotRepository--><g class="entity" data-qualified-name="Persistencia.BotRepository" data-source-line="42" id="ent0025"><rect fill="#F1F1F1" height="50.2969" rx="2.5" ry="2.5" style="stroke:#181818;stroke-width:0.5;" width="154.7314" x="3440.63" y="909.4869"/><ellipse cx="3455.63" cy="934.6353" fill="#B4A7E5" rx="11" ry="11" style="stroke:#181818;stroke-width:1;"/><path d="M3451.5519,930.4009 L3451.5519,928.2447 L3458.9425,928.2447 L3458.9425,930.4009 L3456.4738,930.4009 L3456.4738,938.4791 L3458.9425,938.4791 L3458.9425,940.6353 L3451.5519,940.6353 L3451.5519,938.4791 L3454.0206,938.4791 L3454.0206,930.4009 L3451.5519,930.4009 Z " fill="#000000"/><text fill="#000000" font-family="sans-serif" font-size="14" font-style="italic" lengthAdjust="spacing" textLength="98.7314" x="3481.63" y="939.482">BotRepository</text></g><!--class MatchRepository--><g class="entity" data-qualified-name="Persistencia.MatchRepository" data-source-line="43" id="ent0026"><rect fill="#F1F1F1" height="50.2969" rx="2.5" ry="2.5" style="stroke:#181818;stroke-width:0.5;" width="173.79" x="4245.1" y="909.4869"/><ellipse cx="4260.1" cy="934.6353" fill="#B4A7E5" rx="11" ry="11" style="stroke:#181818;stroke-width:1;"/><path d="M4256.0219,930.4009 L4256.0219,928.2447 L4263.4125,928.2447 L4263.4125,930.4009 L4260.9438,930.4009 L4260.9438,938.4791 L4263.4125,938.4791 L4263.4125,940.6353 L4256.0219,940.6353 L4256.0219,938.4791 L4258.4906,938.4791 L4258.4906,930.4009 L4256.0219,930.4009 Z " fill="#000000"/><text fill="#000000" font-family="sans-serif" font-size="14" font-style="italic" lengthAdjust="spacing" textLength="117.79" x="4286.1" y="939.482">MatchRepository</text></g><!--class TournamentRepository--><g class="entity" data-qualified-name="Persistencia.TournamentRepository" data-source-line="44" id="ent0027"><rect fill="#F1F1F1" height="50.2969" rx="2.5" ry="2.5" style="stroke:#181818;stroke-width:0.5;" width="216.8838" x="3938.56" y="909.4869"/><ellipse cx="3953.56" cy="934.6353" fill="#B4A7E5" rx="11" ry="11" style="stroke:#181818;stroke-width:1;"/><path d="M3949.4819,930.4009 L3949.4819,928.2447 L3956.8725,928.2447 L3956.8725,930.4009 L3954.4038,930.4009 L3954.4038,938.4791 L3956.8725,938.4791 L3956.8725,940.6353 L3949.4819,940.6353 L3949.4819,938.4791 L3951.9506,938.4791 L3951.9506,930.4009 L3949.4819,930.4009 Z " fill="#000000"/><text fill="#000000" font-family="sans-serif" font-size="14" font-style="italic" lengthAdjust="spacing" textLength="160.8838" x="3979.56" y="939.482">TournamentRepository</text></g><!--class UserRepository--><g class="entity" data-qualified-name="Persistencia.UserRepository" data-source-line="45" id="ent0028"><rect fill="#F1F1F1" height="50.2969" rx="2.5" ry="2.5" style="stroke:#181818;stroke-width:0.5;" width="162.9824" x="3685.51" y="909.4869"/><ellipse cx="3700.51" cy="934.6353" fill="#B4A7E5" rx="11" ry="11" style="stroke:#181818;stroke-width:1;"/><path d="M3696.4319,930.4009 L3696.4319,928.2447 L3703.8225,928.2447 L3703.8225,930.4009 L3701.3538,930.4009 L3701.3538,938.4791 L3703.8225,938.4791 L3703.8225,940.6353 L3696.4319,940.6353 L3696.4319,938.4791 L3698.9006,938.4791 L3698.9006,930.4009 L3696.4319,930.4009 Z " fill="#000000"/><text fill="#000000" font-family="sans-serif" font-size="14" font-style="italic" lengthAdjust="spacing" textLength="106.9824" x="3726.51" y="939.482">UserRepository</text></g><!--class User--><g class="entity" data-qualified-name="Dominio.User" data-source-line="49" id="ent0030"><rect fill="#F1F1F1" height="50.2969" rx="2.5" ry="2.5" style="stroke:#181818;stroke-width:0.5;" width="87.9102" x="4374.04" y="1411.3769"/><ellipse cx="4389.04" cy="1436.5253" fill="#ADD1B2" rx="11" ry="11" style="stroke:#181818;stroke-width:1;"/><path d="M4392.0088,1442.1659 Q4391.4306,1442.4628 4390.79,1442.6034 Q4390.1494,1442.7597 4389.4463,1442.7597 Q4386.9463,1442.7597 4385.6181,1441.1191 Q4384.3056,1439.4628 4384.3056,1436.3378 Q4384.3056,1433.2128 4385.6181,1431.5566 Q4386.9463,1429.9003 4389.4463,1429.9003 Q4390.1494,1429.9003 4390.79,1430.0566 Q4391.4463,1430.2128 4392.0088,1430.5097 L4392.0088,1433.2284 Q4391.3838,1432.6503 4390.79,1432.3847 Q4390.1963,1432.1034 4389.5713,1432.1034 Q4388.2275,1432.1034 4387.54,1433.1816 Q4386.8525,1434.2441 4386.8525,1436.3378 Q4386.8525,1438.4316 4387.54,1439.5097 Q4388.2275,1440.5722 4389.5713,1440.5722 Q4390.1963,1440.5722 4390.79,1440.3066 Q4391.3838,1440.0253 4392.0088,1439.4472 L4392.0088,1442.1659 Z " fill="#000000"/><text fill="#000000" font-family="sans-serif" font-size="14" lengthAdjust="spacing" textLength="31.9102" x="4415.04" y="1441.372">User</text></g><!--class Bot--><g class="entity" data-qualified-name="Dominio.Bot" data-source-line="50" id="ent0031"><rect fill="#F1F1F1" height="50.2969" rx="2.5" ry="2.5" style="stroke:#181818;stroke-width:0.5;" width="79.6592" x="4204.17" y="1411.3769"/><ellipse cx="4219.17" cy="1436.5253" fill="#ADD1B2" rx="11" ry="11" style="stroke:#181818;stroke-width:1;"/><path d="M4222.1388,1442.1659 Q4221.5606,1442.4628 4220.92,1442.6034 Q4220.2794,1442.7597 4219.5763,1442.7597 Q4217.0763,1442.7597 4215.7481,1441.1191 Q4214.4356,1439.4628 4214.4356,1436.3378 Q4214.4356,1433.2128 4215.7481,1431.5566 Q4217.0763,1429.9003 4219.5763,1429.9003 Q4220.2794,1429.9003 4220.92,1430.0566 Q4221.5763,1430.2128 4222.1388,1430.5097 L4222.1388,1433.2284 Q4221.5138,1432.6503 4220.92,1432.3847 Q4220.3263,1432.1034 4219.7013,1432.1034 Q4218.3575,1432.1034 4217.67,1433.1816 Q4216.9825,1434.2441 4216.9825,1436.3378 Q4216.9825,1438.4316 4217.67,1439.5097 Q4218.3575,1440.5722 4219.7013,1440.5722 Q4220.3263,1440.5722 4220.92,1440.3066 Q4221.5138,1440.0253 4222.1388,1439.4472 L4222.1388,1442.1659 Z " fill="#000000"/><text fill="#000000" font-family="sans-serif" font-size="14" lengthAdjust="spacing" textLength="23.6592" x="4245.17" y="1441.372">Bot</text></g><!--class Tournament--><g class="entity" data-qualified-name="Dominio.Tournament" data-source-line="51" id="ent0032"><rect fill="#F1F1F1" height="50.2969" rx="2.5" ry="2.5" style="stroke:#181818;stroke-width:0.5;" width="141.8115" x="3976.09" y="1090.7769"/><ellipse cx="3991.09" cy="1115.9253" fill="#ADD1B2" rx="11" ry="11" style="stroke:#181818;stroke-width:1;"/><path d="M3994.0588,1121.5659 Q3993.4806,1121.8628 3992.84,1122.0034 Q3992.1994,1122.1597 3991.4963,1122.1597 Q3988.9963,1122.1597 3987.6681,1120.5191 Q3986.3556,1118.8628 3986.3556,1115.7378 Q3986.3556,1112.6128 3987.6681,1110.9566 Q3988.9963,1109.3003 3991.4963,1109.3003 Q3992.1994,1109.3003 3992.84,1109.4566 Q3993.4963,1109.6128 3994.0588,1109.9097 L3994.0588,1112.6284 Q3993.4338,1112.0503 3992.84,1111.7847 Q3992.2463,1111.5034 3991.6213,1111.5034 Q3990.2775,1111.5034 3989.59,1112.5816 Q3988.9025,1113.6441 3988.9025,1115.7378 Q3988.9025,1117.8316 3989.59,1118.9097 Q3990.2775,1119.9722 3991.6213,1119.9722 Q3992.2463,1119.9722 3992.84,1119.7066 Q3993.4338,1119.4253 3994.0588,1118.8472 L3994.0588,1121.5659 Z " fill="#000000"/><text fill="#000000" font-family="sans-serif" font-size="14" lengthAdjust="spacing" textLength="85.8115" x="4017.09" y="1120.772">Tournament</text></g><!--class Match--><g class="entity" data-qualified-name="Dominio.Match" data-source-line="52" id="ent0033"><rect fill="#F1F1F1" height="50.2969" rx="2.5" ry="2.5" style="stroke:#181818;stroke-width:0.5;" width="98.7178" x="4363.64" y="1251.0769"/><ellipse cx="4378.64" cy="1276.2253" fill="#ADD1B2" rx="11" ry="11" style="stroke:#181818;stroke-width:1;"/><path d="M4381.6088,1281.8659 Q4381.0306,1282.1628 4380.39,1282.3034 Q4379.7494,1282.4597 4379.0463,1282.4597 Q4376.5463,1282.4597 4375.2181,1280.8191 Q4373.9056,1279.1628 4373.9056,1276.0378 Q4373.9056,1272.9128 4375.2181,1271.2566 Q4376.5463,1269.6003 4379.0463,1269.6003 Q4379.7494,1269.6003 4380.39,1269.7566 Q4381.0463,1269.9128 4381.6088,1270.2097 L4381.6088,1272.9284 Q4380.9838,1272.3503 4380.39,1272.0847 Q4379.7963,1271.8034 4379.1713,1271.8034 Q4377.8275,1271.8034 4377.14,1272.8816 Q4376.4525,1273.9441 4376.4525,1276.0378 Q4376.4525,1278.1316 4377.14,1279.2097 Q4377.8275,1280.2722 4379.1713,1280.2722 Q4379.7963,1280.2722 4380.39,1280.0066 Q4380.9838,1279.7253 4381.6088,1279.1472 L4381.6088,1281.8659 Z " fill="#000000"/><text fill="#000000" font-family="sans-serif" font-size="14" lengthAdjust="spacing" textLength="42.7178" x="4404.64" y="1281.072">Match</text></g><!--class Round--><g class="entity" data-qualified-name="Dominio.Round" data-source-line="53" id="ent0034"><rect fill="#F1F1F1" height="50.2969" rx="2.5" ry="2.5" style="stroke:#181818;stroke-width:0.5;" width="100.9258" x="4013.54" y="1411.3769"/><ellipse cx="4028.54" cy="1436.5253" fill="#ADD1B2" rx="11" ry="11" style="stroke:#181818;stroke-width:1;"/><path d="M4031.5088,1442.1659 Q4030.9306,1442.4628 4030.29,1442.6034 Q4029.6494,1442.7597 4028.9463,1442.7597 Q4026.4463,1442.7597 4025.1181,1441.1191 Q4023.8056,1439.4628 4023.8056,1436.3378 Q4023.8056,1433.2128 4025.1181,1431.5566 Q4026.4463,1429.9003 4028.9463,1429.9003 Q4029.6494,1429.9003 4030.29,1430.0566 Q4030.9463,1430.2128 4031.5088,1430.5097 L4031.5088,1433.2284 Q4030.8838,1432.6503 4030.29,1432.3847 Q4029.6963,1432.1034 4029.0713,1432.1034 Q4027.7275,1432.1034 4027.04,1433.1816 Q4026.3525,1434.2441 4026.3525,1436.3378 Q4026.3525,1438.4316 4027.04,1439.5097 Q4027.7275,1440.5722 4029.0713,1440.5722 Q4029.6963,1440.5722 4030.29,1440.3066 Q4030.8838,1440.0253 4031.5088,1439.4472 L4031.5088,1442.1659 Z " fill="#000000"/><text fill="#000000" font-family="sans-serif" font-size="14" lengthAdjust="spacing" textLength="44.9258" x="4054.54" y="1441.372">Round</text></g><!--class Image--><g class="entity" data-qualified-name="Dominio.Image" data-source-line="54" id="ent0035"><rect fill="#F1F1F1" height="50.2969" rx="2.5" ry="2.5" style="stroke:#181818;stroke-width:0.5;" width="99.8457" x="4194.08" y="1571.6669"/><ellipse cx="4209.08" cy="1596.8153" fill="#ADD1B2" rx="11" ry="11" style="stroke:#181818;stroke-width:1;"/><path d="M4212.0488,1602.4559 Q4211.4706,1602.7528 4210.83,1602.8934 Q4210.1894,1603.0497 4209.4863,1603.0497 Q4206.9863,1603.0497 4205.6581,1601.4091 Q4204.3456,1599.7528 4204.3456,1596.6278 Q4204.3456,1593.5028 4205.6581,1591.8466 Q4206.9863,1590.1903 4209.4863,1590.1903 Q4210.1894,1590.1903 4210.83,1590.3466 Q4211.4863,1590.5028 4212.0488,1590.7997 L4212.0488,1593.5184 Q4211.4238,1592.9403 4210.83,1592.6747 Q4210.2363,1592.3934 4209.6113,1592.3934 Q4208.2675,1592.3934 4207.58,1593.4716 Q4206.8925,1594.5341 4206.8925,1596.6278 Q4206.8925,1598.7216 4207.58,1599.7997 Q4208.2675,1600.8622 4209.6113,1600.8622 Q4210.2363,1600.8622 4210.83,1600.5966 Q4211.4238,1600.3153 4212.0488,1599.7372 L4212.0488,1602.4559 Z " fill="#000000"/><text fill="#000000" font-family="sans-serif" font-size="14" lengthAdjust="spacing" textLength="43.8457" x="4235.08" y="1601.662">Image</text></g><!--class TournamentStatus--><g class="entity" data-qualified-name="Dominio.TournamentStatus" data-source-line="55" id="ent0036"><rect fill="#F1F1F1" height="50.2969" rx="2.5" ry="2.5" style="stroke:#181818;stroke-width:0.5;" width="186.4229" x="4086.79" y="1251.0769"/><ellipse cx="4101.79" cy="1276.2253" fill="#EB937F" rx="11" ry="11" style="stroke:#181818;stroke-width:1;"/><path d="M4105.8994,1282.2253 L4098.1806,1282.2253 L4098.1806,1269.8347 L4105.8994,1269.8347 L4105.8994,1271.9909 L4100.6338,1271.9909 L4100.6338,1274.6628 L4105.3994,1274.6628 L4105.3994,1276.8191 L4100.6338,1276.8191 L4100.6338,1280.0691 L4105.8994,1280.0691 L4105.8994,1282.2253 Z " fill="#000000"/><text fill="#000000" font-family="sans-serif" font-size="14" lengthAdjust="spacing" textLength="130.4229" x="4127.79" y="1281.072">TournamentStatus</text></g><!--class SecurityConfig--><g class="entity" data-qualified-name="Infraestructura.SecurityConfig" data-source-line="59" id="ent0038"><rect fill="#F1F1F1" height="50.2969" rx="2.5" ry="2.5" style="stroke:#181818;stroke-width:0.5;" width="158.4092" x="3811.8" y="362.5869"/><ellipse cx="3826.8" cy="387.7353" fill="#ADD1B2" rx="11" ry="11" style="stroke:#181818;stroke-width:1;"/><path d="M3829.7688,393.3759 Q3829.1906,393.6728 3828.55,393.8134 Q3827.9094,393.9697 3827.2063,393.9697 Q3824.7063,393.9697 3823.3781,392.3291 Q3822.0656,390.6728 3822.0656,387.5478 Q3822.0656,384.4228 3823.3781,382.7666 Q3824.7063,381.1103 3827.2063,381.1103 Q3827.9094,381.1103 3828.55,381.2666 Q3829.2063,381.4228 3829.7688,381.7197 L3829.7688,384.4384 Q3829.1438,383.8603 3828.55,383.5947 Q3827.9563,383.3134 3827.3313,383.3134 Q3825.9875,383.3134 3825.3,384.3916 Q3824.6125,385.4541 3824.6125,387.5478 Q3824.6125,389.6416 3825.3,390.7197 Q3825.9875,391.7822 3827.3313,391.7822 Q3827.9563,391.7822 3828.55,391.5166 Q3829.1438,391.2353 3829.7688,390.6572 L3829.7688,393.3759 Z " fill="#000000"/><text fill="#000000" font-family="sans-serif" font-size="14" lengthAdjust="spacing" textLength="102.4092" x="3852.8" y="392.582">SecurityConfig</text></g><!--class CustomUserDetailsService--><g class="entity" data-qualified-name="Infraestructura.CustomUserDetailsService" data-source-line="60" id="ent0039"><rect fill="#F1F1F1" height="50.2969" rx="2.5" ry="2.5" style="stroke:#181818;stroke-width:0.5;" width="241.8213" x="4266.09" y="567.8869"/><ellipse cx="4281.09" cy="593.0353" fill="#ADD1B2" rx="11" ry="11" style="stroke:#181818;stroke-width:1;"/><path d="M4284.0588,598.6759 Q4283.4806,598.9728 4282.84,599.1134 Q4282.1994,599.2697 4281.4963,599.2697 Q4278.9963,599.2697 4277.6681,597.6291 Q4276.3556,595.9728 4276.3556,592.8478 Q4276.3556,589.7228 4277.6681,588.0666 Q4278.9963,586.4103 4281.4963,586.4103 Q4282.1994,586.4103 4282.84,586.5666 Q4283.4963,586.7228 4284.0588,587.0197 L4284.0588,589.7384 Q4283.4338,589.1603 4282.84,588.8947 Q4282.2463,588.6134 4281.6213,588.6134 Q4280.2775,588.6134 4279.59,589.6916 Q4278.9025,590.7541 4278.9025,592.8478 Q4278.9025,594.9416 4279.59,596.0197 Q4280.2775,597.0822 4281.6213,597.0822 Q4282.2463,597.0822 4282.84,596.8166 Q4283.4338,596.5353 4284.0588,595.9572 L4284.0588,598.6759 Z " fill="#000000"/><text fill="#000000" font-family="sans-serif" font-size="14" lengthAdjust="spacing" textLength="185.8213" x="4307.09" y="597.882">CustomUserDetailsService</text></g><!--class CustomOAuth2UserService--><g class="entity" data-qualified-name="Infraestructura.CustomOAuth2UserService" data-source-line="61" id="ent0040"><rect fill="#F1F1F1" height="50.2969" rx="2.5" ry="2.5" style="stroke:#181818;stroke-width:0.5;" width="246.0254" x="3643.99" y="567.8869"/><ellipse cx="3658.99" cy="593.0353" fill="#ADD1B2" rx="11" ry="11" style="stroke:#181818;stroke-width:1;"/><path d="M3661.9588,598.6759 Q3661.3806,598.9728 3660.74,599.1134 Q3660.0994,599.2697 3659.3963,599.2697 Q3656.8963,599.2697 3655.5681,597.6291 Q3654.2556,595.9728 3654.2556,592.8478 Q3654.2556,589.7228 3655.5681,588.0666 Q3656.8963,586.4103 3659.3963,586.4103 Q3660.0994,586.4103 3660.74,586.5666 Q3661.3963,586.7228 3661.9588,587.0197 L3661.9588,589.7384 Q3661.3338,589.1603 3660.74,588.8947 Q3660.1463,588.6134 3659.5213,588.6134 Q3658.1775,588.6134 3657.49,589.6916 Q3656.8025,590.7541 3656.8025,592.8478 Q3656.8025,594.9416 3657.49,596.0197 Q3658.1775,597.0822 3659.5213,597.0822 Q3660.1463,597.0822 3660.74,596.8166 Q3661.3338,596.5353 3661.9588,595.9572 L3661.9588,598.6759 Z " fill="#000000"/><text fill="#000000" font-family="sans-serif" font-size="14" lengthAdjust="spacing" textLength="190.0254" x="3684.99" y="597.882">CustomOAuth2UserService</text></g><!--class LoginFailureHandler--><g class="entity" data-qualified-name="Infraestructura.LoginFailureHandler" data-source-line="62" id="ent0041"><rect fill="#F1F1F1" height="50.2969" rx="2.5" ry="2.5" style="stroke:#181818;stroke-width:0.5;" width="196.793" x="3979.6" y="567.8869"/><ellipse cx="3994.6" cy="593.0353" fill="#ADD1B2" rx="11" ry="11" style="stroke:#181818;stroke-width:1;"/><path d="M3997.5688,598.6759 Q3996.9906,598.9728 3996.35,599.1134 Q3995.7094,599.2697 3995.0063,599.2697 Q3992.5063,599.2697 3991.1781,597.6291 Q3989.8656,595.9728 3989.8656,592.8478 Q3989.8656,589.7228 3991.1781,588.0666 Q3992.5063,586.4103 3995.0063,586.4103 Q3995.7094,586.4103 3996.35,586.5666 Q3997.0063,586.7228 3997.5688,587.0197 L3997.5688,589.7384 Q3996.9438,589.1603 3996.35,588.8947 Q3995.7563,588.6134 3995.1313,588.6134 Q3993.7875,588.6134 3993.1,589.6916 Q3992.4125,590.7541 3992.4125,592.8478 Q3992.4125,594.9416 3993.1,596.0197 Q3993.7875,597.0822 3995.1313,597.0822 Q3995.7563,597.0822 3996.35,596.8166 Q3996.9438,596.5353 3997.5688,595.9572 L3997.5688,598.6759 Z " fill="#000000"/><text fill="#000000" font-family="sans-serif" font-size="14" lengthAdjust="spacing" textLength="140.793" x="4020.6" y="597.882">LoginFailureHandler</text></g><!--class ActiveSessionService--><g class="entity" data-qualified-name="Infraestructura.ActiveSessionService" data-source-line="63" id="ent0042"><rect fill="#F1F1F1" height="50.2969" rx="2.5" ry="2.5" style="stroke:#181818;stroke-width:0.5;" width="204.709" x="4303.65" y="362.5869"/><ellipse cx="4318.65" cy="387.7353" fill="#ADD1B2" rx="11" ry="11" style="stroke:#181818;stroke-width:1;"/><path d="M4321.6188,393.3759 Q4321.0406,393.6728 4320.4,393.8134 Q4319.7594,393.9697 4319.0563,393.9697 Q4316.5563,393.9697 4315.2281,392.3291 Q4313.9156,390.6728 4313.9156,387.5478 Q4313.9156,384.4228 4315.2281,382.7666 Q4316.5563,381.1103 4319.0563,381.1103 Q4319.7594,381.1103 4320.4,381.2666 Q4321.0563,381.4228 4321.6188,381.7197 L4321.6188,384.4384 Q4320.9938,383.8603 4320.4,383.5947 Q4319.8063,383.3134 4319.1813,383.3134 Q4317.8375,383.3134 4317.15,384.3916 Q4316.4625,385.4541 4316.4625,387.5478 Q4316.4625,389.6416 4317.15,390.7197 Q4317.8375,391.7822 4319.1813,391.7822 Q4319.8063,391.7822 4320.4,391.5166 Q4320.9938,391.2353 4321.6188,390.6572 L4321.6188,393.3759 Z " fill="#000000"/><text fill="#000000" font-family="sans-serif" font-size="14" lengthAdjust="spacing" textLength="148.709" x="4344.65" y="392.582">ActiveSessionService</text></g><!--class WebConfig--><g class="entity" data-qualified-name="Infraestructura.WebConfig" data-source-line="64" id="ent0043"><rect fill="#F1F1F1" height="50.2969" rx="2.5" ry="2.5" style="stroke:#181818;stroke-width:0.5;" width="132.2617" x="3357.87" y="362.5869"/><ellipse cx="3372.87" cy="387.7353" fill="#ADD1B2" rx="11" ry="11" style="stroke:#181818;stroke-width:1;"/><path d="M3375.8388,393.3759 Q3375.2606,393.6728 3374.62,393.8134 Q3373.9794,393.9697 3373.2763,393.9697 Q3370.7763,393.9697 3369.4481,392.3291 Q3368.1356,390.6728 3368.1356,387.5478 Q3368.1356,384.4228 3369.4481,382.7666 Q3370.7763,381.1103 3373.2763,381.1103 Q3373.9794,381.1103 3374.62,381.2666 Q3375.2763,381.4228 3375.8388,381.7197 L3375.8388,384.4384 Q3375.2138,383.8603 3374.62,383.5947 Q3374.0263,383.3134 3373.4013,383.3134 Q3372.0575,383.3134 3371.37,384.3916 Q3370.6825,385.4541 3370.6825,387.5478 Q3370.6825,389.6416 3371.37,390.7197 Q3372.0575,391.7822 3373.4013,391.7822 Q3374.0263,391.7822 3374.62,391.5166 Q3375.2138,391.2353 3375.8388,390.6572 L3375.8388,393.3759 Z " fill="#000000"/><text fill="#000000" font-family="sans-serif" font-size="14" lengthAdjust="spacing" textLength="76.2617" x="3398.87" y="392.582">WebConfig</text></g><!--class MatchmakingLockInterceptor--><g class="entity" data-qualified-name="Infraestructura.MatchmakingLockInterceptor" data-source-line="65" id="ent0044"><rect fill="#F1F1F1" height="50.2969" rx="2.5" ry="2.5" style="stroke:#181818;stroke-width:0.5;" width="260.7295" x="3293.64" y="567.8869"/><ellipse cx="3308.64" cy="593.0353" fill="#ADD1B2" rx="11" ry="11" style="stroke:#181818;stroke-width:1;"/><path d="M3311.6088,598.6759 Q3311.0306,598.9728 3310.39,599.1134 Q3309.7494,599.2697 3309.0463,599.2697 Q3306.5463,599.2697 3305.2181,597.6291 Q3303.9056,595.9728 3303.9056,592.8478 Q3303.9056,589.7228 3305.2181,588.0666 Q3306.5463,586.4103 3309.0463,586.4103 Q3309.7494,586.4103 3310.39,586.5666 Q3311.0463,586.7228 3311.6088,587.0197 L3311.6088,589.7384 Q3310.9838,589.1603 3310.39,588.8947 Q3309.7963,588.6134 3309.1713,588.6134 Q3307.8275,588.6134 3307.14,589.6916 Q3306.4525,590.7541 3306.4525,592.8478 Q3306.4525,594.9416 3307.14,596.0197 Q3307.8275,597.0822 3309.1713,597.0822 Q3309.7963,597.0822 3310.39,596.8166 Q3310.9838,596.5353 3311.6088,595.9572 L3311.6088,598.6759 Z " fill="#000000"/><text fill="#000000" font-family="sans-serif" font-size="14" lengthAdjust="spacing" textLength="204.7295" x="3334.64" y="597.882">MatchmakingLockInterceptor</text></g><!--class DataInitializer--><g class="entity" data-qualified-name="Infraestructura.DataInitializer" data-source-line="66" id="ent0045"><rect fill="#F1F1F1" height="50.2969" rx="2.5" ry="2.5" style="stroke:#181818;stroke-width:0.5;" width="153.7744" x="4060.11" y="362.5869"/><ellipse cx="4075.11" cy="387.7353" fill="#ADD1B2" rx="11" ry="11" style="stroke:#181818;stroke-width:1;"/><path d="M4078.0788,393.3759 Q4077.5006,393.6728 4076.86,393.8134 Q4076.2194,393.9697 4075.5163,393.9697 Q4073.0163,393.9697 4071.6881,392.3291 Q4070.3756,390.6728 4070.3756,387.5478 Q4070.3756,384.4228 4071.6881,382.7666 Q4073.0163,381.1103 4075.5163,381.1103 Q4076.2194,381.1103 4076.86,381.2666 Q4077.5163,381.4228 4078.0788,381.7197 L4078.0788,384.4384 Q4077.4538,383.8603 4076.86,383.5947 Q4076.2663,383.3134 4075.6413,383.3134 Q4074.2975,383.3134 4073.61,384.3916 Q4072.9225,385.4541 4072.9225,387.5478 Q4072.9225,389.6416 4073.61,390.7197 Q4074.2975,391.7822 4075.6413,391.7822 Q4076.2663,391.7822 4076.86,391.5166 Q4077.4538,391.2353 4078.0788,390.6572 L4078.0788,393.3759 Z " fill="#000000"/><text fill="#000000" font-family="sans-serif" font-size="14" lengthAdjust="spacing" textLength="97.7744" x="4101.11" y="392.582">DataInitializer</text></g><g class="entity" data-qualified-name="GMN115" data-source-line="152" id="ent0116"><path d="M2164.47,202.8769 L2164.47,252.0097 L2485.5296,252.0097 L2485.5296,212.8769 L2475.5296,202.8769 L2164.47,202.8769" fill="#FEFFDD" style="stroke:#181818;stroke-width:0.5;"/><path d="M2475.5296,202.8769 L2475.5296,212.8769 L2485.5296,212.8769 L2475.5296,202.8769" fill="#FEFFDD" style="stroke:#181818;stroke-width:1;"/><text fill="#000000" font-family="sans-serif" font-size="13" lengthAdjust="spacing" textLength="276.0596" x="2182.47" y="231.9438">Controladores MVC y endpoints SSE/REST.</text></g><g class="entity" data-qualified-name="GMN118" data-source-line="156" id="ent0119"><path d="M5325.78,568.4669 L5325.78,617.5997 L5640.2126,617.5997 L5640.2126,578.4669 L5630.2126,568.4669 L5325.78,568.4669" fill="#FEFFDD" style="stroke:#181818;stroke-width:0.5;"/><path d="M5630.2126,568.4669 L5630.2126,578.4669 L5640.2126,578.4669 L5630.2126,568.4669" fill="#FEFFDD" style="stroke:#181818;stroke-width:1;"/><text fill="#000000" font-family="sans-serif" font-size="13" lengthAdjust="spacing" textLength="269.4326" x="5343.78" y="597.5338">Casos de uso, reglas y automatizaciones.</text></g><g class="entity" data-qualified-name="GMN121" data-source-line="160" id="ent0122"><path d="M5325.63,910.0669 L5325.63,959.1997 L5606.3756,959.1997 L5606.3756,920.0669 L5596.3756,910.0669 L5325.63,910.0669" fill="#FEFFDD" style="stroke:#181818;stroke-width:0.5;"/><path d="M5596.3756,910.0669 L5596.3756,920.0669 L5606.3756,920.0669 L5596.3756,910.0669" fill="#FEFFDD" style="stroke:#181818;stroke-width:1;"/><text fill="#000000" font-family="sans-serif" font-size="13" lengthAdjust="spacing" textLength="235.7456" x="5343.63" y="939.1338">Acceso a datos con Spring Data JPA.</text></g><g class="entity" data-qualified-name="GMN124" data-source-line="164" id="ent0125"><path d="M5325.7,1091.3569 L5325.7,1140.4897 L5630.3064,1140.4897 L5630.3064,1101.3569 L5620.3064,1091.3569 L5325.7,1091.3569" fill="#FEFFDD" style="stroke:#181818;stroke-width:0.5;"/><path d="M5620.3064,1091.3569 L5620.3064,1101.3569 L5630.3064,1101.3569 L5620.3064,1091.3569" fill="#FEFFDD" style="stroke:#181818;stroke-width:1;"/><text fill="#000000" font-family="sans-serif" font-size="13" lengthAdjust="spacing" textLength="259.6064" x="5343.7" y="1120.4238">Entidades y enumeraciones principales.</text></g><!--link AdminController to TournamentService--><g class="link" data-entity-1="ent0004" data-entity-2="ent0022" data-link-type="dependency" data-source-line="70" id="lnk46"><path codeLine="70" d="M1740.39,412.9369 C1740.39,440.2469 1740.39,479.9669 1740.39,479.9669 C1740.39,479.9669 2307.36,479.9669 2307.36,479.9669 C2307.36,479.9669 2307.36,528.3269 2307.36,561.6669" fill="none" id="AdminController-to-TournamentService" style="stroke:#181818;stroke-width:1;"/><polygon fill="#181818" points="2307.36,567.6669,2311.36,558.6669,2307.36,562.6669,2303.36,558.6669,2307.36,567.6669" style="stroke:#181818;stroke-width:1;"/></g><!--link AdminController to TournamentAutomationService--><g class="link" data-entity-1="ent0004" data-entity-2="ent0021" data-link-type="dependency" data-source-line="71" id="lnk47"><path codeLine="71" d="M1748.94,413.0969 C1748.94,433.2069 1748.94,457.9669 1748.94,457.9669 C1748.94,457.9669 2479.99,457.9669 2479.99,457.9669 C2479.99,457.9669 2479.99,522.5069 2479.99,561.6269" fill="none" id="AdminController-to-TournamentAutomationService" style="stroke:#181818;stroke-width:1;"/><polygon fill="#181818" points="2479.99,567.6269,2483.99,558.6269,2479.99,562.6269,2475.99,558.6269,2479.99,567.6269" style="stroke:#181818;stroke-width:1;"/></g><!--link AdminController to UserService--><g class="link" data-entity-1="ent0004" data-entity-2="ent0023" data-link-type="dependency" data-source-line="72" id="lnk48"><path codeLine="72" d="M1731.85,413.3669 C1731.85,452.8269 1731.85,523.9669 1731.85,523.9669 C1731.85,523.9669 2111.68,523.9669 2111.68,523.9669 C2111.68,523.9669 2111.68,662.1969 2111.68,721.9069" fill="none" id="AdminController-to-UserService" style="stroke:#181818;stroke-width:1;"/><polygon fill="#181818" points="2111.68,727.9069,2115.68,718.9069,2111.68,722.9069,2107.68,718.9069,2111.68,727.9069" style="stroke:#181818;stroke-width:1;"/></g><!--link AdminController to BotService--><g class="link" data-entity-1="ent0004" data-entity-2="ent0017" data-link-type="dependency" data-source-line="73" id="lnk49"><path codeLine="73" d="M1655.38,412.9569 C1655.38,480.5969 1655.38,660.9669 1655.38,660.9669 C1655.38,660.9669 2317.16,660.9669 2317.16,660.9669 C2317.16,660.9669 2317.16,694.7469 2317.16,722.0969" fill="none" id="AdminController-to-BotService" style="stroke:#181818;stroke-width:1;"/><polygon fill="#181818" points="2317.16,728.0969,2321.16,719.0969,2317.16,723.0969,2313.16,719.0969,2317.16,728.0969" style="stroke:#181818;stroke-width:1;"/></g><!--link AdminController to ChartService--><g class="link" data-entity-1="ent0004" data-entity-2="ent0018" data-link-type="dependency" data-source-line="74" id="lnk50"><path codeLine="74" d="M1723.31,413.3869 C1723.31,455.5669 1723.31,534.9669 1723.31,534.9669 C1723.31,534.9669 2007.86,534.9669 2007.86,534.9669 C2007.86,534.9669 2007.86,545.8369 2007.86,561.3969" fill="none" id="AdminController-to-ChartService" style="stroke:#181818;stroke-width:1;"/><polygon fill="#181818" points="2007.86,567.3969,2011.86,558.3969,2007.86,562.3969,2003.86,558.3969,2007.86,567.3969" style="stroke:#181818;stroke-width:1;"/></g><!--link AdminController to ActiveSessionService--><g class="link" data-entity-1="ent0004" data-entity-2="ent0042" data-link-type="dependency" data-source-line="75" id="lnk51"><path codeLine="75" d="M1757.48,413.2969 C1757.48,419.2869 1757.48,423.9669 1757.48,423.9669 C1757.48,423.9669 4405.78,423.9669 4405.78,423.9669 C4405.78,423.9669 4405.78,425.2869 4405.78,419.2969" fill="none" id="AdminController-to-ActiveSessionService" style="stroke:#181818;stroke-width:1;"/><polygon fill="#181818" points="4405.78,413.2969,4401.78,422.2969,4405.78,418.2969,4409.78,422.2969,4405.78,413.2969" style="stroke:#181818;stroke-width:1;"/></g><!--link AuthController to UserService--><g class="link" data-entity-1="ent0005" data-entity-2="ent0023" data-link-type="dependency" data-source-line="77" id="lnk52"><path codeLine="77" d="M134,413.2069 C134,491.4469 134,722.9669 134,722.9669 C134,722.9669 2008.59,722.9669 2008.59,722.9669 C2008.59,722.9669 2008.59,718.8669 2008.59,721.7069" fill="none" id="AuthController-to-UserService" style="stroke:#181818;stroke-width:1;"/><polygon fill="#181818" points="2008.59,727.7069,2012.59,718.7069,2008.59,722.7069,2004.59,718.7069,2008.59,727.7069" style="stroke:#181818;stroke-width:1;"/></g><!--link BotController to BotService--><g class="link" data-entity-1="ent0006" data-entity-2="ent0017" data-link-type="dependency" data-source-line="78" id="lnk53"><path codeLine="78" d="M882,413.1369 C882,483.1869 882,673.9669 882,673.9669 C882,673.9669 2279.61,673.9669 2279.61,673.9669 C2279.61,673.9669 2279.61,698.5869 2279.61,721.7869" fill="none" id="BotController-to-BotService" style="stroke:#181818;stroke-width:1;"/><polygon fill="#181818" points="2279.61,727.7869,2283.61,718.7869,2279.61,722.7869,2275.61,718.7869,2279.61,727.7869" style="stroke:#181818;stroke-width:1;"/></g><!--link BotController to UserService--><g class="link" data-entity-1="ent0006" data-entity-2="ent0023" data-link-type="dependency" data-source-line="79" id="lnk54"><path codeLine="79" d="M844.79,413.3469 C844.79,488.6369 844.79,703.9669 844.79,703.9669 C844.79,703.9669 2054.85,703.9669 2054.85,703.9669 C2054.85,703.9669 2054.85,709.7369 2054.85,721.7869" fill="none" id="BotController-to-UserService" style="stroke:#181818;stroke-width:1;"/><polygon fill="#181818" points="2054.85,727.7869,2058.85,718.7869,2054.85,722.7869,2050.85,718.7869,2054.85,727.7869" style="stroke:#181818;stroke-width:1;"/></g><!--link BotController to ChartService--><g class="link" data-entity-1="ent0006" data-entity-2="ent0018" data-link-type="dependency" data-source-line="80" id="lnk55"><path codeLine="80" d="M919.21,413.0769 C919.21,460.2869 919.21,556.9669 919.21,556.9669 C919.21,556.9669 1972.55,556.9669 1972.55,556.9669 C1972.55,556.9669 1972.55,555.6269 1972.55,561.5969" fill="none" id="BotController-to-ChartService" style="stroke:#181818;stroke-width:1;"/><polygon fill="#181818" points="1972.55,567.5969,1976.55,558.5969,1972.55,562.5969,1968.55,558.5969,1972.55,567.5969" style="stroke:#181818;stroke-width:1;"/></g><!--link ImageController to TournamentService--><g class="link" data-entity-1="ent0007" data-entity-2="ent0022" data-link-type="dependency" data-source-line="81" id="lnk56"><path codeLine="81" d="M2025.92,387.9669 C2144.69,387.9669 2346.07,387.9669 2346.07,387.9669 C2346.07,387.9669 2346.07,506.5069 2346.07,561.4769" fill="none" id="ImageController-to-TournamentService" style="stroke:#181818;stroke-width:1;"/><polygon fill="#181818" points="2346.07,567.4769,2350.07,558.4769,2346.07,562.4769,2342.07,558.4769,2346.07,567.4769" style="stroke:#181818;stroke-width:1;"/></g><!--link ImageController to UserService--><g class="link" data-entity-1="ent0007" data-entity-2="ent0023" data-link-type="dependency" data-source-line="82" id="lnk57"><path codeLine="82" d="M1944.52,413.1469 C1944.52,494.7569 1944.52,744.9669 1944.52,744.9669 C1944.52,744.9669 1961.2,744.9669 1986.71,744.9669" fill="none" id="ImageController-to-UserService" style="stroke:#181818;stroke-width:1;"/><polygon fill="#181818" points="1992.71,744.9669,1983.71,740.9669,1987.71,744.9669,1983.71,748.9669,1992.71,744.9669" style="stroke:#181818;stroke-width:1;"/></g><!--link ImageController to BotRepository--><g class="link" data-entity-1="ent0007" data-entity-2="ent0025" data-link-type="dependency" data-source-line="83" id="lnk58"><path codeLine="83" d="M1923.78,413.0869 C1923.78,521.8969 1923.78,943.9669 1923.78,943.9669 C1923.78,943.9669 3114.63,943.9669 3434.3,943.9669" fill="none" id="ImageController-to-BotRepository" style="stroke:#181818;stroke-width:1;"/><polygon fill="#181818" points="3440.3,943.9669,3431.3,939.9669,3435.3,943.9669,3431.3,947.9669,3440.3,943.9669" style="stroke:#181818;stroke-width:1;"/></g><!--link MainController to BotService--><g class="link" data-entity-1="ent0008" data-entity-2="ent0017" data-link-type="dependency" data-source-line="84" id="lnk59"><path codeLine="84" d="M1453.43,413.1069 C1453.43,482.0869 1453.43,667.9669 1453.43,667.9669 C1453.43,667.9669 2298.39,667.9669 2298.39,667.9669 C2298.39,667.9669 2298.39,696.5769 2298.39,721.7169" fill="none" id="MainController-to-BotService" style="stroke:#181818;stroke-width:1;"/><polygon fill="#181818" points="2298.39,727.7169,2302.39,718.7169,2298.39,722.7169,2294.39,718.7169,2298.39,727.7169" style="stroke:#181818;stroke-width:1;"/></g><!--link MainController to MatchService--><g class="link" data-entity-1="ent0008" data-entity-2="ent0019" data-link-type="dependency" data-source-line="85" id="lnk60"><path codeLine="85" d="M1479.86,412.9969 C1479.86,465.3769 1479.86,580.9669 1479.86,580.9669 C1479.86,580.9669 1616.73,580.9669 1708.53,580.9669" fill="none" id="MainController-to-MatchService" style="stroke:#181818;stroke-width:1;"/><polygon fill="#181818" points="1714.53,580.9669,1705.53,576.9669,1709.53,580.9669,1705.53,584.9669,1714.53,580.9669" style="stroke:#181818;stroke-width:1;"/></g><!--link MainController to TournamentService--><g class="link" data-entity-1="ent0008" data-entity-2="ent0022" data-link-type="dependency" data-source-line="86" id="lnk61"><path codeLine="86" d="M1400.57,413.2569 C1400.57,443.8269 1400.57,490.9669 1400.57,490.9669 C1400.57,490.9669 2268.64,490.9669 2268.64,490.9669 C2268.64,490.9669 2268.64,531.3069 2268.64,561.5469" fill="none" id="MainController-to-TournamentService" style="stroke:#181818;stroke-width:1;"/><polygon fill="#181818" points="2268.64,567.5469,2272.64,558.5469,2268.64,562.5469,2264.64,558.5469,2268.64,567.5469" style="stroke:#181818;stroke-width:1;"/></g><!--link MainController to UserService--><g class="link" data-entity-1="ent0008" data-entity-2="ent0023" data-link-type="dependency" data-source-line="87" id="lnk62"><path codeLine="87" d="M1427,413.1569 C1427,486.2769 1427,691.9669 1427,691.9669 C1427,691.9669 2085.69,691.9669 2085.69,691.9669 C2085.69,691.9669 2085.69,705.1169 2085.69,722.0169" fill="none" id="MainController-to-UserService" style="stroke:#181818;stroke-width:1;"/><polygon fill="#181818" points="2085.69,728.0169,2089.69,719.0169,2085.69,723.0169,2081.69,719.0169,2085.69,728.0169" style="stroke:#181818;stroke-width:1;"/></g><!--link MainController to ChartService--><g class="link" data-entity-1="ent0008" data-entity-2="ent0018" data-link-type="dependency" data-source-line="88" id="lnk63"><path codeLine="88" d="M1374.14,413.1669 C1374.14,457.8869 1374.14,545.9669 1374.14,545.9669 C1374.14,545.9669 1990.2,545.9669 1990.2,545.9669 C1990.2,545.9669 1990.2,550.4869 1990.2,561.5769" fill="none" id="MainController-to-ChartService" style="stroke:#181818;stroke-width:1;"/><polygon fill="#181818" points="1990.2,567.5769,1994.2,558.5769,1990.2,562.5769,1986.2,558.5769,1990.2,567.5769" style="stroke:#181818;stroke-width:1;"/></g><!--link MatchController to MatchService--><g class="link" data-entity-1="ent0009" data-entity-2="ent0019" data-link-type="dependency" data-source-line="89" id="lnk64"><path codeLine="89" d="M428.97,413.1969 C428.97,470.7669 428.97,605.9669 428.97,605.9669 C428.97,605.9669 1422.42,605.9669 1708.4,605.9669" fill="none" id="MatchController-to-MatchService" style="stroke:#181818;stroke-width:1;"/><polygon fill="#181818" points="1714.4,605.9669,1705.4,601.9669,1709.4,605.9669,1705.4,609.9669,1714.4,605.9669" style="stroke:#181818;stroke-width:1;"/></g><!--link MatchController to BotService--><g class="link" data-entity-1="ent0009" data-entity-2="ent0017" data-link-type="dependency" data-source-line="90" id="lnk65"><path codeLine="90" d="M387,413.1669 C387,485.2869 387,685.9669 387,685.9669 C387,685.9669 2242.07,685.9669 2242.07,685.9669 C2242.07,685.9669 2242.07,702.7869 2242.07,721.8669" fill="none" id="MatchController-to-BotService" style="stroke:#181818;stroke-width:1;"/><polygon fill="#181818" points="2242.07,727.8669,2246.07,718.8669,2242.07,722.8669,2238.07,718.8669,2242.07,727.8669" style="stroke:#181818;stroke-width:1;"/></g><!--link MatchController to UserService--><g class="link" data-entity-1="ent0009" data-entity-2="ent0023" data-link-type="dependency" data-source-line="91" id="lnk66"><path codeLine="91" d="M345.03,413.2269 C345.03,490.3369 345.03,715.9669 345.03,715.9669 C345.03,715.9669 2024.01,715.9669 2024.01,715.9669 C2024.01,715.9669 2024.01,715.2169 2024.01,721.7869" fill="none" id="MatchController-to-UserService" style="stroke:#181818;stroke-width:1;"/><polygon fill="#181818" points="2024.01,727.7869,2028.01,718.7869,2024.01,722.7869,2020.01,718.7869,2024.01,727.7869" style="stroke:#181818;stroke-width:1;"/></g><!--link TournamentController to TournamentService--><g class="link" data-entity-1="ent0010" data-entity-2="ent0022" data-link-type="dependency" data-source-line="92" id="lnk67"><path codeLine="92" d="M1116.84,413.3769 C1116.84,447.0569 1116.84,501.9669 1116.84,501.9669 C1116.84,501.9669 2229.93,501.9669 2229.93,501.9669 C2229.93,501.9669 2229.93,534.7269 2229.93,561.6669" fill="none" id="TournamentController-to-TournamentService" style="stroke:#181818;stroke-width:1;"/><polygon fill="#181818" points="2229.93,567.6669,2233.93,558.6669,2229.93,562.6669,2225.93,558.6669,2229.93,567.6669" style="stroke:#181818;stroke-width:1;"/></g><!--link TournamentController to UserService--><g class="link" data-entity-1="ent0010" data-entity-2="ent0023" data-link-type="dependency" data-source-line="93" id="lnk68"><path codeLine="93" d="M1187.16,413.1269 C1187.16,487.2169 1187.16,697.9669 1187.16,697.9669 C1187.16,697.9669 2070.27,697.9669 2070.27,697.9669 C2070.27,697.9669 2070.27,707.3669 2070.27,721.9169" fill="none" id="TournamentController-to-UserService" style="stroke:#181818;stroke-width:1;"/><polygon fill="#181818" points="2070.27,727.9169,2074.27,718.9169,2070.27,722.9169,2066.27,718.9169,2070.27,727.9169" style="stroke:#181818;stroke-width:1;"/></g><!--link UserController to UserService--><g class="link" data-entity-1="ent0011" data-entity-2="ent0023" data-link-type="dependency" data-source-line="94" id="lnk69"><path codeLine="94" d="M599.73,413.2969 C599.73,489.5069 599.73,709.9669 599.73,709.9669 C599.73,709.9669 2039.43,709.9669 2039.43,709.9669 C2039.43,709.9669 2039.43,712.4169 2039.43,721.8569" fill="none" id="UserController-to-UserService" style="stroke:#181818;stroke-width:1;"/><polygon fill="#181818" points="2039.43,727.8569,2043.43,718.8569,2039.43,722.8569,2035.43,718.8569,2039.43,727.8569" style="stroke:#181818;stroke-width:1;"/></g><!--link UserController to BotService--><g class="link" data-entity-1="ent0011" data-entity-2="ent0017" data-link-type="dependency" data-source-line="95" id="lnk70"><path codeLine="95" d="M639,413.1669 C639,484.2569 639,679.9669 639,679.9669 C639,679.9669 2260.84,679.9669 2260.84,679.9669 C2260.84,679.9669 2260.84,700.8669 2260.84,722.0869" fill="none" id="UserController-to-BotService" style="stroke:#181818;stroke-width:1;"/><polygon fill="#181818" points="2260.84,728.0869,2264.84,719.0869,2260.84,723.0869,2256.84,719.0869,2260.84,728.0869" style="stroke:#181818;stroke-width:1;"/></g><!--link UserController to MatchService--><g class="link" data-entity-1="ent0011" data-entity-2="ent0019" data-link-type="dependency" data-source-line="96" id="lnk71"><path codeLine="96" d="M678.27,413.0269 C678.27,468.0969 678.27,593.9669 678.27,593.9669 C678.27,593.9669 1458.24,593.9669 1708.46,593.9669" fill="none" id="UserController-to-MatchService" style="stroke:#181818;stroke-width:1;"/><polygon fill="#181818" points="1714.46,593.9669,1705.46,589.9669,1709.46,593.9669,1705.46,597.9669,1714.46,593.9669" style="stroke:#181818;stroke-width:1;"/></g><!--link AdminNotificationController to NotificationService--><g class="link" data-entity-1="ent0013" data-entity-2="ent0020" data-link-type="dependency" data-source-line="97" id="lnk72"><path codeLine="97" d="M258.02,252.8669 C258.02,359.0869 258.02,761.9669 258.02,761.9669 C258.02,761.9669 1372.22,761.9669 1708.6,761.9669" fill="none" id="AdminNotificationController-to-NotificationService" style="stroke:#181818;stroke-width:1;"/><polygon fill="#181818" points="1714.6,761.9669,1705.6,757.9669,1709.6,761.9669,1705.6,765.9669,1714.6,761.9669" style="stroke:#181818;stroke-width:1;"/></g><!--link NotificationController to NotificationService--><g class="link" data-entity-1="ent0014" data-entity-2="ent0020" data-link-type="dependency" data-source-line="98" id="lnk73"><path codeLine="98" d="M515.7,252.7569 C515.7,356.6569 515.7,744.9669 515.7,744.9669 C515.7,744.9669 1410.81,744.9669 1708.69,744.9669" fill="none" id="NotificationController-to-NotificationService" style="stroke:#181818;stroke-width:1;"/><polygon fill="#181818" points="1714.69,744.9669,1705.69,740.9669,1709.69,744.9669,1705.69,748.9669,1714.69,744.9669" style="stroke:#181818;stroke-width:1;"/></g><!--link GlobalControllerAdvice to AdminController--><g class="link" data-entity-1="ent0015" data-entity-2="ent0004" data-link-type="dependency" data-source-line="99" id="lnk74"><path codeLine="99" d="M1348.73,240.9669 C1479.31,240.9669 1681,240.9669 1681,240.9669 C1681,240.9669 1681,314.1269 1681,356.1769" fill="none" id="GlobalControllerAdvice-to-AdminController" style="stroke:#181818;stroke-width:1;stroke-dasharray:7,7;"/><polygon fill="#181818" points="1681,362.1769,1685,353.1769,1681,357.1769,1677,353.1769,1681,362.1769" style="stroke:#181818;stroke-width:1;"/></g><!--link GlobalControllerAdvice to UserController--><g class="link" data-entity-1="ent0015" data-entity-2="ent0011" data-link-type="dependency" data-source-line="100" id="lnk75"><path codeLine="100" d="M1131.43,227.9669 C963.31,227.9669 659.15,227.9669 659.15,227.9669 C659.15,227.9669 659.15,311.3669 659.15,356.4269" fill="none" id="GlobalControllerAdvice-to-UserController" style="stroke:#181818;stroke-width:1;stroke-dasharray:7,7;"/><polygon fill="#181818" points="659.15,362.4269,663.15,353.4269,659.15,357.4269,655.15,353.4269,659.15,362.4269" style="stroke:#181818;stroke-width:1;"/></g><!--link BotService to BotRepository--><g class="link" data-entity-1="ent0017" data-entity-2="ent0025" data-link-type="dependency" data-source-line="103" id="lnk76"><path codeLine="103" d="M2354.83,761.9669 C2607.02,761.9669 3497.5,761.9669 3497.5,761.9669 C3497.5,761.9669 3497.5,855.1269 3497.5,903.1569" fill="none" id="BotService-to-BotRepository" style="stroke:#181818;stroke-width:1;"/><polygon fill="#181818" points="3497.5,909.1569,3501.5,900.1569,3497.5,904.1569,3493.5,900.1569,3497.5,909.1569" style="stroke:#181818;stroke-width:1;"/></g><!--link MatchService to MatchRepository--><g class="link" data-entity-1="ent0019" data-entity-2="ent0026" data-link-type="dependency" data-source-line="104" id="lnk77"><path codeLine="104" d="M1827.66,618.5069 C1827.66,622.2969 1827.66,624.9669 1827.66,624.9669 C1827.66,624.9669 4252.1,624.9669 4252.1,624.9669 C4252.1,624.9669 4252.1,828.8369 4252.1,903.0269" fill="none" id="MatchService-to-MatchRepository" style="stroke:#181818;stroke-width:1;"/><polygon fill="#181818" points="4252.1,909.0269,4256.1,900.0269,4252.1,904.0269,4248.1,900.0269,4252.1,909.0269" style="stroke:#181818;stroke-width:1;"/></g><!--link MatchService to BotRepository--><g class="link" data-entity-1="ent0019" data-entity-2="ent0025" data-link-type="dependency" data-source-line="105" id="lnk78"><path codeLine="105" d="M1865.69,601.9669 C1891.24,601.9669 1913.41,601.9669 1913.41,601.9669 C1913.41,601.9669 1913.41,951.9669 1913.41,951.9669 C1913.41,951.9669 3113.4,951.9669 3434.34,951.9669" fill="none" id="MatchService-to-BotRepository" style="stroke:#181818;stroke-width:1;"/><polygon fill="#181818" points="3440.34,951.9669,3431.34,947.9669,3435.34,951.9669,3431.34,955.9669,3440.34,951.9669" style="stroke:#181818;stroke-width:1;"/></g><!--link TournamentService to TournamentRepository--><g class="link" data-entity-1="ent0022" data-entity-2="ent0027" data-link-type="dependency" data-source-line="106" id="lnk79"><path codeLine="106" d="M2364.73,618.5869 C2364.73,628.2569 2364.73,636.9669 2364.73,636.9669 C2364.73,636.9669 3944.89,636.9669 3944.89,636.9669 C3944.89,636.9669 3944.89,830.7969 3944.89,902.9969" fill="none" id="TournamentService-to-TournamentRepository" style="stroke:#181818;stroke-width:1;"/><polygon fill="#181818" points="3944.89,908.9969,3948.89,899.9969,3944.89,903.9969,3940.89,899.9969,3944.89,908.9969" style="stroke:#181818;stroke-width:1;"/></g><!--link TournamentService to BotRepository--><g class="link" data-entity-1="ent0022" data-entity-2="ent0025" data-link-type="dependency" data-source-line="107" id="lnk80"><path codeLine="107" d="M2374.75,618.6869 C2374.75,696.8769 2374.75,926.9669 2374.75,926.9669 C2374.75,926.9669 3177,926.9669 3434.32,926.9669" fill="none" id="TournamentService-to-BotRepository" style="stroke:#181818;stroke-width:1;"/><polygon fill="#181818" points="3440.32,926.9669,3431.32,922.9669,3435.32,926.9669,3431.32,930.9669,3440.32,926.9669" style="stroke:#181818;stroke-width:1;"/></g><!--link UserService to UserRepository--><g class="link" data-entity-1="ent0023" data-entity-2="ent0028" data-link-type="dependency" data-source-line="108" id="lnk81"><path codeLine="108" d="M2039.72,778.8769 C2039.72,794.6769 2039.72,811.9669 2039.72,811.9669 C2039.72,811.9669 3718.11,811.9669 3718.11,811.9669 C3718.11,811.9669 3718.11,867.2869 3718.11,903.2169" fill="none" id="UserService-to-UserRepository" style="stroke:#181818;stroke-width:1;"/><polygon fill="#181818" points="3718.11,909.2169,3722.11,900.2169,3718.11,904.2169,3714.11,900.2169,3718.11,909.2169" style="stroke:#181818;stroke-width:1;"/></g><!--link UserService to BotRepository--><g class="link" data-entity-1="ent0023" data-entity-2="ent0025" data-link-type="dependency" data-source-line="109" id="lnk82"><path codeLine="109" d="M2086.28,778.9769 C2086.28,829.0369 2086.28,934.9669 2086.28,934.9669 C2086.28,934.9669 3135.84,934.9669 3434.26,934.9669" fill="none" id="UserService-to-BotRepository" style="stroke:#181818;stroke-width:1;"/><polygon fill="#181818" points="3440.26,934.9669,3431.26,930.9669,3435.26,934.9669,3431.26,938.9669,3440.26,934.9669" style="stroke:#181818;stroke-width:1;"/></g><!--link TournamentAutomationService to TournamentRepository--><g class="link" data-entity-1="ent0021" data-entity-2="ent0027" data-link-type="dependency" data-source-line="110" id="lnk83"><path codeLine="110" d="M2543.23,618.5469 C2543.23,625.4069 2543.23,630.9669 2543.23,630.9669 C2543.23,630.9669 3951.22,630.9669 3951.22,630.9669 C3951.22,630.9669 3951.22,829.7969 3951.22,903.0069" fill="none" id="TournamentAutomationService-to-TournamentRepository" style="stroke:#181818;stroke-width:1;"/><polygon fill="#181818" points="3951.22,909.0069,3955.22,900.0069,3951.22,904.0069,3947.22,900.0069,3951.22,909.0069" style="stroke:#181818;stroke-width:1;"/></g><!--link TournamentAutomationService to BotRepository--><g class="link" data-entity-1="ent0021" data-entity-2="ent0025" data-link-type="dependency" data-source-line="111" id="lnk84"><path codeLine="111" d="M2680.77,618.5369 C2680.77,695.1369 2680.77,917.9669 2680.77,917.9669 C2680.77,917.9669 3226.81,917.9669 3434.36,917.9669" fill="none" id="TournamentAutomationService-to-BotRepository" style="stroke:#181818;stroke-width:1;"/><polygon fill="#181818" points="3440.36,917.9669,3431.36,913.9669,3435.36,917.9669,3431.36,921.9669,3440.36,917.9669" style="stroke:#181818;stroke-width:1;"/></g><!--link MatchService to NotificationService--><g class="link" data-entity-1="ent0019" data-entity-2="ent0020" data-link-type="dependency" data-source-line="114" id="lnk85"><path codeLine="114" d="M1752.53,618.4369 C1752.53,648.3669 1752.53,691.7969 1752.53,721.7869" fill="none" id="MatchService-to-NotificationService" style="stroke:#181818;stroke-width:1;"/><polygon fill="#181818" points="1752.53,727.7869,1756.53,718.7869,1752.53,722.7869,1748.53,718.7869,1752.53,727.7869" style="stroke:#181818;stroke-width:1;"/></g><!--link MatchService to UserService--><g class="link" data-entity-1="ent0019" data-entity-2="ent0023" data-link-type="dependency" data-source-line="115" id="lnk86"><path codeLine="115" d="M1865.45,584.9669 C1900.33,584.9669 1934.15,584.9669 1934.15,584.9669 C1934.15,584.9669 1934.15,761.9669 1934.15,761.9669 C1934.15,761.9669 1956.7,761.9669 1986.92,761.9669" fill="none" id="MatchService-to-UserService" style="stroke:#181818;stroke-width:1;"/><polygon fill="#181818" points="1992.92,761.9669,1983.92,757.9669,1987.92,761.9669,1983.92,765.9669,1992.92,761.9669" style="stroke:#181818;stroke-width:1;"/></g><!--link MatchService to BotService--><g class="link" data-entity-1="ent0019" data-entity-2="ent0017" data-link-type="dependency" data-source-line="116" id="lnk87"><path codeLine="116" d="M1790.1,618.5869 C1790.1,635.6469 1790.1,654.9669 1790.1,654.9669 C1790.1,654.9669 2335.93,654.9669 2335.93,654.9669 C2335.93,654.9669 2335.93,692.5969 2335.93,721.7469" fill="none" id="MatchService-to-BotService" style="stroke:#181818;stroke-width:1;"/><polygon fill="#181818" points="2335.93,727.7469,2339.93,718.7469,2335.93,722.7469,2331.93,718.7469,2335.93,727.7469" style="stroke:#181818;stroke-width:1;"/></g><!--link TournamentAutomationService to BotService--><g class="link" data-entity-1="ent0021" data-entity-2="ent0017" data-link-type="dependency" data-source-line="117" id="lnk88"><path codeLine="117" d="M2612,618.4669 C2612,661.7169 2612,744.9669 2612,744.9669 C2612,744.9669 2455.64,744.9669 2361.14,744.9669" fill="none" id="TournamentAutomationService-to-BotService" style="stroke:#181818;stroke-width:1;"/><polygon fill="#181818" points="2355.14,744.9669,2364.14,748.9669,2360.14,744.9669,2364.14,740.9669,2355.14,744.9669" style="stroke:#181818;stroke-width:1;"/></g><!--link BotRepository to Bot--><g class="link" data-entity-1="ent0025" data-entity-2="ent0031" data-link-type="dependency" data-source-line="120" id="lnk89"><path codeLine="120" d="M3518,960.0969 C3518,1051.4069 3518,1356.9669 3518,1356.9669 C3518,1356.9669 4238.69,1356.9669 4238.69,1356.9669 C4238.69,1356.9669 4238.69,1381.6569 4238.69,1404.9169" fill="none" id="BotRepository-to-Bot" style="stroke:#181818;stroke-width:1;"/><polygon fill="#181818" points="4238.69,1410.9169,4242.69,1401.9169,4238.69,1405.9169,4234.69,1401.9169,4238.69,1410.9169" style="stroke:#181818;stroke-width:1;"/></g><!--link MatchRepository to Match--><g class="link" data-entity-1="ent0026" data-entity-2="ent0033" data-link-type="dependency" data-source-line="121" id="lnk90"><path codeLine="121" d="M4400.48,960.0269 C4400.48,1023.2669 4400.48,1181.2469 4400.48,1244.6569" fill="none" id="MatchRepository-to-Match" style="stroke:#181818;stroke-width:1;"/><polygon fill="#181818" points="4400.48,1250.6569,4404.48,1241.6569,4400.48,1245.6569,4396.48,1241.6569,4400.48,1250.6569" style="stroke:#181818;stroke-width:1;"/></g><!--link TournamentRepository to Tournament--><g class="link" data-entity-1="ent0027" data-entity-2="ent0032" data-link-type="dependency" data-source-line="122" id="lnk91"><path codeLine="122" d="M4047,960.2169 C4047,994.7769 4047,1049.9769 4047,1084.4669" fill="none" id="TournamentRepository-to-Tournament" style="stroke:#181818;stroke-width:1;"/><polygon fill="#181818" points="4047,1090.4669,4051,1081.4669,4047,1085.4669,4043,1081.4669,4047,1090.4669" style="stroke:#181818;stroke-width:1;"/></g><!--link UserRepository to User--><g class="link" data-entity-1="ent0028" data-entity-2="ent0030" data-link-type="dependency" data-source-line="123" id="lnk92"><path codeLine="123" d="M3767,960.1969 C3767,1047.5869 3767,1328.9669 3767,1328.9669 C3767,1328.9669 4418,1328.9669 4418,1328.9669 C4418,1328.9669 4418,1373.2269 4418,1405.0369" fill="none" id="UserRepository-to-User" style="stroke:#181818;stroke-width:1;"/><polygon fill="#181818" points="4418,1411.0369,4422,1402.0369,4418,1406.0369,4414,1402.0369,4418,1411.0369" style="stroke:#181818;stroke-width:1;"/></g><!--link User to Image--><g class="link" data-entity-1="ent0030" data-entity-2="ent0035" data-link-type="dependency" data-source-line="126" id="lnk93"><path codeLine="126" d="M4373.78,1444.9669 C4336.98,1444.9669 4290.56,1444.9669 4290.56,1444.9669 C4290.56,1444.9669 4290.56,1522.1769 4290.56,1565.4069" fill="none" id="User-to-Image" style="stroke:#181818;stroke-width:1;"/><polygon fill="#181818" points="4290.56,1571.4069,4294.56,1562.4069,4290.56,1566.4069,4286.56,1562.4069,4290.56,1571.4069" style="stroke:#181818;stroke-width:1;"/></g><!--link Bot to Image--><g class="link" data-entity-1="ent0031" data-entity-2="ent0035" data-link-type="dependency" data-source-line="127" id="lnk94"><path codeLine="127" d="M4244,1461.9169 C4244,1491.8469 4244,1535.2869 4244,1565.2769" fill="none" id="Bot-to-Image" style="stroke:#181818;stroke-width:1;"/><polygon fill="#181818" points="4244,1571.2769,4248,1562.2769,4244,1566.2769,4240,1562.2769,4244,1571.2769" style="stroke:#181818;stroke-width:1;"/></g><!--link Tournament to Image--><g class="link" data-entity-1="ent0032" data-entity-2="ent0035" data-link-type="dependency" data-source-line="128" id="lnk95"><path codeLine="128" d="M4118.09,1128.9669 C4188.92,1128.9669 4287.19,1128.9669 4287.19,1128.9669 C4287.19,1128.9669 4287.19,1467.7069 4287.19,1565.3369" fill="none" id="Tournament-to-Image" style="stroke:#181818;stroke-width:1;"/><polygon fill="#181818" points="4287.19,1571.3369,4291.19,1562.3369,4287.19,1566.3369,4283.19,1562.3369,4287.19,1571.3369" style="stroke:#181818;stroke-width:1;"/></g><!--link Tournament to TournamentStatus--><g class="link" data-entity-1="ent0032" data-entity-2="ent0036" data-link-type="dependency" data-source-line="129" id="lnk96"><path codeLine="129" d="M4102.35,1141.3269 C4102.35,1171.2569 4102.35,1214.6869 4102.35,1244.6769" fill="none" id="Tournament-to-TournamentStatus" style="stroke:#181818;stroke-width:1;"/><polygon fill="#181818" points="4102.35,1250.6769,4106.35,1241.6769,4102.35,1245.6769,4098.35,1241.6769,4102.35,1250.6769" style="stroke:#181818;stroke-width:1;"/></g><!--link Tournament to Bot--><g class="link" data-entity-1="ent0032" data-entity-2="ent0031" data-link-type="dependency" data-source-line="130" id="lnk97"><path codeLine="130" d="M4118.35,1134.9669 C4186.38,1134.9669 4278.52,1134.9669 4278.52,1134.9669 C4278.52,1134.9669 4278.52,1332.3669 4278.52,1405.0669" fill="none" id="Tournament-to-Bot" style="stroke:#181818;stroke-width:1;"/><polygon fill="#181818" points="4278.52,1411.0669,4282.52,1402.0669,4278.52,1406.0669,4274.52,1402.0669,4278.52,1411.0669" style="stroke:#181818;stroke-width:1;"/></g><!--link Tournament to Match--><g class="link" data-entity-1="ent0032" data-entity-2="ent0033" data-link-type="dependency" data-source-line="131" id="lnk98"><path codeLine="131" d="M4118.06,1122.9669 C4216.41,1122.9669 4382.06,1122.9669 4382.06,1122.9669 C4382.06,1122.9669 4382.06,1201.3869 4382.06,1244.9169" fill="none" id="Tournament-to-Match" style="stroke:#181818;stroke-width:1;"/><polygon fill="#181818" points="4382.06,1250.9169,4386.06,1241.9169,4382.06,1245.9169,4378.06,1241.9169,4382.06,1250.9169" style="stroke:#181818;stroke-width:1;"/></g><!--link Match to Bot--><g class="link" data-entity-1="ent0033" data-entity-2="ent0031" data-link-type="dependency" data-source-line="132" id="lnk99"><path codeLine="132" d="M4370.58,1301.7869 C4370.58,1345.2769 4370.58,1428.9669 4370.58,1428.9669 C4370.58,1428.9669 4327.13,1428.9669 4290.05,1428.9669" fill="none" id="Match-to-Bot" style="stroke:#181818;stroke-width:1;"/><polygon fill="#181818" points="4284.05,1428.9669,4293.05,1432.9669,4289.05,1428.9669,4293.05,1424.9669,4284.05,1428.9669" style="stroke:#181818;stroke-width:1;"/></g><!--link Match to Round--><g class="link" data-entity-1="ent0033" data-entity-2="ent0034" data-link-type="dependency" data-source-line="133" id="lnk100"><path codeLine="133" d="M4367.11,1301.7569 C4367.11,1333.6169 4367.11,1383.9669 4367.11,1383.9669 C4367.11,1383.9669 4100.63,1383.9669 4100.63,1383.9669 C4100.63,1383.9669 4100.63,1391.7269 4100.63,1405.1669" fill="none" id="Match-to-Round" style="stroke:#181818;stroke-width:1;"/><polygon fill="#181818" points="4100.63,1411.1669,4104.63,1402.1669,4100.63,1406.1669,4096.63,1402.1669,4100.63,1411.1669" style="stroke:#181818;stroke-width:1;"/></g><!--link SecurityConfig to CustomOAuth2UserService--><g class="link" data-entity-1="ent0038" data-entity-2="ent0040" data-link-type="dependency" data-source-line="136" id="lnk101"><path codeLine="136" d="M3850.9,413.3269 C3850.9,452.7769 3850.9,522.0069 3850.9,561.4569" fill="none" id="SecurityConfig-to-CustomOAuth2UserService" style="stroke:#181818;stroke-width:1;"/><polygon fill="#181818" points="3850.9,567.4569,3854.9,558.4569,3850.9,562.4569,3846.9,558.4569,3850.9,567.4569" style="stroke:#181818;stroke-width:1;"/></g><!--link SecurityConfig to CustomUserDetailsService--><g class="link" data-entity-1="ent0038" data-entity-2="ent0039" data-link-type="dependency" data-source-line="137" id="lnk102"><path codeLine="137" d="M3957.55,413.3869 C3957.55,450.0169 3957.55,512.9669 3957.55,512.9669 C3957.55,512.9669 4284.87,512.9669 4284.87,512.9669 C4284.87,512.9669 4284.87,538.2469 4284.87,561.7069" fill="none" id="SecurityConfig-to-CustomUserDetailsService" style="stroke:#181818;stroke-width:1;"/><polygon fill="#181818" points="4284.87,567.7069,4288.87,558.7069,4284.87,562.7069,4280.87,558.7069,4284.87,567.7069" style="stroke:#181818;stroke-width:1;"/></g><!--link SecurityConfig to LoginFailureHandler--><g class="link" data-entity-1="ent0038" data-entity-2="ent0041" data-link-type="dependency" data-source-line="138" id="lnk103"><path codeLine="138" d="M3963.88,413.0269 C3963.88,468.0969 3963.88,593.9669 3963.88,593.9669 C3963.88,593.9669 3963.94,593.9669 3973.27,593.9669" fill="none" id="SecurityConfig-to-LoginFailureHandler" style="stroke:#181818;stroke-width:1;"/><polygon fill="#181818" points="3979.27,593.9669,3970.27,589.9669,3974.27,593.9669,3970.27,597.9669,3979.27,593.9669" style="stroke:#181818;stroke-width:1;"/></g><!--link CustomUserDetailsService to UserRepository--><g class="link" data-entity-1="ent0039" data-entity-2="ent0028" data-link-type="dependency" data-source-line="139" id="lnk104"><path codeLine="139" d="M4342.49,618.4869 C4342.49,688.1769 4342.49,876.9669 4342.49,876.9669 C4342.49,876.9669 3815.89,876.9669 3815.89,876.9669 C3815.89,876.9669 3815.89,887.7269 3815.89,903.1669" fill="none" id="CustomUserDetailsService-to-UserRepository" style="stroke:#181818;stroke-width:1;"/><polygon fill="#181818" points="3815.89,909.1669,3819.89,900.1669,3815.89,904.1669,3811.89,900.1669,3815.89,909.1669" style="stroke:#181818;stroke-width:1;"/></g><!--link CustomOAuth2UserService to UserRepository--><g class="link" data-entity-1="ent0040" data-entity-2="ent0028" data-link-type="dependency" data-source-line="140" id="lnk105"><path codeLine="140" d="M3750.7,618.4369 C3750.7,681.6769 3750.7,839.6469 3750.7,903.0669" fill="none" id="CustomOAuth2UserService-to-UserRepository" style="stroke:#181818;stroke-width:1;"/><polygon fill="#181818" points="3750.7,909.0669,3754.7,900.0669,3750.7,904.0669,3746.7,900.0669,3750.7,909.0669" style="stroke:#181818;stroke-width:1;"/></g><!--link ActiveSessionService to User--><g class="link" data-entity-1="ent0042" data-entity-2="ent0030" data-link-type="dependency" data-source-line="141" id="lnk106"><path codeLine="141" d="M4508.18,413.3069 C4508.18,509.5869 4508.18,844.9669 4508.18,844.9669 C4508.18,844.9669 4497.46,844.9669 4497.46,844.9669 C4497.46,844.9669 4497.46,1436.9669 4497.46,1436.9669 C4497.46,1436.9669 4486.57,1436.9669 4468.37,1436.9669" fill="none" id="ActiveSessionService-to-User" style="stroke:#181818;stroke-width:1;"/><polygon fill="#181818" points="4462.37,1436.9669,4471.37,1440.9669,4467.37,1436.9669,4471.37,1432.9669,4462.37,1436.9669" style="stroke:#181818;stroke-width:1;"/></g><!--link WebConfig to MatchmakingLockInterceptor--><g class="link" data-entity-1="ent0043" data-entity-2="ent0044" data-link-type="dependency" data-source-line="142" id="lnk107"><path codeLine="142" d="M3424,413.3269 C3424,452.7769 3424,522.0069 3424,561.4569" fill="none" id="WebConfig-to-MatchmakingLockInterceptor" style="stroke:#181818;stroke-width:1;"/><polygon fill="#181818" points="3424,567.4569,3428,558.4569,3424,562.4569,3420,558.4569,3424,567.4569" style="stroke:#181818;stroke-width:1;"/></g><!--link MatchmakingLockInterceptor to MatchService--><g class="link" data-entity-1="ent0044" data-entity-2="ent0019" data-link-type="dependency" data-source-line="143" id="lnk108"><path codeLine="143" d="M3325.75,567.5969 C3325.75,525.7469 3325.75,446.9669 3325.75,446.9669 C3325.75,446.9669 1826.33,446.9669 1826.33,446.9669 C1826.33,446.9669 1826.33,519.7469 1826.33,561.5969" fill="none" id="MatchmakingLockInterceptor-to-MatchService" style="stroke:#181818;stroke-width:1;"/><polygon fill="#181818" points="1826.33,567.5969,1830.33,558.5969,1826.33,562.5969,1822.33,558.5969,1826.33,567.5969" style="stroke:#181818;stroke-width:1;"/></g><!--link MatchmakingLockInterceptor to UserService--><g class="link" data-entity-1="ent0044" data-entity-2="ent0023" data-link-type="dependency" data-source-line="144" id="lnk109"><path codeLine="144" d="M3367.13,618.5869 C3367.13,630.8669 3367.13,642.9669 3367.13,642.9669 C3367.13,642.9669 2122.25,642.9669 2122.25,642.9669 C2122.25,642.9669 2122.25,689.1369 2122.25,721.7369" fill="none" id="MatchmakingLockInterceptor-to-UserService" style="stroke:#181818;stroke-width:1;"/><polygon fill="#181818" points="2122.25,727.7369,2126.25,718.7369,2122.25,722.7369,2118.25,718.7369,2122.25,727.7369" style="stroke:#181818;stroke-width:1;"/></g><!--link DataInitializer to UserRepository--><g class="link" data-entity-1="ent0045" data-entity-2="ent0028" data-link-type="dependency" data-source-line="145" id="lnk110"><path codeLine="145" d="M4188.89,413.2669 C4188.89,478.9969 4188.89,648.9669 4188.89,648.9669 C4188.89,648.9669 3783.3,648.9669 3783.3,648.9669 C3783.3,648.9669 3783.3,832.9169 3783.3,903.0269" fill="none" id="DataInitializer-to-UserRepository" style="stroke:#181818;stroke-width:1;"/><polygon fill="#181818" points="3783.3,909.0269,3787.3,900.0269,3783.3,904.0269,3779.3,900.0269,3783.3,909.0269" style="stroke:#181818;stroke-width:1;"/></g><!--link DataInitializer to BotRepository--><g class="link" data-entity-1="ent0045" data-entity-2="ent0025" data-link-type="dependency" data-source-line="146" id="lnk111"><path codeLine="146" d="M4137.64,412.9969 C4137.64,436.8369 4137.64,468.9669 4137.64,468.9669 C4137.64,468.9669 3574.87,468.9669 3574.87,468.9669 C3574.87,468.9669 3574.87,806.0869 3574.87,903.2669" fill="none" id="DataInitializer-to-BotRepository" style="stroke:#181818;stroke-width:1;"/><polygon fill="#181818" points="3574.87,909.2669,3578.87,900.2669,3574.87,904.2669,3570.87,900.2669,3574.87,909.2669" style="stroke:#181818;stroke-width:1;"/></g><!--link DataInitializer to MatchRepository--><g class="link" data-entity-1="ent0045" data-entity-2="ent0026" data-link-type="dependency" data-source-line="147" id="lnk112"><path codeLine="147" d="M4214.32,387.9669 C4238.55,387.9669 4259.09,387.9669 4259.09,387.9669 C4259.09,387.9669 4259.09,794.9169 4259.09,902.9969" fill="none" id="DataInitializer-to-MatchRepository" style="stroke:#181818;stroke-width:1;"/><polygon fill="#181818" points="4259.09,908.9969,4263.09,899.9969,4259.09,903.9969,4255.09,899.9969,4259.09,908.9969" style="stroke:#181818;stroke-width:1;"/></g><!--link DataInitializer to TournamentRepository--><g class="link" data-entity-1="ent0045" data-entity-2="ent0027" data-link-type="dependency" data-source-line="148" id="lnk113"><path codeLine="148" d="M4201.39,413.0369 C4201.39,520.6569 4201.39,934.9669 4201.39,934.9669 C4201.39,934.9669 4187.45,934.9669 4161.9,934.9669" fill="none" id="DataInitializer-to-TournamentRepository" style="stroke:#181818;stroke-width:1;"/><polygon fill="#181818" points="4155.9,934.9669,4164.9,938.9669,4160.9,934.9669,4164.9,930.9669,4155.9,934.9669" style="stroke:#181818;stroke-width:1;"/></g><!--link DataInitializer to MatchService--><g class="link" data-entity-1="ent0045" data-entity-2="ent0019" data-link-type="dependency" data-source-line="149" id="lnk114"><path codeLine="149" d="M4098.87,413.2669 C4098.87,424.8369 4098.87,435.9669 4098.87,435.9669 C4098.87,435.9669 1796.18,435.9669 1796.18,435.9669 C1796.18,435.9669 1796.18,516.9469 1796.18,561.4469" fill="none" id="DataInitializer-to-MatchService" style="stroke:#181818;stroke-width:1;"/><polygon fill="#181818" points="1796.18,567.4469,1800.18,558.4469,1796.18,562.4469,1792.18,558.4469,1796.18,567.4469" style="stroke:#181818;stroke-width:1;"/></g><!--link Presentacion to GMN115--><g class="link" data-entity-1="ent0002" data-entity-2="ent0116" data-link-type="association" data-source-line="152" id="lnk117"><path d="M2082.2066,227.9669 C2082.2789,227.9669 2082.3516,227.9669 2082.4248,227.9669 C2082.5711,227.9669 2082.7191,227.9669 2082.8689,227.9669 C2083.1684,227.9669 2083.4749,227.9669 2083.7881,227.9669 C2088.8,227.9669 2095.5525,227.9669 2103.61,227.9669 C2119.725,227.9669 2141.06,227.9669 2164.13,227.9669" fill="none" id="Presentacion-GMN115" style="stroke:#181818;stroke-width:1;stroke-dasharray:7,7;"/></g><!--link Logica de Negocio to GMN118--><g class="link" data-entity-1="ent0016" data-entity-2="ent0119" data-link-type="association" data-source-line="156" id="lnk120"><path d="M2840,499.545 C2840,499.0351 2840,498.5242 2840,498.0124 C2840,496.9888 2840,495.9615 2840,494.9307 C2840,478.4388 2840,461.065 2840,443.8219 C2840,374.8494 2840,307.9669 2840,307.9669 C2840,307.9669 5483,307.9669 5483,307.9669 C5483,307.9669 5483,498.8769 5483,568.2369" fill="none" id="Logica de Negocio-GMN118" style="stroke:#181818;stroke-width:1;stroke-dasharray:7,7;"/></g><!--link Persistencia to GMN121--><g class="link" data-entity-1="ent0024" data-entity-2="ent0122" data-link-type="association" data-source-line="160" id="lnk123"><path d="M4517.7369,934.9669 C4518.3263,934.9669 4518.9443,934.9669 4519.5905,934.9669 C4524.7601,934.9669 4531.7355,934.9669 4540.3252,934.9669 C4557.5046,934.9669 4581.1414,934.9669 4609.7047,934.9669 C4666.8313,934.9669 4743.6638,934.9669 4827.955,934.9669 C4996.5375,934.9669 5194.955,934.9669 5325.23,934.9669" fill="none" id="Persistencia-GMN121" style="stroke:#181818;stroke-width:1;stroke-dasharray:7,7;"/></g><!--link Dominio to GMN124--><g class="link" data-entity-1="ent0029" data-entity-2="ent0125" data-link-type="association" data-source-line="164" id="lnk126"><path d="M4494.0706,1115.9669 C4494.3571,1115.9669 4494.651,1115.9669 4494.9521,1115.9669 C4495.5544,1115.9669 4496.1859,1115.9669 4496.8461,1115.9669 C4502.128,1115.9669 4509.252,1115.9669 4518.0247,1115.9669 C4535.57,1115.9669 4559.71,1115.9669 4588.8975,1115.9669 C4647.2725,1115.9669 4725.8375,1115.9669 4812.215,1115.9669 C4984.97,1115.9669 5188.975,1115.9669 5325.21,1115.9669" fill="none" id="Dominio-GMN124" style="stroke:#181818;stroke-width:1;stroke-dasharray:7,7;"/></g><?plantuml-src bLTDZzis4BtpLn2vzDBTTdFh9O2xksrTP5DZdRRdMOgMYPL8WQHIE4N-UuUIBV5ZwAGN0U9x7BwP8OT3zwhq01PwFe1uXLRk_QcJt4hXGRUTP6uXT4fBVneaDzOVJGIu8pJc7wLRVe3EnLEqQQIJ0__fnsZGWduDWtTtyUW0JHDCtBrbHzL8til-HLh7c5SU1Us5SivOntUT12Vv3NzGqE94u4Y-Xm6GUdQ1lzbPN5Px4CheD_nVnla2_IrVvX7EHGVEyKtJAtrljBUcwwIDaT4VIU1duydnROzBaCWJLDPu0Y_eHJwQqMheqGqI_jD9cm1VMEpcPhSbtFnWl3ee0HxZGbgj4YRhC-VNphn0jwARvfCIads9ul_Uj6WaPEQ3R0rcOTQoH6ylxJJdCdH_15iCJg791sE1ERP633Dd-gzmSYG4z38M-xB3NQYSbreecDrGsajx0263AyzoC4vvOqy9CeclOAk62Y58YQ1OpOF1DARn3Emuk8IlQKoNlsSpweObknV_f1xxE4uU_EWI4Ljzi22TjwFmeuLOp5wAqIf_mkrnKEsQuD5XHeBI1-b1TQxO0HFXZt3atiQPkE1XH-bVSEPevM-WcoxoUIEy-YJtqZaYuNZUCorJ37h0ojE-D-9r6y8kv82XNYWFu66hbLVGgS-u4Zh_7O-B2hzvn_MyjLbMGFWDOkKskyugDop5ZmD3uT79ek3ab544Cf0iBOE5aAGOvZ9AyFhKH69MJYk1fLZn8XIUdjkqEESk46XIcGYy54cGOeq4d4GYkoKe4IKXyQ64u_MfkwRYIPKQsqilfs-18x44clXwvIQRoDGLyJ_fz1N7Rs_V5Ut25MfsHMC9ET-6eNeCqRN2Lk_9xRawlqRZ6Y6TN-Gmo-nNgQcvA95BOg_0DIr5nViMLVIaT8aqp9SYNSI8Idj1Iize6UNoK5GLBkKKBv8ezK5ZCz_fBF7ZCezbsLvt0AE2bKMHfTbPd0eopgt4H9c0kG70DQE_rLHziEWLCZnuaGtD3apVrD7fR-vBK6BMQB2qkvZhPALng5A99eJWKlr6RJvr32goA2frwww9MlgNDMvqxrA7AjT5dHl7CMk5A0SeIdecAKPUnIWEMGwgnfOZfet79wngZvwRG_OQn1xlN9FnqOe0V_hhdf-mwMq6WnquTh3xnn-U7_SVRncEyM2gC5W-Ru9LSCQ5iT6Px_41tM8dYORXN10-JyjBTyLiyj90YniXf3CS5mAFfWMsdVl1XaTo207_VRUvOkpoK40xZzgh1l0bFlavzjAUjV1WJQW1kbZNVm00?></g></svg>